<svg xmlns="http://www.w3.org/2000/svg" xmlns:xlink="http://www.w3.org/1999/xlink" viewBox="0 0 738 348" width="738" height="348"><path d="M 19.500,165.000 C 22.000,163.000 22.508,163.435 24.500,161.000" stroke-width="5.401" stroke="black" fill="none" stroke-linecap="round"></path><path d="M 24.500,161.000 C 27.008,157.935 26.340,157.395 28.500,154.000" stroke-width="4.242" stroke="black" fill="none" stroke-linecap="round"></path><path d="M 28.500,154.000 C 29.840,151.895 29.843,151.864 31.500,150.000" stroke-width="4.353" stroke="black" fill="none" stroke-linecap="round"></path><path d="M 31.500,150.000 C 33.843,147.364 33.864,147.343 36.500,145.000" stroke-width="4.577" stroke="black" fill="none" stroke-linecap="round"></path><path d="M 36.500,145.000 C 38.364,143.343 38.423,143.385 40.500,142.000" stroke-width="4.369" stroke="black" fill="none" stroke-linecap="round"></path><path d="M 40.500,142.000 C 42.923,140.385 42.935,140.381 45.500,139.000" stroke-width="4.241" stroke="black" fill="none" stroke-linecap="round"></path><path d="M 45.500,139.000 C 49.435,136.881 49.311,136.396 53.500,135.000" stroke-width="3.777" stroke="black" fill="none" stroke-linecap="round"></path><path d="M 53.500,135.000 C 56.811,133.896 57.000,134.500 60.500,134.000" stroke-width="4.338" stroke="black" fill="none" stroke-linecap="round"></path><path d="M 60.500,134.000 C 64.000,133.500 64.000,133.500 67.500,133.000" stroke-width="4.022" stroke="black" fill="none" stroke-linecap="round"></path><path d="M 67.500,133.000 C 71.000,132.500 70.979,132.207 74.500,132.000" stroke-width="4.034" stroke="black" fill="none" stroke-linecap="round"></path><path d="M 74.500,132.000 C 79.479,131.707 79.599,131.387 84.500,132.000" stroke-width="3.615" stroke="black" fill="none" stroke-linecap="round"></path><path d="M 84.500,132.000 C 87.599,132.387 87.415,133.525 90.500,134.000" stroke-width="3.897" stroke="black" fill="none" stroke-linecap="round"></path><path d="M 90.500,134.000 C 93.915,134.525 94.000,134.000 97.500,134.000" stroke-width="4.003" stroke="black" fill="none" stroke-linecap="round"></path><path d="M 97.500,134.000 C 102.000,134.000 102.020,133.720 106.500,134.000" stroke-width="3.822" stroke="black" fill="none" stroke-linecap="round"></path><path d="M 106.500,134.000 C 110.020,134.220 110.068,134.192 113.500,135.000" stroke-width="3.877" stroke="black" fill="none" stroke-linecap="round"></path><path d="M 113.500,135.000 C 118.568,136.192 118.492,136.527 123.500,138.000" stroke-width="3.533" stroke="black" fill="none" stroke-linecap="round"></path><path d="M 123.500,138.000 C 126.992,139.027 126.949,139.239 130.500,140.000" stroke-width="3.807" stroke="black" fill="none" stroke-linecap="round"></path><path d="M 130.500,140.000 C 133.949,140.739 134.020,141.205 137.500,141.000" stroke-width="3.922" stroke="black" fill="none" stroke-linecap="round"></path><path d="M 137.500,141.000 C 142.520,140.705 142.634,140.431 147.500,139.000" stroke-width="3.568" stroke="black" fill="none" stroke-linecap="round"></path><path d="M 87.500,132.000 C 87.500,134.500 87.500,134.500 87.500,137.000" stroke-width="5.368" stroke="black" fill="none" stroke-linecap="round"></path><path d="M 87.500,137.000 C 87.500,140.000 87.500,140.000 87.500,143.000" stroke-width="4.927" stroke="black" fill="none" stroke-linecap="round"></path><path d="M 87.500,143.000 C 87.500,148.500 87.500,148.500 87.500,154.000" stroke-width="4.433" stroke="black" fill="none" stroke-linecap="round"></path><path d="M 87.500,154.000 C 87.500,157.000 87.500,157.000 87.500,160.000" stroke-width="4.236" stroke="black" fill="none" stroke-linecap="round"></path><path d="M 87.500,160.000 C 87.500,162.500 87.500,162.500 87.500,165.000" stroke-width="4.271" stroke="black" fill="none" stroke-linecap="round"></path><path d="M 87.500,165.000 C 87.500,167.500 87.252,167.525 87.500,170.000" stroke-width="4.683" stroke="black" fill="none" stroke-linecap="round"></path><path d="M 87.500,170.000 C 87.752,172.525 88.081,172.486 88.500,175.000" stroke-width="4.428" stroke="black" fill="none" stroke-linecap="round"></path><path d="M 88.500,175.000 C 89.081,178.486 88.919,178.514 89.500,182.000" stroke-width="4.552" stroke="black" fill="none" stroke-linecap="round"></path><path d="M 89.500,182.000 C 89.919,184.514 90.289,184.471 90.500,187.000" stroke-width="4.919" stroke="black" fill="none" stroke-linecap="round"></path><path d="M 90.500,187.000 C 90.789,190.471 90.500,190.500 90.500,194.000" stroke-width="4.738" stroke="black" fill="none" stroke-linecap="round"></path><path d="M 90.500,194.000 C 90.500,197.000 90.770,197.027 90.500,200.000" stroke-width="4.753" stroke="black" fill="none" stroke-linecap="round"></path><path d="M 90.500,200.000 C 90.270,202.527 89.956,202.492 89.500,205.000" stroke-width="4.849" stroke="black" fill="none" stroke-linecap="round"></path><path d="M 89.500,205.000 C 88.956,207.992 89.296,208.083 88.500,211.000" stroke-width="4.794" stroke="black" fill="none" stroke-linecap="round"></path><path d="M 88.500,211.000 C 87.796,213.583 87.796,213.667 86.500,216.000" stroke-width="4.983" stroke="black" fill="none" stroke-linecap="round"></path><path d="M 86.500,216.000 C 85.296,218.167 85.142,218.123 83.500,220.000" stroke-width="4.914" stroke="black" fill="none" stroke-linecap="round"></path><path d="M 83.500,220.000 C 81.642,222.123 81.698,222.242 79.500,224.000" stroke-width="4.835" stroke="black" fill="none" stroke-linecap="round"></path><path d="M 79.500,224.000 C 76.698,226.242 76.755,226.644 73.500,228.000" stroke-width="4.900" stroke="black" fill="none" stroke-linecap="round"></path><path d="M 73.500,228.000 C 70.755,229.144 70.242,229.857 67.500,229.000" stroke-width="4.809" stroke="black" fill="none" stroke-linecap="round"></path><path d="M 67.500,229.000 C 62.242,227.357 61.500,227.000 57.500,223.000" stroke-width="4.307" stroke="black" fill="none" stroke-linecap="round"></path><path d="M 57.500,223.000 C 53.500,219.000 53.963,218.233 51.500,213.000" stroke-width="3.511" stroke="black" fill="none" stroke-linecap="round"></path><path d="M 92.500,200.000 C 94.500,201.500 94.272,202.010 96.500,203.000" stroke-width="4.909" stroke="black" fill="none" stroke-linecap="round"></path><path d="M 96.500,203.000 C 98.772,204.010 98.973,203.770 101.500,204.000" stroke-width="4.910" stroke="black" fill="none" stroke-linecap="round"></path><path d="M 101.500,204.000 C 104.473,204.270 105.047,205.321 107.500,204.000" stroke-width="4.819" stroke="black" fill="none" stroke-linecap="round"></path><path d="M 107.500,204.000 C 111.547,201.821 112.847,201.134 114.500,197.000" stroke-width="4.486" stroke="black" fill="none" stroke-linecap="round"></path><path d="M 114.500,197.000 C 115.847,193.634 115.098,192.463 113.500,189.000" stroke-width="4.510" stroke="black" fill="none" stroke-linecap="round"></path><path d="M 113.500,189.000 C 112.098,185.963 108.500,184.852 108.500,184.000" stroke-width="4.612" stroke="black" fill="none" stroke-linecap="round"></path><path d="M 108.500,184.000 C 108.500,183.352 110.907,185.481 113.500,186.000" stroke-width="5.097" stroke="black" fill="none" stroke-linecap="round"></path><path d="M 113.500,186.000 C 115.907,186.481 117.838,184.675 118.500,186.000" stroke-width="4.985" stroke="black" fill="none" stroke-linecap="round"></path><path d="M 118.500,186.000 C 119.338,187.675 117.801,189.138 116.500,192.000" stroke-width="5.182" stroke="black" fill="none" stroke-linecap="round"></path><path d="M 116.500,192.000 C 115.301,194.638 114.699,194.362 113.500,197.000" stroke-width="4.392" stroke="black" fill="none" stroke-linecap="round"></path><path d="M 113.500,197.000 C 112.199,199.862 112.117,199.916 111.500,203.000" stroke-width="4.133" stroke="black" fill="none" stroke-linecap="round"></path><path d="M 111.500,203.000 C 110.617,207.416 110.782,207.488 110.500,212.000" stroke-width="3.739" stroke="black" fill="none" stroke-linecap="round"></path><path d="M 110.500,212.000 C 110.282,215.488 110.500,215.500 110.500,219.000" stroke-width="3.907" stroke="black" fill="none" stroke-linecap="round"></path><path d="M 110.500,219.000 C 110.500,221.500 110.500,221.500 110.500,224.000" stroke-width="4.165" stroke="black" fill="none" stroke-linecap="round"></path><path d="M 110.500,224.000 C 110.500,226.500 108.912,229.265 110.500,229.000" stroke-width="4.644" stroke="black" fill="none" stroke-linecap="round"></path><path d="M 110.500,229.000 C 114.912,228.265 117.438,226.429 122.500,222.000" stroke-width="4.590" stroke="black" fill="none" stroke-linecap="round"></path><path d="M 122.500,222.000 C 125.438,219.429 124.604,218.556 126.500,215.000" stroke-width="4.073" stroke="black" fill="none" stroke-linecap="round"></path><path d="M 126.500,215.000 C 128.604,211.056 129.012,211.166 130.500,207.000" stroke-width="3.847" stroke="black" fill="none" stroke-linecap="round"></path><circle r="1.5" cx="136.5" cy="167" fill="black"></circle><circle r="1.5" cx="137.5" cy="165" fill="black"></circle><path d="M 130.500,204.000 C 130.500,208.500 130.500,208.500 130.500,213.000" stroke-width="5.264" stroke="black" fill="none" stroke-linecap="round"></path><path d="M 130.500,213.000 C 130.500,216.500 130.232,216.522 130.500,220.000" stroke-width="4.830" stroke="black" fill="none" stroke-linecap="round"></path><path d="M 130.500,220.000 C 130.732,223.022 130.704,223.083 131.500,226.000" stroke-width="4.803" stroke="black" fill="none" stroke-linecap="round"></path><path d="M 131.500,226.000 C 132.204,228.583 131.543,229.913 133.500,231.000" stroke-width="4.840" stroke="black" fill="none" stroke-linecap="round"></path><path d="M 133.500,231.000 C 136.043,232.413 137.227,231.818 140.500,231.000" stroke-width="4.732" stroke="black" fill="none" stroke-linecap="round"></path><path d="M 140.500,231.000 C 143.227,230.318 143.363,229.924 145.500,228.000" stroke-width="4.383" stroke="black" fill="none" stroke-linecap="round"></path><path d="M 145.500,228.000 C 148.363,225.424 148.000,225.000 150.500,222.000" stroke-width="3.999" stroke="black" fill="none" stroke-linecap="round"></path><path d="M 150.500,222.000 C 153.000,219.000 153.210,219.149 155.500,216.000" stroke-width="3.945" stroke="black" fill="none" stroke-linecap="round"></path><path d="M 155.500,216.000 C 157.210,213.649 157.358,213.665 158.500,211.000" stroke-width="4.112" stroke="black" fill="none" stroke-linecap="round"></path><path d="M 158.500,211.000 C 160.358,206.665 160.199,206.553 161.500,202.000" stroke-width="3.748" stroke="black" fill="none" stroke-linecap="round"></path><path d="M 161.500,202.000 C 162.199,199.553 161.927,199.484 162.500,197.000" stroke-width="4.135" stroke="black" fill="none" stroke-linecap="round"></path><path d="M 162.500,197.000 C 163.427,192.984 162.983,189.253 164.500,189.000" stroke-width="3.886" stroke="black" fill="none" stroke-linecap="round"></path><path d="M 164.500,189.000 C 165.983,188.753 166.969,192.325 168.500,196.000" stroke-width="4.820" stroke="black" fill="none" stroke-linecap="round"></path><path d="M 168.500,196.000 C 169.469,198.325 169.270,198.473 169.500,201.000" stroke-width="4.418" stroke="black" fill="none" stroke-linecap="round"></path><path d="M 169.500,201.000 C 169.770,203.973 169.500,204.000 169.500,207.000" stroke-width="4.184" stroke="black" fill="none" stroke-linecap="round"></path><path d="M 169.500,207.000 C 169.500,212.500 169.500,212.500 169.500,218.000" stroke-width="3.550" stroke="black" fill="none" stroke-linecap="round"></path><path d="M 169.500,218.000 C 169.500,221.500 169.500,221.500 169.500,225.000" stroke-width="4.263" stroke="black" fill="none" stroke-linecap="round"></path><path d="M 169.500,225.000 C 169.500,227.500 170.853,229.098 169.500,230.000" stroke-width="4.680" stroke="black" fill="none" stroke-linecap="round"></path><path d="M 169.500,230.000 C 167.853,231.098 165.409,230.909 163.500,229.000" stroke-width="5.089" stroke="black" fill="none" stroke-linecap="round"></path><path d="M 163.500,229.000 C 160.409,225.909 160.827,224.643 159.500,220.000" stroke-width="4.534" stroke="black" fill="none" stroke-linecap="round"></path><path d="M 159.500,220.000 C 158.827,217.643 159.981,217.407 159.500,215.000" stroke-width="4.761" stroke="black" fill="none" stroke-linecap="round"></path><path d="M 169.500,217.000 C 172.500,213.500 173.265,213.911 175.500,210.000" stroke-width="5.290" stroke="black" fill="none" stroke-linecap="round"></path><path d="M 175.500,210.000 C 177.265,206.911 176.617,206.530 177.500,203.000" stroke-width="4.265" stroke="black" fill="none" stroke-linecap="round"></path><path d="M 177.500,203.000 C 179.117,196.530 179.309,196.553 180.500,190.000" stroke-width="3.350" stroke="black" fill="none" stroke-linecap="round"></path><path d="M 180.500,190.000 C 181.309,185.553 180.938,185.492 181.500,181.000" stroke-width="3.516" stroke="black" fill="none" stroke-linecap="round"></path><path d="M 181.500,181.000 C 181.938,177.492 181.761,177.449 182.500,174.000" stroke-width="3.777" stroke="black" fill="none" stroke-linecap="round"></path><path d="M 182.500,174.000 C 183.261,170.449 183.350,170.449 184.500,167.000" stroke-width="3.934" stroke="black" fill="none" stroke-linecap="round"></path><path d="M 184.500,167.000 C 185.350,164.449 185.500,164.500 186.500,162.000" stroke-width="4.203" stroke="black" fill="none" stroke-linecap="round"></path><path d="M 186.500,162.000 C 187.500,159.500 187.981,157.000 188.500,157.000" stroke-width="4.652" stroke="black" fill="none" stroke-linecap="round"></path><path d="M 188.500,157.000 C 188.981,157.000 188.678,159.510 188.500,162.000" stroke-width="4.999" stroke="black" fill="none" stroke-linecap="round"></path><path d="M 188.500,162.000 C 188.178,166.510 187.929,166.493 187.500,171.000" stroke-width="4.596" stroke="black" fill="none" stroke-linecap="round"></path><path d="M 187.500,171.000 C 186.929,176.993 187.099,177.010 186.500,183.000" stroke-width="3.663" stroke="black" fill="none" stroke-linecap="round"></path><path d="M 186.500,183.000 C 186.099,187.010 185.901,186.990 185.500,191.000" stroke-width="3.769" stroke="black" fill="none" stroke-linecap="round"></path><path d="M 185.500,191.000 C 184.901,196.990 185.099,197.010 184.500,203.000" stroke-width="3.422" stroke="black" fill="none" stroke-linecap="round"></path><path d="M 184.500,203.000 C 184.099,207.010 183.723,206.983 183.500,211.000" stroke-width="3.688" stroke="black" fill="none" stroke-linecap="round"></path><path d="M 183.500,211.000 C 183.223,215.983 183.500,216.000 183.500,221.000" stroke-width="3.527" stroke="black" fill="none" stroke-linecap="round"></path><path d="M 183.500,221.000 C 183.500,223.500 183.500,223.500 183.500,226.000" stroke-width="4.026" stroke="black" fill="none" stroke-linecap="round"></path><path d="M 183.500,226.000 C 183.500,228.500 182.500,229.000 183.500,231.000" stroke-width="4.245" stroke="black" fill="none" stroke-linecap="round"></path><path d="M 183.500,231.000 C 184.500,233.000 185.519,234.610 187.500,234.000" stroke-width="4.892" stroke="black" fill="none" stroke-linecap="round"></path><path d="M 187.500,234.000 C 192.019,232.610 192.329,230.823 196.500,227.000" stroke-width="4.371" stroke="black" fill="none" stroke-linecap="round"></path><path d="M 196.500,227.000 C 198.329,225.323 197.939,224.952 199.500,223.000" stroke-width="4.354" stroke="black" fill="none" stroke-linecap="round"></path><path d="M 199.500,223.000 C 201.939,219.952 201.637,219.576 204.500,217.000" stroke-width="3.936" stroke="black" fill="none" stroke-linecap="round"></path><path d="M 204.500,217.000 C 206.637,215.076 206.833,214.533 209.500,214.000" stroke-width="4.653" stroke="black" fill="none" stroke-linecap="round"></path><path d="M 209.500,214.000 C 211.833,213.533 213.500,216.000 214.500,215.000" stroke-width="5.090" stroke="black" fill="none" stroke-linecap="round"></path><path d="M 214.500,215.000 C 215.500,214.000 214.510,212.272 213.500,210.000" stroke-width="5.263" stroke="black" fill="none" stroke-linecap="round"></path><path d="M 213.500,210.000 C 212.510,207.772 212.254,207.754 210.500,206.000" stroke-width="4.629" stroke="black" fill="none" stroke-linecap="round"></path><path d="M 210.500,206.000 C 208.254,203.754 207.865,201.570 205.500,202.000" stroke-width="4.717" stroke="black" fill="none" stroke-linecap="round"></path><path d="M 205.500,202.000 C 202.365,202.570 201.388,204.539 199.500,208.000" stroke-width="4.895" stroke="black" fill="none" stroke-linecap="round"></path><path d="M 199.500,208.000 C 198.388,210.039 199.500,210.500 199.500,213.000" stroke-width="4.498" stroke="black" fill="none" stroke-linecap="round"></path><path d="M 199.500,213.000 C 199.500,216.500 198.734,216.681 199.500,220.000" stroke-width="4.072" stroke="black" fill="none" stroke-linecap="round"></path><path d="M 199.500,220.000 C 200.234,223.181 200.102,224.082 202.500,226.000" stroke-width="4.476" stroke="black" fill="none" stroke-linecap="round"></path><path d="M 202.500,226.000 C 205.102,228.082 206.405,228.563 209.500,228.000" stroke-width="4.771" stroke="black" fill="none" stroke-linecap="round"></path><path d="M 209.500,228.000 C 211.905,227.563 211.851,226.268 213.500,224.000" stroke-width="4.793" stroke="black" fill="none" stroke-linecap="round"></path><path d="M 213.500,224.000 C 215.851,220.768 215.801,220.641 217.500,217.000" stroke-width="4.004" stroke="black" fill="none" stroke-linecap="round"></path><path d="M 217.500,217.000 C 219.301,213.141 220.260,208.760 220.500,209.000" stroke-width="4.336" stroke="black" fill="none" stroke-linecap="round"></path><path d="M 220.500,209.000 C 220.760,209.260 219.068,213.453 218.500,218.000" stroke-width="4.999" stroke="black" fill="none" stroke-linecap="round"></path><path d="M 218.500,218.000 C 218.068,221.453 218.500,221.500 218.500,225.000" stroke-width="4.186" stroke="black" fill="none" stroke-linecap="round"></path><path d="M 218.500,225.000 C 218.500,229.000 218.195,229.030 218.500,233.000" stroke-width="4.401" stroke="black" fill="none" stroke-linecap="round"></path><path d="M 218.500,233.000 C 218.695,235.530 217.748,237.027 219.500,238.000" stroke-width="4.733" stroke="black" fill="none" stroke-linecap="round"></path><path d="M 219.500,238.000 C 222.248,239.527 223.890,239.111 227.500,238.000" stroke-width="4.823" stroke="black" fill="none" stroke-linecap="round"></path><path d="M 227.500,238.000 C 230.390,237.111 230.111,236.124 232.500,234.000" stroke-width="4.282" stroke="black" fill="none" stroke-linecap="round"></path><path d="M 232.500,234.000 C 234.611,232.124 234.590,232.084 236.500,230.000" stroke-width="4.281" stroke="black" fill="none" stroke-linecap="round"></path><path d="M 236.500,230.000 C 240.090,226.084 239.910,225.916 243.500,222.000" stroke-width="3.607" stroke="black" fill="none" stroke-linecap="round"></path><path d="M 243.500,222.000 C 245.410,219.916 245.624,220.111 247.500,218.000" stroke-width="4.016" stroke="black" fill="none" stroke-linecap="round"></path><path d="M 247.500,218.000 C 249.624,215.611 249.362,215.376 251.500,213.000" stroke-width="4.017" stroke="black" fill="none" stroke-linecap="round"></path><path d="M 251.500,213.000 C 253.862,210.376 255.565,207.299 256.500,208.000" stroke-width="4.459" stroke="black" fill="none" stroke-linecap="round"></path><path d="M 256.500,208.000 C 257.565,208.799 256.399,212.103 255.500,216.000" stroke-width="5.051" stroke="black" fill="none" stroke-linecap="round"></path><path d="M 255.500,216.000 C 254.899,218.603 254.019,218.407 253.500,221.000" stroke-width="4.479" stroke="black" fill="none" stroke-linecap="round"></path><path d="M 253.500,221.000 C 253.019,223.407 253.691,223.512 253.500,226.000" stroke-width="4.385" stroke="black" fill="none" stroke-linecap="round"></path><path d="M 253.500,226.000 C 253.191,230.012 253.033,230.004 252.500,234.000" stroke-width="3.970" stroke="black" fill="none" stroke-linecap="round"></path><path d="M 252.500,234.000 C 252.033,237.504 251.793,240.414 251.500,241.000" stroke-width="4.442" stroke="black" fill="none" stroke-linecap="round"></path><path d="M 251.500,241.000 C 251.293,241.414 251.500,238.500 251.500,236.000" stroke-width="5.015" stroke="black" fill="none" stroke-linecap="round"></path><path d="M 251.500,236.000 C 251.500,233.500 251.293,233.485 251.500,231.000" stroke-width="4.481" stroke="black" fill="none" stroke-linecap="round"></path><path d="M 251.500,231.000 C 251.793,227.485 252.033,227.504 252.500,224.000" stroke-width="4.162" stroke="black" fill="none" stroke-linecap="round"></path><path d="M 252.500,224.000 C 253.033,220.004 252.872,219.980 253.500,216.000" stroke-width="3.913" stroke="black" fill="none" stroke-linecap="round"></path><path d="M 253.500,216.000 C 254.372,210.480 254.223,210.429 255.500,205.000" stroke-width="3.592" stroke="black" fill="none" stroke-linecap="round"></path><path d="M 255.500,205.000 C 256.223,201.929 255.761,201.485 257.500,199.000" stroke-width="3.933" stroke="black" fill="none" stroke-linecap="round"></path><path d="M 257.500,199.000 C 259.261,196.485 259.784,196.630 262.500,195.000" stroke-width="4.461" stroke="black" fill="none" stroke-linecap="round"></path><path d="M 262.500,195.000 C 264.784,193.630 264.890,193.186 267.500,193.000" stroke-width="4.281" stroke="black" fill="none" stroke-linecap="round"></path><path d="M 267.500,193.000 C 271.890,192.686 273.386,191.605 276.500,194.000" stroke-width="4.597" stroke="black" fill="none" stroke-linecap="round"></path><path d="M 276.500,194.000 C 279.886,196.605 278.955,198.364 280.500,203.000" stroke-width="4.408" stroke="black" fill="none" stroke-linecap="round"></path><path d="M 280.500,203.000 C 281.455,205.864 281.248,205.979 281.500,209.000" stroke-width="4.263" stroke="black" fill="none" stroke-linecap="round"></path><path d="M 281.500,209.000 C 281.748,211.979 281.500,212.000 281.500,215.000" stroke-width="4.141" stroke="black" fill="none" stroke-linecap="round"></path><path d="M 281.500,215.000 C 281.500,218.000 281.500,218.000 281.500,221.000" stroke-width="4.106" stroke="black" fill="none" stroke-linecap="round"></path><path d="M 281.500,221.000 C 281.500,225.500 280.913,225.595 281.500,230.000" stroke-width="4.339" stroke="black" fill="none" stroke-linecap="round"></path><path d="M 281.500,230.000 C 281.913,233.095 282.608,232.967 283.500,236.000" stroke-width="4.777" stroke="black" fill="none" stroke-linecap="round"></path><path d="M 283.500,236.000 C 285.108,241.467 283.582,246.270 286.500,247.000" stroke-width="4.343" stroke="black" fill="none" stroke-linecap="round"></path><path d="M 286.500,247.000 C 289.582,247.770 291.256,243.244 295.500,239.000" stroke-width="4.450" stroke="black" fill="none" stroke-linecap="round"></path><path d="M 295.500,239.000 C 297.756,236.744 297.641,236.603 299.500,234.000" stroke-width="4.189" stroke="black" fill="none" stroke-linecap="round"></path><path d="M 299.500,234.000 C 302.641,229.603 302.576,229.548 305.500,225.000" stroke-width="4.264" stroke="black" fill="none" stroke-linecap="round"></path><path d="M 154.500,157.000 C 157.000,158.000 156.917,158.296 159.500,159.000" stroke-width="5.270" stroke="black" fill="none" stroke-linecap="round"></path><path d="M 159.500,159.000 C 162.417,159.796 162.500,159.500 165.500,160.000" stroke-width="4.427" stroke="black" fill="none" stroke-linecap="round"></path><path d="M 165.500,160.000 C 168.500,160.500 168.473,160.832 171.500,161.000" stroke-width="4.269" stroke="black" fill="none" stroke-linecap="round"></path><path d="M 171.500,161.000 C 177.473,161.332 177.500,161.000 183.500,161.000" stroke-width="3.539" stroke="black" fill="none" stroke-linecap="round"></path><path d="M 183.500,161.000 C 186.500,161.000 186.500,161.000 189.500,161.000" stroke-width="3.989" stroke="black" fill="none" stroke-linecap="round"></path><path d="M 189.500,161.000 C 194.000,161.000 194.000,161.000 198.500,161.000" stroke-width="3.766" stroke="black" fill="none" stroke-linecap="round"></path><path d="M 198.500,161.000 C 201.000,161.000 201.000,161.000 203.500,161.000" stroke-width="4.154" stroke="black" fill="none" stroke-linecap="round"></path><path d="M 350.500,212.000 C 354.000,209.500 354.363,209.896 357.500,207.000" stroke-width="5.366" stroke="black" fill="none" stroke-linecap="round"></path><path d="M 357.500,207.000 C 360.863,203.896 360.694,203.647 363.500,200.000" stroke-width="4.649" stroke="black" fill="none" stroke-linecap="round"></path><path d="M 363.500,200.000 C 365.694,197.147 365.898,197.204 367.500,194.000" stroke-width="4.659" stroke="black" fill="none" stroke-linecap="round"></path><path d="M 367.500,194.000 C 369.398,190.204 369.063,190.022 370.500,186.000" stroke-width="4.524" stroke="black" fill="none" stroke-linecap="round"></path><path d="M 370.500,186.000 C 371.563,183.022 371.954,183.095 372.500,180.000" stroke-width="4.168" stroke="black" fill="none" stroke-linecap="round"></path><path d="M 372.500,180.000 C 373.454,174.595 373.156,174.507 373.500,169.000" stroke-width="4.222" stroke="black" fill="none" stroke-linecap="round"></path><path d="M 373.500,169.000 C 373.656,166.507 373.500,166.500 373.500,164.000" stroke-width="4.308" stroke="black" fill="none" stroke-linecap="round"></path><path d="M 373.500,164.000 C 373.500,161.500 373.500,161.500 373.500,159.000" stroke-width="4.293" stroke="black" fill="none" stroke-linecap="round"></path><path d="M 373.500,159.000 C 373.500,155.500 373.500,155.500 373.500,152.000" stroke-width="4.020" stroke="black" fill="none" stroke-linecap="round"></path><path d="M 373.500,152.000 C 373.500,148.000 373.805,147.970 373.500,144.000" stroke-width="4.379" stroke="black" fill="none" stroke-linecap="round"></path><path d="M 373.500,144.000 C 373.305,141.470 373.469,141.325 372.500,139.000" stroke-width="4.343" stroke="black" fill="none" stroke-linecap="round"></path><path d="M 372.500,139.000 C 370.969,135.325 371.302,134.522 368.500,132.000" stroke-width="4.447" stroke="black" fill="none" stroke-linecap="round"></path><path d="M 368.500,132.000 C 366.302,130.022 365.185,129.329 362.500,130.000" stroke-width="4.914" stroke="black" fill="none" stroke-linecap="round"></path><path d="M 362.500,130.000 C 359.185,130.829 359.100,132.140 356.500,135.000" stroke-width="4.689" stroke="black" fill="none" stroke-linecap="round"></path><path d="M 356.500,135.000 C 354.100,137.640 354.098,137.804 352.500,141.000" stroke-width="4.090" stroke="black" fill="none" stroke-linecap="round"></path><path d="M 352.500,141.000 C 351.098,143.804 351.580,144.029 350.500,147.000" stroke-width="4.049" stroke="black" fill="none" stroke-linecap="round"></path><path d="M 350.500,147.000 C 349.580,149.529 349.101,149.397 348.500,152.000" stroke-width="4.202" stroke="black" fill="none" stroke-linecap="round"></path><path d="M 348.500,152.000 C 347.601,155.897 347.701,155.981 347.500,160.000" stroke-width="3.924" stroke="black" fill="none" stroke-linecap="round"></path><path d="M 347.500,160.000 C 347.201,165.981 347.500,166.000 347.500,172.000" stroke-width="4.085" stroke="black" fill="none" stroke-linecap="round"></path><path d="M 347.500,172.000 C 347.500,174.500 347.500,174.500 347.500,177.000" stroke-width="4.265" stroke="black" fill="none" stroke-linecap="round"></path><path d="M 347.500,177.000 C 347.500,180.500 347.500,180.500 347.500,184.000" stroke-width="4.012" stroke="black" fill="none" stroke-linecap="round"></path><path d="M 347.500,184.000 C 347.500,189.500 347.500,189.500 347.500,195.000" stroke-width="4.196" stroke="black" fill="none" stroke-linecap="round"></path><path d="M 347.500,195.000 C 347.500,198.000 347.500,198.000 347.500,201.000" stroke-width="4.589" stroke="black" fill="none" stroke-linecap="round"></path><path d="M 347.500,201.000 C 347.500,203.500 347.344,203.507 347.500,206.000" stroke-width="4.457" stroke="black" fill="none" stroke-linecap="round"></path><path d="M 347.500,206.000 C 347.844,211.507 347.922,211.508 348.500,217.000" stroke-width="4.307" stroke="black" fill="none" stroke-linecap="round"></path><path d="M 348.500,217.000 C 348.922,221.008 349.191,220.988 349.500,225.000" stroke-width="4.472" stroke="black" fill="none" stroke-linecap="round"></path><path d="M 349.500,225.000 C 349.691,227.488 349.274,227.519 349.500,230.000" stroke-width="4.766" stroke="black" fill="none" stroke-linecap="round"></path><path d="M 349.500,230.000 C 349.774,233.019 349.956,233.008 350.500,236.000" stroke-width="4.770" stroke="black" fill="none" stroke-linecap="round"></path><path d="M 350.500,236.000 C 350.956,238.508 351.248,238.475 351.500,241.000" stroke-width="4.827" stroke="black" fill="none" stroke-linecap="round"></path><path d="M 351.500,241.000 C 351.748,243.475 352.438,243.889 351.500,246.000" stroke-width="5.030" stroke="black" fill="none" stroke-linecap="round"></path><path d="M 351.500,246.000 C 350.438,248.389 349.805,248.463 347.500,250.000" stroke-width="5.046" stroke="black" fill="none" stroke-linecap="round"></path><path d="M 347.500,250.000 C 345.305,251.463 345.000,252.000 342.500,252.000" stroke-width="4.925" stroke="black" fill="none" stroke-linecap="round"></path><path d="M 342.500,252.000 C 340.000,252.000 339.046,251.933 337.500,250.000" stroke-width="4.862" stroke="black" fill="none" stroke-linecap="round"></path><path d="M 337.500,250.000 C 335.046,246.933 335.446,246.100 334.500,242.000" stroke-width="4.618" stroke="black" fill="none" stroke-linecap="round"></path><path d="M 334.500,242.000 C 333.946,239.600 334.500,239.500 334.500,237.000" stroke-width="4.425" stroke="black" fill="none" stroke-linecap="round"></path><path d="M 334.500,237.000 C 334.500,234.000 333.739,233.789 334.500,231.000" stroke-width="4.234" stroke="black" fill="none" stroke-linecap="round"></path><path d="M 334.500,231.000 C 335.239,228.289 335.500,228.000 337.500,226.000" stroke-width="4.807" stroke="black" fill="none" stroke-linecap="round"></path><path d="M 337.500,226.000 C 339.500,224.000 339.808,223.489 342.500,223.000" stroke-width="4.803" stroke="black" fill="none" stroke-linecap="round"></path><path d="M 342.500,223.000 C 345.308,222.489 346.092,222.468 348.500,224.000" stroke-width="4.934" stroke="black" fill="none" stroke-linecap="round"></path><path d="M 348.500,224.000 C 351.592,225.968 351.348,226.772 353.500,230.000" stroke-width="4.677" stroke="black" fill="none" stroke-linecap="round"></path><path d="M 353.500,230.000 C 355.348,232.772 354.513,233.351 356.500,236.000" stroke-width="4.301" stroke="black" fill="none" stroke-linecap="round"></path><path d="M 356.500,236.000 C 359.013,239.351 359.002,239.847 362.500,242.000" stroke-width="4.421" stroke="black" fill="none" stroke-linecap="round"></path><path d="M 362.500,242.000 C 365.502,243.847 366.050,244.230 369.500,244.000" stroke-width="4.598" stroke="black" fill="none" stroke-linecap="round"></path><path d="M 369.500,244.000 C 373.550,243.730 374.158,243.451 377.500,241.000" stroke-width="4.506" stroke="black" fill="none" stroke-linecap="round"></path><path d="M 377.500,241.000 C 381.658,237.951 381.645,237.412 384.500,233.000" stroke-width="4.370" stroke="black" fill="none" stroke-linecap="round"></path><path d="M 384.500,233.000 C 387.145,228.912 386.418,228.461 388.500,224.000" stroke-width="4.364" stroke="black" fill="none" stroke-linecap="round"></path><path d="M 388.500,224.000 C 389.918,220.961 389.895,220.942 391.500,218.000" stroke-width="4.577" stroke="black" fill="none" stroke-linecap="round"></path><path d="M 391.500,218.000 C 392.895,215.442 394.976,212.047 394.500,213.000" stroke-width="4.717" stroke="black" fill="none" stroke-linecap="round"></path><path d="M 402.500,185.000 C 400.000,187.500 400.136,187.657 397.500,190.000" stroke-width="5.277" stroke="black" fill="none" stroke-linecap="round"></path><path d="M 397.500,190.000 C 395.636,191.657 392.767,193.733 393.500,193.000" stroke-width="5.433" stroke="black" fill="none" stroke-linecap="round"></path><path d="M 396.500,217.000 C 395.000,219.000 394.402,218.744 393.500,221.000" stroke-width="5.481" stroke="black" fill="none" stroke-linecap="round"></path><path d="M 393.500,221.000 C 392.402,223.744 392.689,223.974 392.500,227.000" stroke-width="4.930" stroke="black" fill="none" stroke-linecap="round"></path><path d="M 392.500,227.000 C 392.189,231.974 391.552,232.262 392.500,237.000" stroke-width="4.484" stroke="black" fill="none" stroke-linecap="round"></path><path d="M 392.500,237.000 C 393.052,239.762 393.594,239.855 395.500,242.000" stroke-width="4.702" stroke="black" fill="none" stroke-linecap="round"></path><path d="M 395.500,242.000 C 397.594,244.355 397.634,245.045 400.500,246.000" stroke-width="4.724" stroke="black" fill="none" stroke-linecap="round"></path><path d="M 400.500,246.000 C 403.634,247.045 404.359,247.122 407.500,246.000" stroke-width="4.665" stroke="black" fill="none" stroke-linecap="round"></path><path d="M 407.500,246.000 C 411.359,244.622 411.261,243.808 414.500,241.000" stroke-width="4.500" stroke="black" fill="none" stroke-linecap="round"></path><path d="M 414.500,241.000 C 418.761,237.308 418.836,237.275 422.500,233.000" stroke-width="4.323" stroke="black" fill="none" stroke-linecap="round"></path><path d="M 422.500,233.000 C 424.836,230.275 424.783,230.149 426.500,227.000" stroke-width="4.524" stroke="black" fill="none" stroke-linecap="round"></path><path d="M 426.500,227.000 C 427.783,224.649 427.899,224.603 428.500,222.000" stroke-width="4.298" stroke="black" fill="none" stroke-linecap="round"></path><path d="M 428.500,222.000 C 429.399,218.103 429.191,218.012 429.500,214.000" stroke-width="4.452" stroke="black" fill="none" stroke-linecap="round"></path><path d="M 429.500,214.000 C 429.691,211.512 430.500,211.000 429.500,209.000" stroke-width="4.895" stroke="black" fill="none" stroke-linecap="round"></path><path d="M 429.500,209.000 C 428.500,207.000 427.728,206.990 425.500,206.000" stroke-width="5.040" stroke="black" fill="none" stroke-linecap="round"></path><path d="M 425.500,206.000 C 423.228,204.990 422.227,203.920 420.500,205.000" stroke-width="5.162" stroke="black" fill="none" stroke-linecap="round"></path><path d="M 420.500,205.000 C 418.227,206.420 418.549,207.853 417.500,211.000" stroke-width="4.793" stroke="black" fill="none" stroke-linecap="round"></path><path d="M 417.500,211.000 C 416.549,213.853 416.659,213.972 416.500,217.000" stroke-width="4.778" stroke="black" fill="none" stroke-linecap="round"></path><path d="M 416.500,217.000 C 416.159,223.472 415.859,223.590 416.500,230.000" stroke-width="4.259" stroke="black" fill="none" stroke-linecap="round"></path><path d="M 416.500,230.000 C 416.859,233.590 416.812,233.905 418.500,237.000" stroke-width="4.514" stroke="black" fill="none" stroke-linecap="round"></path><path d="M 418.500,237.000 C 419.812,239.405 420.284,239.277 422.500,241.000" stroke-width="4.726" stroke="black" fill="none" stroke-linecap="round"></path><path d="M 422.500,241.000 C 424.784,242.777 424.773,243.318 427.500,244.000" stroke-width="4.792" stroke="black" fill="none" stroke-linecap="round"></path><path d="M 427.500,244.000 C 430.773,244.818 431.147,244.718 434.500,244.000" stroke-width="4.667" stroke="black" fill="none" stroke-linecap="round"></path><path d="M 434.500,244.000 C 438.147,243.218 438.234,242.921 441.500,241.000" stroke-width="4.617" stroke="black" fill="none" stroke-linecap="round"></path><path d="M 441.500,241.000 C 446.734,237.921 446.717,237.758 451.500,234.000" stroke-width="4.295" stroke="black" fill="none" stroke-linecap="round"></path><path d="M 451.500,234.000 C 453.717,232.258 453.599,232.091 455.500,230.000" stroke-width="4.197" stroke="black" fill="none" stroke-linecap="round"></path><path d="M 455.500,230.000 C 458.599,226.591 458.142,226.118 461.500,223.000" stroke-width="3.796" stroke="black" fill="none" stroke-linecap="round"></path><path d="M 461.500,223.000 C 465.142,219.618 466.000,220.500 469.500,217.000" stroke-width="4.146" stroke="black" fill="none" stroke-linecap="round"></path><path d="M 469.500,217.000 C 473.000,213.500 472.452,212.963 475.500,209.000" stroke-width="3.704" stroke="black" fill="none" stroke-linecap="round"></path><path d="M 475.500,209.000 C 477.452,206.463 477.774,206.684 479.500,204.000" stroke-width="3.963" stroke="black" fill="none" stroke-linecap="round"></path><path d="M 479.500,204.000 C 482.274,199.684 482.202,199.596 484.500,195.000" stroke-width="3.686" stroke="black" fill="none" stroke-linecap="round"></path><path d="M 484.500,195.000 C 485.702,192.596 485.796,192.583 486.500,190.000" stroke-width="4.077" stroke="black" fill="none" stroke-linecap="round"></path><path d="M 486.500,190.000 C 487.296,187.083 487.248,187.021 487.500,184.000" stroke-width="4.076" stroke="black" fill="none" stroke-linecap="round"></path><path d="M 487.500,184.000 C 487.748,181.021 488.318,180.727 487.500,178.000" stroke-width="4.532" stroke="black" fill="none" stroke-linecap="round"></path><path d="M 487.500,178.000 C 486.818,175.727 486.530,175.292 484.500,174.000" stroke-width="4.357" stroke="black" fill="none" stroke-linecap="round"></path><path d="M 484.500,174.000 C 481.030,171.792 480.588,171.240 476.500,171.000" stroke-width="4.471" stroke="black" fill="none" stroke-linecap="round"></path><path d="M 476.500,171.000 C 472.088,170.740 471.714,171.379 467.500,173.000" stroke-width="4.439" stroke="black" fill="none" stroke-linecap="round"></path><path d="M 467.500,173.000 C 465.214,173.879 465.138,174.157 463.500,176.000" stroke-width="4.742" stroke="black" fill="none" stroke-linecap="round"></path><path d="M 463.500,176.000 C 461.138,178.657 461.098,178.804 459.500,182.000" stroke-width="4.102" stroke="black" fill="none" stroke-linecap="round"></path><path d="M 459.500,182.000 C 458.098,184.804 458.443,184.982 457.500,188.000" stroke-width="4.144" stroke="black" fill="none" stroke-linecap="round"></path><path d="M 457.500,188.000 C 455.943,192.982 456.149,193.052 454.500,198.000" stroke-width="3.659" stroke="black" fill="none" stroke-linecap="round"></path><path d="M 454.500,198.000 C 453.649,200.552 453.019,200.407 452.500,203.000" stroke-width="4.027" stroke="black" fill="none" stroke-linecap="round"></path><path d="M 452.500,203.000 C 452.019,205.407 452.691,205.512 452.500,208.000" stroke-width="4.246" stroke="black" fill="none" stroke-linecap="round"></path><path d="M 452.500,208.000 C 452.191,212.012 451.768,211.986 451.500,216.000" stroke-width="3.935" stroke="black" fill="none" stroke-linecap="round"></path><path d="M 451.500,216.000 C 451.268,219.486 451.500,219.500 451.500,223.000" stroke-width="3.969" stroke="black" fill="none" stroke-linecap="round"></path><path d="M 451.500,223.000 C 451.500,227.000 451.500,227.000 451.500,231.000" stroke-width="3.916" stroke="black" fill="none" stroke-linecap="round"></path><path d="M 451.500,231.000 C 451.500,235.000 451.035,235.051 451.500,239.000" stroke-width="4.342" stroke="black" fill="none" stroke-linecap="round"></path><path d="M 451.500,239.000 C 452.035,243.551 451.555,244.110 453.500,248.000" stroke-width="4.400" stroke="black" fill="none" stroke-linecap="round"></path><path d="M 453.500,248.000 C 454.555,250.110 455.250,250.250 457.500,251.000" stroke-width="4.888" stroke="black" fill="none" stroke-linecap="round"></path><path d="M 457.500,251.000 C 459.750,251.750 460.025,251.248 462.500,251.000" stroke-width="5.044" stroke="black" fill="none" stroke-linecap="round"></path><path d="M 462.500,251.000 C 465.025,250.748 465.896,251.604 467.500,250.000" stroke-width="4.922" stroke="black" fill="none" stroke-linecap="round"></path><path d="M 467.500,250.000 C 469.896,247.604 469.594,246.622 470.500,243.000" stroke-width="4.651" stroke="black" fill="none" stroke-linecap="round"></path><path d="M 470.500,243.000 C 471.094,240.622 470.981,240.407 470.500,238.000" stroke-width="4.825" stroke="black" fill="none" stroke-linecap="round"></path><path d="M 470.500,238.000 C 469.981,235.407 469.963,235.195 468.500,233.000" stroke-width="5.157" stroke="black" fill="none" stroke-linecap="round"></path><path d="M 468.500,233.000 C 466.963,230.695 464.028,229.472 464.500,229.000" stroke-width="5.292" stroke="black" fill="none" stroke-linecap="round"></path><path d="M 464.500,229.000 C 465.028,228.472 467.415,230.525 470.500,231.000" stroke-width="5.392" stroke="black" fill="none" stroke-linecap="round"></path><path d="M 470.500,231.000 C 473.915,231.525 474.000,231.000 477.500,231.000" stroke-width="5.072" stroke="black" fill="none" stroke-linecap="round"></path><path d="M 477.500,231.000 C 480.500,231.000 480.527,231.270 483.500,231.000" stroke-width="5.065" stroke="black" fill="none" stroke-linecap="round"></path><path d="M 483.500,231.000 C 486.027,230.770 486.112,230.853 488.500,230.000" stroke-width="4.478" stroke="black" fill="none" stroke-linecap="round"></path><path d="M 488.500,230.000 C 493.112,228.353 493.520,228.653 497.500,226.000" stroke-width="4.396" stroke="black" fill="none" stroke-linecap="round"></path><path d="M 497.500,226.000 C 499.520,224.653 499.482,224.239 500.500,222.000" stroke-width="4.751" stroke="black" fill="none" stroke-linecap="round"></path><path d="M 500.500,222.000 C 501.982,218.739 503.063,218.095 502.500,215.000" stroke-width="4.861" stroke="black" fill="none" stroke-linecap="round"></path><path d="M 502.500,215.000 C 502.063,212.595 500.867,212.315 498.500,211.000" stroke-width="5.148" stroke="black" fill="none" stroke-linecap="round"></path><path d="M 498.500,211.000 C 496.367,209.815 495.772,209.495 493.500,210.000" stroke-width="4.952" stroke="black" fill="none" stroke-linecap="round"></path><path d="M 493.500,210.000 C 491.272,210.495 490.944,211.074 489.500,213.000" stroke-width="4.918" stroke="black" fill="none" stroke-linecap="round"></path><path d="M 489.500,213.000 C 487.944,215.074 488.101,215.397 487.500,218.000" stroke-width="4.888" stroke="black" fill="none" stroke-linecap="round"></path><path d="M 487.500,218.000 C 486.601,221.897 486.267,222.035 486.500,226.000" stroke-width="4.605" stroke="black" fill="none" stroke-linecap="round"></path><path d="M 486.500,226.000 C 486.767,230.535 486.969,230.712 488.500,235.000" stroke-width="4.497" stroke="black" fill="none" stroke-linecap="round"></path><path d="M 488.500,235.000 C 489.469,237.712 489.885,237.577 491.500,240.000" stroke-width="4.706" stroke="black" fill="none" stroke-linecap="round"></path><path d="M 491.500,240.000 C 492.885,242.077 492.518,242.613 494.500,244.000" stroke-width="4.448" stroke="black" fill="none" stroke-linecap="round"></path><path d="M 494.500,244.000 C 497.518,246.113 497.906,245.802 501.500,247.000" stroke-width="4.550" stroke="black" fill="none" stroke-linecap="round"></path><path d="M 501.500,247.000 C 503.906,247.802 504.283,248.665 506.500,248.000" stroke-width="4.784" stroke="black" fill="none" stroke-linecap="round"></path><path d="M 506.500,248.000 C 509.283,247.165 509.384,246.352 511.500,244.000" stroke-width="4.733" stroke="black" fill="none" stroke-linecap="round"></path><path d="M 511.500,244.000 C 513.884,241.352 513.809,241.170 515.500,238.000" stroke-width="4.156" stroke="black" fill="none" stroke-linecap="round"></path><path d="M 515.500,238.000 C 517.809,233.670 517.626,233.552 519.500,229.000" stroke-width="4.317" stroke="black" fill="none" stroke-linecap="round"></path><path d="M 519.500,229.000 C 521.126,225.052 521.150,225.050 522.500,221.000" stroke-width="4.440" stroke="black" fill="none" stroke-linecap="round"></path><path d="M 522.500,221.000 C 523.650,217.550 522.250,216.250 524.500,214.000" stroke-width="4.573" stroke="black" fill="none" stroke-linecap="round"></path><path d="M 524.500,214.000 C 526.750,211.750 527.943,212.593 531.500,212.000" stroke-width="5.135" stroke="black" fill="none" stroke-linecap="round"></path><path d="M 531.500,212.000 C 533.943,211.593 534.000,212.000 536.500,212.000" stroke-width="4.556" stroke="black" fill="none" stroke-linecap="round"></path><path d="M 536.500,212.000 C 539.000,212.000 540.598,210.647 541.500,212.000" stroke-width="5.017" stroke="black" fill="none" stroke-linecap="round"></path><path d="M 541.500,212.000 C 542.598,213.647 541.451,215.147 540.500,218.000" stroke-width="5.309" stroke="black" fill="none" stroke-linecap="round"></path><path d="M 540.500,218.000 C 539.451,221.147 538.819,220.921 537.500,224.000" stroke-width="4.849" stroke="black" fill="none" stroke-linecap="round"></path><path d="M 537.500,224.000 C 535.819,227.921 535.381,227.888 534.500,232.000" stroke-width="4.596" stroke="black" fill="none" stroke-linecap="round"></path><path d="M 534.500,232.000 C 533.881,234.888 534.013,235.079 534.500,238.000" stroke-width="4.724" stroke="black" fill="none" stroke-linecap="round"></path><path d="M 534.500,238.000 C 535.013,241.079 534.373,242.086 536.500,244.000" stroke-width="4.721" stroke="black" fill="none" stroke-linecap="round"></path><path d="M 536.500,244.000 C 539.373,246.586 540.411,246.416 544.500,247.000" stroke-width="4.789" stroke="black" fill="none" stroke-linecap="round"></path><path d="M 544.500,247.000 C 547.411,247.416 547.589,246.832 550.500,246.000" stroke-width="4.777" stroke="black" fill="none" stroke-linecap="round"></path><path d="M 550.500,246.000 C 554.589,244.832 554.648,244.824 558.500,243.000" stroke-width="4.556" stroke="black" fill="none" stroke-linecap="round"></path><path d="M 558.500,243.000 C 564.148,240.324 564.264,240.388 569.500,237.000" stroke-width="4.235" stroke="black" fill="none" stroke-linecap="round"></path><path d="M 569.500,237.000 C 572.764,234.888 572.302,234.214 575.500,232.000" stroke-width="3.961" stroke="black" fill="none" stroke-linecap="round"></path><path d="M 575.500,232.000 C 578.802,229.714 578.939,229.885 582.500,228.000" stroke-width="3.804" stroke="black" fill="none" stroke-linecap="round"></path><path d="M 582.500,228.000 C 587.439,225.385 587.571,225.629 592.500,223.000" stroke-width="3.445" stroke="black" fill="none" stroke-linecap="round"></path><path d="M 592.500,223.000 C 595.071,221.629 595.550,222.100 597.500,220.000" stroke-width="3.934" stroke="black" fill="none" stroke-linecap="round"></path><path d="M 597.500,220.000 C 602.050,215.100 602.087,214.802 605.500,209.000" stroke-width="4.015" stroke="black" fill="none" stroke-linecap="round"></path><path d="M 605.500,209.000 C 607.087,206.302 606.557,206.018 607.500,203.000" stroke-width="4.074" stroke="black" fill="none" stroke-linecap="round"></path><path d="M 607.500,203.000 C 609.057,198.018 609.734,198.108 610.500,193.000" stroke-width="3.581" stroke="black" fill="none" stroke-linecap="round"></path><path d="M 610.500,193.000 C 611.234,188.108 610.811,187.974 610.500,183.000" stroke-width="4.066" stroke="black" fill="none" stroke-linecap="round"></path><path d="M 610.500,183.000 C 610.311,179.974 610.521,179.808 609.500,177.000" stroke-width="4.119" stroke="black" fill="none" stroke-linecap="round"></path><path d="M 609.500,177.000 C 608.521,174.308 608.168,174.383 606.500,172.000" stroke-width="4.122" stroke="black" fill="none" stroke-linecap="round"></path><path d="M 606.500,172.000 C 604.668,169.383 605.012,168.827 602.500,167.000" stroke-width="4.048" stroke="black" fill="none" stroke-linecap="round"></path><path d="M 602.500,167.000 C 599.512,164.827 599.114,165.112 595.500,164.000" stroke-width="4.416" stroke="black" fill="none" stroke-linecap="round"></path><path d="M 595.500,164.000 C 592.614,163.112 592.127,162.124 589.500,163.000" stroke-width="4.833" stroke="black" fill="none" stroke-linecap="round"></path><path d="M 589.500,163.000 C 586.127,164.124 585.501,164.798 583.500,168.000" stroke-width="4.649" stroke="black" fill="none" stroke-linecap="round"></path><path d="M 583.500,168.000 C 580.501,172.798 580.752,173.368 579.500,179.000" stroke-width="4.337" stroke="black" fill="none" stroke-linecap="round"></path><path d="M 579.500,179.000 C 578.752,182.368 579.500,182.500 579.500,186.000" stroke-width="4.084" stroke="black" fill="none" stroke-linecap="round"></path><path d="M 579.500,186.000 C 579.500,189.000 579.699,189.011 579.500,192.000" stroke-width="4.089" stroke="black" fill="none" stroke-linecap="round"></path><path d="M 579.500,192.000 C 579.199,196.511 578.715,196.484 578.500,201.000" stroke-width="3.786" stroke="black" fill="none" stroke-linecap="round"></path><path d="M 578.500,201.000 C 578.215,206.984 578.832,207.027 578.500,213.000" stroke-width="4.017" stroke="black" fill="none" stroke-linecap="round"></path><path d="M 578.500,213.000 C 578.332,216.027 577.962,215.994 577.500,219.000" stroke-width="4.104" stroke="black" fill="none" stroke-linecap="round"></path><path d="M 577.500,219.000 C 576.962,222.494 577.000,222.500 576.500,226.000" stroke-width="4.058" stroke="black" fill="none" stroke-linecap="round"></path><path d="M 576.500,226.000 C 576.000,229.500 576.081,229.513 575.500,233.000" stroke-width="4.459" stroke="black" fill="none" stroke-linecap="round"></path><path d="M 575.500,233.000 C 574.581,238.513 574.372,238.480 573.500,244.000" stroke-width="4.320" stroke="black" fill="none" stroke-linecap="round"></path><path d="M 573.500,244.000 C 572.872,247.980 573.033,251.734 572.500,252.000" stroke-width="4.476" stroke="black" fill="none" stroke-linecap="round"></path><path d="M 572.500,252.000 C 572.033,252.234 571.770,248.516 571.500,245.000" stroke-width="5.024" stroke="black" fill="none" stroke-linecap="round"></path><path d="M 571.500,245.000 C 571.270,242.016 571.500,242.000 571.500,239.000" stroke-width="4.332" stroke="black" fill="none" stroke-linecap="round"></path><path d="M 571.500,239.000 C 571.500,236.000 571.130,235.963 571.500,233.000" stroke-width="4.209" stroke="black" fill="none" stroke-linecap="round"></path><path d="M 571.500,233.000 C 572.130,227.963 572.500,228.000 573.500,223.000" stroke-width="3.636" stroke="black" fill="none" stroke-linecap="round"></path><path d="M 573.500,223.000 C 574.000,220.500 573.041,219.702 574.500,218.000" stroke-width="4.094" stroke="black" fill="none" stroke-linecap="round"></path><path d="M 574.500,218.000 C 576.041,216.202 577.051,215.777 579.500,216.000" stroke-width="4.824" stroke="black" fill="none" stroke-linecap="round"></path><path d="M 579.500,216.000 C 582.551,216.277 582.635,217.281 585.500,219.000" stroke-width="4.926" stroke="black" fill="none" stroke-linecap="round"></path><path d="M 585.500,219.000 C 587.635,220.281 587.884,220.153 589.500,222.000" stroke-width="4.409" stroke="black" fill="none" stroke-linecap="round"></path><path d="M 589.500,222.000 C 591.384,224.153 590.935,224.541 592.500,227.000" stroke-width="4.831" stroke="black" fill="none" stroke-linecap="round"></path><path d="M 592.500,227.000 C 594.435,230.041 595.144,229.745 596.500,233.000" stroke-width="4.679" stroke="black" fill="none" stroke-linecap="round"></path><path d="M 596.500,233.000 C 597.644,235.745 596.549,236.147 597.500,239.000" stroke-width="4.758" stroke="black" fill="none" stroke-linecap="round"></path><path d="M 597.500,239.000 C 598.549,242.147 599.000,242.000 600.500,245.000" stroke-width="4.889" stroke="black" fill="none" stroke-linecap="round"></path><path d="M 600.500,245.000 C 602.000,248.000 601.360,248.593 603.500,251.000" stroke-width="4.754" stroke="black" fill="none" stroke-linecap="round"></path><path d="M 603.500,251.000 C 605.360,253.093 606.117,254.238 608.500,254.000" stroke-width="4.801" stroke="black" fill="none" stroke-linecap="round"></path><path d="M 608.500,254.000 C 611.117,253.738 610.973,251.965 613.500,250.000" stroke-width="4.754" stroke="black" fill="none" stroke-linecap="round"></path><path d="M 613.500,250.000 C 615.473,248.465 615.423,248.385 617.500,247.000" stroke-width="4.416" stroke="black" fill="none" stroke-linecap="round"></path><path d="M 617.500,247.000 C 619.923,245.385 620.369,245.937 622.500,244.000" stroke-width="4.665" stroke="black" fill="none" stroke-linecap="round"></path><path d="M 622.500,244.000 C 625.869,240.937 625.694,240.647 628.500,237.000" stroke-width="4.494" stroke="black" fill="none" stroke-linecap="round"></path><path d="M 628.500,237.000 C 630.694,234.147 630.989,234.239 632.500,231.000" stroke-width="4.099" stroke="black" fill="none" stroke-linecap="round"></path><path d="M 632.500,231.000 C 634.489,226.739 634.518,226.584 635.500,222.000" stroke-width="4.304" stroke="black" fill="none" stroke-linecap="round"></path><path d="M 635.500,222.000 C 636.018,219.584 636.250,219.250 635.500,217.000" stroke-width="4.695" stroke="black" fill="none" stroke-linecap="round"></path><path d="M 635.500,217.000 C 634.750,214.750 634.487,213.442 632.500,213.000" stroke-width="4.986" stroke="black" fill="none" stroke-linecap="round"></path><path d="M 632.500,213.000 C 629.987,212.442 628.841,213.179 626.500,215.000" stroke-width="4.780" stroke="black" fill="none" stroke-linecap="round"></path><path d="M 626.500,215.000 C 624.341,216.679 624.567,217.333 623.500,220.000" stroke-width="4.780" stroke="black" fill="none" stroke-linecap="round"></path><path d="M 623.500,220.000 C 622.567,222.333 622.970,222.494 622.500,225.000" stroke-width="4.858" stroke="black" fill="none" stroke-linecap="round"></path><path d="M 622.500,225.000 C 621.470,230.494 621.028,230.457 620.500,236.000" stroke-width="4.379" stroke="black" fill="none" stroke-linecap="round"></path><path d="M 620.500,236.000 C 620.028,240.957 619.648,241.175 620.500,246.000" stroke-width="4.335" stroke="black" fill="none" stroke-linecap="round"></path><path d="M 620.500,246.000 C 621.148,249.675 621.042,250.542 623.500,253.000" stroke-width="4.514" stroke="black" fill="none" stroke-linecap="round"></path><path d="M 623.500,253.000 C 625.542,255.042 626.431,254.764 629.500,255.000" stroke-width="4.657" stroke="black" fill="none" stroke-linecap="round"></path><path d="M 629.500,255.000 C 632.931,255.264 633.583,255.667 636.500,254.000" stroke-width="4.640" stroke="black" fill="none" stroke-linecap="round"></path><path d="M 636.500,254.000 C 640.583,251.667 640.160,250.643 643.500,247.000" stroke-width="4.416" stroke="black" fill="none" stroke-linecap="round"></path><path d="M 643.500,247.000 C 645.660,244.643 645.831,244.712 647.500,242.000" stroke-width="4.180" stroke="black" fill="none" stroke-linecap="round"></path><path d="M 647.500,242.000 C 649.831,238.212 649.710,238.092 651.500,234.000" stroke-width="3.762" stroke="black" fill="none" stroke-linecap="round"></path><path d="M 651.500,234.000 C 653.210,230.092 653.247,230.071 654.500,226.000" stroke-width="4.230" stroke="black" fill="none" stroke-linecap="round"></path><path d="M 654.500,226.000 C 655.247,223.571 655.743,223.432 655.500,221.000" stroke-width="4.255" stroke="black" fill="none" stroke-linecap="round"></path><path d="M 655.500,221.000 C 655.243,218.432 652.437,217.488 653.500,216.000" stroke-width="4.658" stroke="black" fill="none" stroke-linecap="round"></path><path d="M 653.500,216.000 C 654.937,213.988 656.931,214.510 660.500,214.000" stroke-width="5.125" stroke="black" fill="none" stroke-linecap="round"></path><path d="M 660.500,214.000 C 663.931,213.510 664.000,214.000 667.500,214.000" stroke-width="4.757" stroke="black" fill="none" stroke-linecap="round"></path><path d="M 667.500,214.000 C 670.000,214.000 671.015,212.762 672.500,214.000" stroke-width="4.871" stroke="black" fill="none" stroke-linecap="round"></path><path d="M 672.500,214.000 C 674.015,215.262 673.723,216.545 673.500,219.000" stroke-width="5.250" stroke="black" fill="none" stroke-linecap="round"></path><path d="M 673.500,219.000 C 673.223,222.045 672.563,222.022 671.500,225.000" stroke-width="4.388" stroke="black" fill="none" stroke-linecap="round"></path><path d="M 671.500,225.000 C 670.063,229.022 669.785,228.931 668.500,233.000" stroke-width="4.481" stroke="black" fill="none" stroke-linecap="round"></path><path d="M 668.500,233.000 C 666.785,238.431 666.191,238.472 665.500,244.000" stroke-width="4.289" stroke="black" fill="none" stroke-linecap="round"></path><path d="M 665.500,244.000 C 665.191,246.472 664.824,247.743 666.500,249.000" stroke-width="4.909" stroke="black" fill="none" stroke-linecap="round"></path><path d="M 666.500,249.000 C 668.824,250.743 670.282,250.743 673.500,250.000" stroke-width="4.939" stroke="black" fill="none" stroke-linecap="round"></path><path d="M 673.500,250.000 C 676.782,249.243 676.860,248.400 679.500,246.000" stroke-width="4.708" stroke="black" fill="none" stroke-linecap="round"></path><path d="M 679.500,246.000 C 682.360,243.400 682.286,243.198 684.500,240.000" stroke-width="4.614" stroke="black" fill="none" stroke-linecap="round"></path><path d="M 684.500,240.000 C 686.786,236.698 686.801,236.641 688.500,233.000" stroke-width="4.548" stroke="black" fill="none" stroke-linecap="round"></path><path d="M 688.500,233.000 C 690.301,229.141 690.619,229.112 691.500,225.000" stroke-width="4.511" stroke="black" fill="none" stroke-linecap="round"></path><path d="M 691.500,225.000 C 692.119,222.112 691.500,222.000 691.500,219.000" stroke-width="4.697" stroke="black" fill="none" stroke-linecap="round"></path><path d="M 691.500,219.000 C 691.500,216.500 690.500,216.000 691.500,214.000" stroke-width="4.401" stroke="black" fill="none" stroke-linecap="round"></path><path d="M 691.500,214.000 C 692.500,212.000 693.272,211.495 695.500,211.000" stroke-width="5.074" stroke="black" fill="none" stroke-linecap="round"></path><path d="M 695.500,211.000 C 697.772,210.495 698.029,211.382 700.500,212.000" stroke-width="4.931" stroke="black" fill="none" stroke-linecap="round"></path><path d="M 700.500,212.000 C 704.029,212.882 706.459,211.501 707.500,214.000" stroke-width="4.719" stroke="black" fill="none" stroke-linecap="round"></path><path d="M 707.500,214.000 C 708.959,217.501 706.606,219.024 705.500,224.000" stroke-width="5.147" stroke="black" fill="none" stroke-linecap="round"></path><path d="M 705.500,224.000 C 704.606,228.024 704.123,227.954 703.500,232.000" stroke-width="4.697" stroke="black" fill="none" stroke-linecap="round"></path><path d="M 703.500,232.000 C 703.123,234.454 703.500,234.500 703.500,237.000" stroke-width="4.446" stroke="black" fill="none" stroke-linecap="round"></path><path d="M 703.500,237.000 C 703.500,240.500 703.500,240.500 703.500,244.000" stroke-width="4.563" stroke="black" fill="none" stroke-linecap="round"></path><path d="M 703.500,244.000 C 703.500,246.500 701.962,248.038 703.500,249.000" stroke-width="4.935" stroke="black" fill="none" stroke-linecap="round"></path><path d="M 703.500,249.000 C 705.962,250.538 707.886,250.205 711.500,249.000" stroke-width="5.091" stroke="black" fill="none" stroke-linecap="round"></path><path d="M 711.500,249.000 C 715.386,247.705 714.810,246.153 718.500,244.000" stroke-width="4.634" stroke="black" fill="none" stroke-linecap="round"></path><path d="M 718.500,244.000 C 720.810,242.653 721.305,243.463 723.500,242.000" stroke-width="4.773" stroke="black" fill="none" stroke-linecap="round"></path></svg>