<svg id="svg" version="1.1" xmlns="http://www.w3.org/2000/svg" xmlns:xlink="http://www.w3.org/1999/xlink" width="400" height="158.59831278390655" viewBox="0, 0, 400,158.59831278390655"><g id="svgg"><path id="path0" d="M0.000 79.250 L 0.000 158.500 200.000 158.500 L 400.000 158.500 400.000 79.250 L 400.000 0.000 200.000 0.000 L 0.000 0.000 0.000 79.250 M60.167 41.586 C 62.840 42.191,66.763 42.385,73.583 42.250 C 82.811 42.069,86.599 42.133,88.813 42.510 C 90.030 42.718,91.497 42.833,92.905 42.833 C 95.218 42.833,95.500 42.916,95.500 43.596 C 95.500 44.392,92.163 44.721,88.735 44.263 C 85.877 43.881,67.528 43.971,67.042 44.370 C 66.907 44.481,66.832 45.018,66.829 45.895 C 66.827 46.640,66.749 47.550,66.656 47.917 C 66.563 48.283,66.417 49.333,66.332 50.250 C 66.031 53.486,65.833 54.782,65.491 55.760 C 65.301 56.305,65.072 57.462,64.981 58.333 C 64.891 59.204,64.708 60.340,64.575 60.857 C 64.442 61.375,64.333 62.115,64.333 62.502 C 64.333 63.239,64.042 64.996,63.477 67.667 C 63.292 68.537,63.037 70.107,62.909 71.155 C 62.781 72.202,62.553 73.665,62.402 74.405 C 62.195 75.415,62.147 76.290,62.209 77.917 C 62.258 79.211,62.202 80.866,62.069 82.028 C 61.656 85.639,62.026 86.500,63.994 86.500 C 66.642 86.500,68.167 84.062,68.167 79.827 C 68.167 76.262,68.178 76.254,72.729 76.419 C 76.079 76.540,76.439 76.504,80.455 75.658 C 84.086 74.892,84.512 75.622,81.985 78.275 C 79.595 80.783,79.252 81.821,79.374 86.157 C 79.544 92.149,81.868 95.611,85.849 95.803 C 88.921 95.950,91.184 93.791,96.297 85.833 C 96.857 84.962,98.119 82.599,99.102 80.583 C 100.961 76.770,101.649 75.667,102.169 75.667 C 102.861 75.667,102.955 76.016,102.868 78.263 C 102.725 81.976,103.368 86.061,104.414 88.083 C 106.927 92.945,108.197 94.175,111.491 94.940 C 113.884 95.495,114.853 95.058,116.773 92.554 C 119.376 89.160,121.185 86.947,122.333 85.750 C 123.468 84.566,125.585 81.803,126.445 80.381 C 127.446 78.726,131.065 73.385,131.699 72.629 C 133.369 70.633,134.665 72.384,134.318 76.167 C 134.142 78.072,134.001 87.334,134.147 87.331 C 134.204 87.330,134.475 86.947,134.750 86.481 C 136.604 83.338,136.825 82.800,137.511 79.758 C 138.056 77.340,138.275 76.601,139.092 74.417 C 139.478 73.385,139.709 72.394,139.831 71.244 C 140.002 69.633,140.495 67.251,141.119 65.018 L 141.417 63.953 140.925 63.601 C 139.717 62.738,139.262 61.971,139.700 61.533 C 140.023 61.210,140.366 61.299,140.939 61.855 C 141.253 62.159,141.581 62.338,141.724 62.283 C 142.237 62.086,143.102 58.014,143.307 54.829 C 143.456 52.514,143.701 51.651,144.267 51.433 C 144.920 51.183,145.337 51.657,145.573 52.917 C 145.996 55.179,146.190 57.690,146.139 60.250 L 146.083 63.083 148.167 63.056 C 149.313 63.041,151.608 62.977,153.269 62.913 C 156.543 62.787,157.000 62.868,157.000 63.569 C 157.000 64.343,157.345 64.301,148.467 64.596 L 145.518 64.693 145.176 65.722 C 144.835 66.745,144.253 67.943,142.426 71.390 L 141.469 73.197 141.318 78.390 C 141.221 81.744,141.227 84.203,141.334 85.333 C 141.425 86.296,141.500 87.547,141.500 88.114 C 141.500 89.432,141.904 91.371,142.380 92.333 C 143.132 93.856,144.142 93.285,145.850 90.372 C 147.283 87.929,147.963 86.933,149.556 84.949 C 150.306 84.015,151.195 82.828,151.531 82.313 C 152.909 80.199,155.911 79.887,158.667 81.571 C 160.494 82.687,160.979 84.977,159.406 85.063 C 158.674 85.103,158.557 85.242,158.443 86.207 C 158.275 87.636,157.717 89.597,157.070 91.030 C 156.132 93.107,156.487 94.733,157.974 95.179 C 159.125 95.523,159.593 95.300,165.083 91.792 C 166.458 90.913,168.188 89.809,168.927 89.337 C 169.666 88.866,171.311 87.548,172.583 86.408 C 174.357 84.818,175.068 84.286,175.634 84.126 C 176.355 83.922,176.387 83.883,177.002 82.455 C 180.635 74.022,190.749 76.653,191.661 86.269 C 191.756 87.267,191.833 90.383,191.833 93.195 C 191.833 98.699,191.847 98.833,192.409 98.833 C 193.498 98.833,195.605 96.392,197.372 93.083 C 198.109 91.704,198.547 91.388,199.093 91.841 C 199.494 92.174,199.368 92.826,198.643 94.152 C 195.644 99.649,192.098 101.970,190.566 99.439 C 190.274 98.956,190.243 98.405,190.157 92.167 C 190.052 84.611,190.018 84.371,188.746 82.250 C 185.174 76.296,178.458 79.068,177.480 86.901 C 177.310 88.264,174.518 96.839,174.032 97.493 C 172.625 99.384,171.903 96.751,172.981 93.667 C 174.398 89.617,175.500 86.430,175.500 86.384 C 175.500 86.129,174.934 86.473,174.326 87.098 C 170.936 90.585,160.990 96.658,158.667 96.659 C 157.121 96.660,155.972 95.938,155.422 94.623 C 155.112 93.880,155.198 93.891,154.119 94.452 C 151.282 95.926,148.668 94.255,148.524 90.874 C 148.453 89.206,148.389 89.226,147.132 91.308 C 144.291 96.011,141.267 95.816,140.243 90.863 C 139.968 89.534,139.506 83.461,139.502 81.125 C 139.500 79.655,139.292 79.206,139.077 80.208 C 138.466 83.069,135.804 88.141,134.289 89.333 L 133.833 89.691 133.833 92.671 C 133.833 98.791,132.456 99.896,128.294 97.113 C 124.527 94.594,122.882 92.453,122.548 89.634 C 122.378 88.192,122.197 88.307,119.621 91.500 C 115.772 96.270,115.658 96.357,113.148 96.467 C 108.582 96.666,106.031 94.692,102.955 88.577 C 102.203 87.082,101.500 83.428,101.500 81.013 C 101.500 80.026,101.292 80.250,100.345 82.258 C 98.069 87.083,93.519 93.324,90.556 95.687 C 86.825 98.662,81.893 97.576,79.482 93.250 C 76.984 88.767,77.203 81.386,79.924 78.360 C 80.791 77.397,80.865 77.100,80.208 77.233 C 76.977 77.889,75.511 78.032,73.167 77.920 C 69.353 77.737,69.786 77.457,69.748 80.125 C 69.703 83.242,69.014 85.006,67.164 86.736 C 66.063 87.767,65.720 87.872,63.674 87.806 L 61.932 87.750 61.721 88.790 C 60.965 92.520,59.136 97.076,56.966 100.632 C 54.181 105.195,48.846 104.009,44.462 97.853 C 43.095 95.933,42.729 94.999,43.144 94.487 C 43.605 93.917,44.225 94.152,44.576 95.029 C 45.357 96.983,48.513 100.567,50.191 101.406 C 53.255 102.939,54.713 101.928,57.538 96.308 C 60.351 90.710,60.329 90.834,60.816 78.000 C 60.894 75.938,61.038 73.950,61.136 73.583 C 61.233 73.217,61.400 72.092,61.505 71.083 C 61.611 70.075,61.840 68.727,62.015 68.087 C 62.190 67.447,62.333 66.689,62.333 66.404 C 62.333 66.118,62.482 65.179,62.664 64.317 C 62.846 63.455,62.996 62.375,62.997 61.916 C 62.999 61.457,63.079 60.819,63.175 60.499 C 63.272 60.179,63.419 59.237,63.501 58.407 C 63.584 57.576,63.850 56.271,64.091 55.506 C 64.497 54.222,64.615 53.463,64.989 49.750 C 65.063 49.017,65.212 48.079,65.320 47.667 C 65.428 47.254,65.494 46.279,65.467 45.500 L 65.417 44.083 63.417 43.870 C 62.317 43.753,60.704 43.453,59.833 43.204 C 57.574 42.556,50.620 42.512,48.356 43.131 C 47.590 43.341,46.165 43.587,45.190 43.679 C 44.214 43.770,43.154 43.912,42.833 43.993 C 42.512 44.074,41.837 44.193,41.333 44.257 C 39.671 44.470,38.708 45.203,37.175 47.421 C 36.069 49.020,35.834 49.601,35.948 50.450 C 36.106 51.630,34.889 51.575,34.591 50.388 C 34.147 48.618,37.684 43.721,39.843 43.117 C 40.947 42.808,44.237 42.214,45.521 42.091 C 46.037 42.042,46.954 41.849,47.559 41.662 C 50.063 40.889,56.899 40.848,60.167 41.586 M237.121 47.498 C 245.055 49.400,248.484 56.293,245.143 63.625 C 244.861 64.244,244.200 65.688,243.672 66.833 C 241.749 71.014,240.536 73.950,240.175 75.297 C 239.338 78.424,236.598 82.762,234.234 84.701 C 232.720 85.944,232.719 85.947,233.412 87.323 C 233.728 87.951,234.213 89.363,234.490 90.462 C 235.334 93.805,235.887 94.666,237.338 94.898 C 240.545 95.411,246.113 86.297,244.343 83.432 C 243.938 82.778,243.941 82.207,244.349 81.951 C 244.863 81.629,245.397 81.952,245.900 82.892 L 246.383 83.794 246.749 83.369 C 247.567 82.417,248.221 83.544,247.676 84.967 C 246.831 87.176,247.855 89.148,249.643 88.755 C 250.111 88.652,250.120 88.629,250.217 87.200 C 250.429 84.069,251.767 82.561,254.031 82.900 C 256.538 83.276,256.782 84.737,254.613 86.395 C 253.897 86.942,252.969 87.789,252.552 88.278 L 251.793 89.167 251.863 90.636 C 252.038 94.305,255.141 95.282,258.974 92.876 C 260.699 91.793,260.678 91.823,260.557 90.665 C 260.309 88.292,261.897 85.079,265.993 79.667 C 266.791 78.612,267.829 77.175,268.300 76.473 C 270.598 73.048,272.608 71.821,274.184 72.881 C 277.954 75.419,272.464 86.081,264.792 91.118 C 263.623 91.886,262.667 92.600,262.667 92.706 C 262.667 93.187,264.447 94.621,265.298 94.825 C 267.101 95.257,269.068 93.982,268.255 92.907 C 267.332 91.686,268.512 90.848,269.591 91.958 C 270.190 92.575,270.217 92.583,271.491 92.583 C 273.155 92.583,273.258 92.491,273.386 90.875 C 273.608 88.044,275.169 86.084,276.774 86.619 C 278.604 87.229,278.177 89.852,275.877 92.141 L 274.790 93.223 274.893 94.318 C 275.071 96.223,275.693 96.711,277.836 96.625 C 281.326 96.484,283.500 94.352,283.500 91.072 C 283.500 88.343,284.096 87.951,288.333 87.895 C 290.184 87.871,291.599 87.769,292.204 87.618 C 294.333 87.085,294.422 88.136,292.414 90.091 C 290.427 92.025,289.745 94.593,290.909 95.758 C 292.723 97.571,300.680 92.595,301.583 89.083 C 301.748 88.442,302.281 86.667,302.768 85.140 C 303.255 83.613,303.958 81.213,304.329 79.807 C 305.400 75.751,306.662 73.667,308.047 73.667 C 309.493 73.667,309.750 74.434,309.750 78.750 L 309.750 82.083 309.209 83.333 C 308.911 84.021,308.442 84.921,308.168 85.333 C 307.538 86.279,307.542 86.405,308.230 87.166 C 309.023 88.044,309.436 89.288,309.910 92.225 C 310.569 96.309,310.937 96.693,313.007 95.457 L 313.917 94.914 314.019 92.416 C 314.208 87.782,316.013 85.589,318.604 86.843 C 321.004 88.005,320.127 91.775,316.844 94.408 C 315.554 95.442,315.436 96.359,316.375 98.036 C 318.044 101.017,323.243 96.952,324.427 91.741 C 325.194 88.364,325.847 87.963,330.064 88.276 C 333.252 88.514,333.669 89.177,332.182 91.645 C 329.945 95.355,330.368 99.350,332.883 98.268 C 333.899 97.831,336.865 94.086,337.847 92.000 C 339.012 89.525,338.822 89.748,339.752 89.764 C 341.070 89.787,343.520 90.477,343.958 90.949 C 344.483 91.513,344.443 91.749,343.501 93.616 C 341.953 96.687,342.374 98.017,344.599 97.088 C 346.887 96.131,354.955 85.395,357.502 79.917 C 359.226 76.208,361.561 69.898,362.158 67.333 C 362.660 65.179,363.527 64.456,364.262 65.578 C 364.880 66.522,362.254 74.722,359.375 80.834 C 357.456 84.907,350.462 94.229,347.221 97.034 C 342.842 100.822,339.157 98.069,342.092 93.202 C 342.407 92.679,342.666 92.167,342.666 92.066 C 342.667 91.911,340.962 91.369,340.190 91.277 C 339.943 91.248,339.945 91.246,339.179 92.833 C 338.567 94.103,336.294 97.222,335.139 98.377 C 330.865 102.651,327.195 97.007,330.601 91.397 C 331.515 89.891,331.516 89.902,330.458 89.775 C 327.495 89.419,326.167 89.783,326.167 90.951 C 326.167 93.790,322.974 98.671,320.237 100.019 C 317.696 101.270,315.412 100.281,314.554 97.560 C 314.226 96.519,314.308 96.544,313.087 97.103 C 310.251 98.401,309.118 97.087,308.255 91.500 C 307.615 87.357,307.102 87.089,304.577 89.579 C 302.378 91.747,302.393 91.719,301.822 95.073 C 301.458 97.210,301.111 98.052,300.560 98.133 C 299.819 98.242,299.439 97.035,299.695 95.387 C 299.914 93.982,299.893 93.976,298.478 95.005 C 293.254 98.804,289.181 98.460,289.025 94.207 C 288.956 92.352,289.116 91.689,289.920 90.496 C 290.239 90.021,290.500 89.612,290.500 89.585 C 290.500 89.559,289.450 89.483,288.166 89.417 C 285.025 89.254,285.071 89.223,284.967 91.563 C 284.789 95.562,281.978 98.157,277.818 98.165 C 275.138 98.170,273.845 97.217,273.420 94.924 L 273.236 93.931 271.662 93.980 L 270.088 94.030 269.336 94.814 C 267.225 97.012,264.429 96.840,262.144 94.371 L 261.205 93.356 260.061 94.033 C 255.232 96.886,250.846 95.652,250.366 91.304 L 250.250 90.250 249.152 90.156 C 247.780 90.037,247.014 89.587,246.482 88.584 C 245.975 87.627,246.019 87.606,245.338 89.125 C 243.489 93.248,240.212 96.385,237.742 96.393 C 235.260 96.401,234.070 95.011,232.987 90.840 C 232.454 88.786,231.799 87.167,231.502 87.167 C 231.401 87.167,230.966 87.490,230.535 87.885 C 229.821 88.539,227.601 90.110,226.278 90.898 C 225.987 91.070,225.352 91.468,224.865 91.781 L 223.980 92.350 222.230 92.188 C 219.405 91.926,218.399 90.670,219.002 88.157 C 219.872 84.532,223.837 82.615,228.156 83.732 C 229.539 84.089,229.421 84.246,230.661 80.417 L 231.687 77.250 231.862 74.250 C 231.988 72.094,231.984 70.359,231.850 68.083 C 231.746 66.342,231.654 63.192,231.645 61.083 L 231.629 57.250 232.324 53.750 C 233.633 47.156,233.953 46.738,237.121 47.498 M235.035 48.875 C 234.853 49.096,234.437 50.639,234.260 51.750 C 234.202 52.117,233.923 53.654,233.641 55.167 L 233.127 57.917 233.258 62.583 C 233.639 76.050,233.562 77.096,231.835 81.996 C 230.584 85.543,230.757 85.765,233.038 83.544 C 235.320 81.321,237.561 77.757,238.357 75.083 C 238.902 73.253,241.006 68.101,241.903 66.400 C 245.711 59.178,245.856 55.584,242.477 52.167 C 240.341 50.008,235.770 47.986,235.035 48.875 M144.040 61.083 C 143.640 62.355,143.593 63.000,143.901 63.000 C 144.283 63.000,144.358 62.715,144.300 61.482 L 144.250 60.417 144.040 61.083 M108.799 63.913 C 108.854 65.382,108.619 65.831,107.977 65.488 C 107.657 65.317,107.496 62.893,107.785 62.603 C 108.334 62.055,108.750 62.593,108.799 63.913 M142.989 64.947 C 142.895 65.192,142.784 65.736,142.741 66.155 L 142.663 66.917 143.178 65.880 C 143.659 64.909,143.701 64.500,143.319 64.500 C 143.231 64.500,143.082 64.701,142.989 64.947 M272.072 74.334 C 271.452 74.731,270.890 75.421,269.497 77.500 C 268.914 78.371,267.865 79.838,267.167 80.760 C 262.939 86.342,260.606 91.563,262.856 90.407 C 265.286 89.158,268.660 85.888,271.217 82.305 C 274.081 78.292,274.684 72.659,272.072 74.334 M245.929 74.628 C 246.473 75.000,246.239 76.000,245.607 76.000 C 245.384 76.000,245.157 75.881,245.101 75.736 C 244.792 74.930,245.326 74.214,245.929 74.628 M130.465 77.789 C 129.423 79.326,128.391 80.878,128.170 81.238 C 127.950 81.598,127.423 82.311,127.001 82.822 C 126.578 83.332,125.978 84.125,125.666 84.583 C 125.354 85.042,124.727 85.812,124.273 86.294 C 123.540 87.073,123.468 87.214,123.632 87.544 C 123.734 87.749,123.928 88.526,124.063 89.272 C 124.499 91.690,125.323 92.862,128.087 95.003 C 131.962 98.004,132.180 97.845,132.153 92.047 C 132.134 87.998,132.408 78.003,132.589 76.139 C 132.735 74.624,132.470 74.830,130.465 77.789 M307.330 75.875 C 306.831 76.688,306.371 78.007,306.012 79.654 C 305.835 80.465,305.344 82.272,304.921 83.669 C 304.057 86.528,304.054 86.430,304.997 86.148 C 306.147 85.803,307.630 83.488,308.085 81.326 C 308.332 80.152,308.426 76.448,308.228 75.708 C 308.086 75.176,307.717 75.244,307.330 75.875 M152.726 83.933 C 151.194 84.688,149.574 91.069,150.547 92.517 C 152.084 94.805,154.868 93.140,155.055 89.820 C 155.114 88.773,155.346 87.019,155.572 85.921 C 155.883 84.409,155.934 83.895,155.783 83.799 C 155.419 83.567,153.276 83.661,152.726 83.933 M252.849 84.373 C 252.295 84.664,251.871 85.302,251.740 86.042 C 251.600 86.831,251.902 86.877,252.580 86.170 C 252.842 85.897,253.344 85.474,253.695 85.230 C 254.319 84.798,254.540 84.336,254.125 84.331 C 254.010 84.330,253.767 84.291,253.583 84.246 C 253.400 84.200,253.070 84.257,252.849 84.373 M224.054 84.997 C 221.537 85.532,219.405 88.920,220.742 90.258 C 221.695 91.210,224.980 90.338,226.668 88.684 C 227.519 87.851,228.732 85.910,228.606 85.583 C 228.424 85.108,225.376 84.716,224.054 84.997 M317.070 87.995 C 316.482 88.233,315.872 89.116,315.682 90.003 C 315.455 91.061,315.445 92.946,315.665 93.082 C 316.151 93.382,318.126 91.055,318.507 89.735 C 318.706 89.046,318.406 88.000,318.009 88.000 C 317.928 88.000,317.761 87.967,317.639 87.927 C 317.517 87.887,317.261 87.917,317.070 87.995 M275.518 88.475 C 275.145 88.999,274.767 90.425,274.931 90.690 C 275.202 91.129,276.500 89.254,276.500 88.423 C 276.500 87.835,275.953 87.864,275.518 88.475 " stroke="none" fill="#fbfbfb" fill-rule="evenodd"></path><path id="path1" d="M49.621 41.182 C 49.092 41.259,48.164 41.475,47.559 41.662 C 46.954 41.849,46.037 42.042,45.521 42.091 C 44.237 42.214,40.947 42.808,39.843 43.117 C 37.684 43.721,34.147 48.618,34.591 50.388 C 34.889 51.575,36.106 51.630,35.948 50.450 C 35.834 49.601,36.069 49.020,37.175 47.421 C 38.708 45.203,39.671 44.470,41.333 44.257 C 41.837 44.193,42.512 44.074,42.833 43.993 C 43.154 43.912,44.214 43.770,45.190 43.679 C 46.165 43.587,47.590 43.341,48.356 43.131 C 50.620 42.512,57.574 42.556,59.833 43.204 C 60.704 43.453,62.317 43.753,63.417 43.870 L 65.417 44.083 65.467 45.500 C 65.494 46.279,65.428 47.254,65.320 47.667 C 65.212 48.079,65.063 49.017,64.989 49.750 C 64.615 53.463,64.497 54.222,64.091 55.506 C 63.850 56.271,63.584 57.576,63.501 58.407 C 63.419 59.237,63.272 60.179,63.175 60.499 C 63.079 60.819,62.999 61.457,62.997 61.916 C 62.996 62.375,62.846 63.455,62.664 64.317 C 62.482 65.179,62.333 66.118,62.333 66.404 C 62.333 66.689,62.190 67.447,62.015 68.087 C 61.840 68.727,61.611 70.075,61.505 71.083 C 61.400 72.092,61.233 73.217,61.136 73.583 C 61.038 73.950,60.894 75.938,60.816 78.000 C 60.329 90.834,60.351 90.710,57.538 96.308 C 54.713 101.928,53.255 102.939,50.191 101.406 C 48.513 100.567,45.357 96.983,44.576 95.029 C 44.225 94.152,43.605 93.917,43.144 94.487 C 42.729 94.999,43.095 95.933,44.462 97.853 C 48.846 104.009,54.181 105.195,56.966 100.632 C 59.136 97.076,60.965 92.520,61.721 88.790 L 61.932 87.750 63.674 87.806 C 65.720 87.872,66.063 87.767,67.164 86.736 C 69.014 85.006,69.703 83.242,69.748 80.125 C 69.786 77.457,69.353 77.737,73.167 77.920 C 75.511 78.032,76.977 77.889,80.208 77.233 C 80.865 77.100,80.791 77.397,79.924 78.360 C 77.203 81.386,76.984 88.767,79.482 93.250 C 81.893 97.576,86.825 98.662,90.556 95.687 C 93.519 93.324,98.069 87.083,100.345 82.258 C 101.292 80.250,101.500 80.026,101.500 81.013 C 101.500 83.428,102.203 87.082,102.955 88.577 C 106.031 94.692,108.582 96.666,113.148 96.467 C 115.658 96.357,115.772 96.270,119.621 91.500 C 122.197 88.307,122.378 88.192,122.548 89.634 C 122.882 92.453,124.527 94.594,128.294 97.113 C 132.456 99.896,133.833 98.791,133.833 92.671 L 133.833 89.691 134.289 89.333 C 135.804 88.141,138.466 83.069,139.077 80.208 C 139.292 79.206,139.500 79.655,139.502 81.125 C 139.506 83.461,139.968 89.534,140.243 90.863 C 141.267 95.816,144.291 96.011,147.132 91.308 C 148.389 89.226,148.453 89.206,148.524 90.874 C 148.668 94.255,151.282 95.926,154.119 94.452 C 155.198 93.891,155.112 93.880,155.422 94.623 C 155.972 95.938,157.121 96.660,158.667 96.659 C 160.990 96.658,170.936 90.585,174.326 87.098 C 174.934 86.473,175.500 86.129,175.500 86.384 C 175.500 86.430,174.398 89.617,172.981 93.667 C 171.903 96.751,172.625 99.384,174.032 97.493 C 174.518 96.839,177.310 88.264,177.480 86.901 C 178.458 79.068,185.174 76.296,188.746 82.250 C 190.018 84.371,190.052 84.611,190.157 92.167 C 190.243 98.405,190.274 98.956,190.566 99.439 C 192.098 101.970,195.644 99.649,198.643 94.152 C 199.368 92.826,199.494 92.174,199.093 91.841 C 198.547 91.388,198.109 91.704,197.372 93.083 C 195.605 96.392,193.498 98.833,192.409 98.833 C 191.847 98.833,191.833 98.699,191.833 93.195 C 191.833 90.383,191.756 87.267,191.661 86.269 C 190.749 76.653,180.635 74.022,177.002 82.455 C 176.387 83.883,176.355 83.922,175.634 84.126 C 175.068 84.286,174.357 84.818,172.583 86.408 C 171.311 87.548,169.666 88.866,168.927 89.337 C 168.188 89.809,166.458 90.913,165.083 91.792 C 159.593 95.300,159.125 95.523,157.974 95.179 C 156.487 94.733,156.132 93.107,157.070 91.030 C 157.717 89.597,158.275 87.636,158.443 86.207 C 158.557 85.242,158.674 85.103,159.406 85.063 C 160.979 84.977,160.494 82.687,158.667 81.571 C 155.911 79.887,152.909 80.199,151.531 82.313 C 151.195 82.828,150.306 84.015,149.556 84.949 C 147.963 86.933,147.283 87.929,145.850 90.372 C 144.142 93.285,143.132 93.856,142.380 92.333 C 141.904 91.371,141.500 89.432,141.500 88.114 C 141.500 87.547,141.425 86.296,141.334 85.333 C 141.227 84.203,141.221 81.744,141.318 78.390 L 141.469 73.197 142.426 71.390 C 144.253 67.943,144.835 66.745,145.176 65.722 L 145.518 64.693 148.467 64.596 C 157.345 64.301,157.000 64.343,157.000 63.569 C 157.000 62.868,156.543 62.787,153.269 62.913 C 151.608 62.977,149.313 63.041,148.167 63.056 L 146.083 63.083 146.139 60.250 C 146.190 57.690,145.996 55.179,145.573 52.917 C 145.337 51.657,144.920 51.183,144.267 51.433 C 143.701 51.651,143.456 52.514,143.307 54.829 C 143.102 58.014,142.237 62.086,141.724 62.283 C 141.581 62.338,141.253 62.159,140.939 61.855 C 140.366 61.299,140.023 61.210,139.700 61.533 C 139.262 61.971,139.717 62.738,140.925 63.601 L 141.417 63.953 141.119 65.018 C 140.495 67.251,140.002 69.633,139.831 71.244 C 139.709 72.394,139.478 73.385,139.092 74.417 C 138.275 76.601,138.056 77.340,137.511 79.758 C 136.825 82.800,136.604 83.338,134.750 86.481 C 134.475 86.947,134.204 87.330,134.147 87.331 C 134.001 87.334,134.142 78.072,134.318 76.167 C 134.665 72.384,133.369 70.633,131.699 72.629 C 131.065 73.385,127.446 78.726,126.445 80.381 C 125.585 81.803,123.468 84.566,122.333 85.750 C 121.185 86.947,119.376 89.160,116.773 92.554 C 114.853 95.058,113.884 95.495,111.491 94.940 C 108.197 94.175,106.927 92.945,104.414 88.083 C 103.368 86.061,102.725 81.976,102.868 78.263 C 102.955 76.016,102.861 75.667,102.169 75.667 C 101.649 75.667,100.961 76.770,99.102 80.583 C 98.119 82.599,96.857 84.962,96.297 85.833 C 91.184 93.791,88.921 95.950,85.849 95.803 C 81.868 95.611,79.544 92.149,79.374 86.157 C 79.252 81.821,79.595 80.783,81.985 78.275 C 84.512 75.622,84.086 74.892,80.455 75.658 C 76.439 76.504,76.079 76.540,72.729 76.419 C 68.178 76.254,68.167 76.262,68.167 79.827 C 68.167 84.062,66.642 86.500,63.994 86.500 C 62.026 86.500,61.656 85.639,62.069 82.028 C 62.202 80.866,62.258 79.211,62.209 77.917 C 62.147 76.290,62.195 75.415,62.402 74.405 C 62.553 73.665,62.781 72.202,62.909 71.155 C 63.037 70.107,63.292 68.537,63.477 67.667 C 64.042 64.996,64.333 63.239,64.333 62.502 C 64.333 62.115,64.442 61.375,64.575 60.857 C 64.708 60.340,64.891 59.204,64.981 58.333 C 65.072 57.462,65.301 56.305,65.491 55.760 C 65.833 54.782,66.031 53.486,66.332 50.250 C 66.417 49.333,66.563 48.283,66.656 47.917 C 66.749 47.550,66.827 46.640,66.829 45.895 C 66.832 45.018,66.907 44.481,67.042 44.370 C 67.528 43.971,85.877 43.881,88.735 44.263 C 92.163 44.721,95.500 44.392,95.500 43.596 C 95.500 42.916,95.218 42.833,92.905 42.833 C 91.497 42.833,90.030 42.718,88.813 42.510 C 86.599 42.133,82.811 42.069,73.583 42.250 C 66.763 42.385,62.840 42.191,60.167 41.586 C 58.236 41.150,51.588 40.895,49.621 41.182 M234.833 47.284 C 233.734 47.684,233.311 48.774,232.324 53.750 L 231.629 57.250 231.645 61.083 C 231.654 63.192,231.746 66.342,231.850 68.083 C 231.984 70.359,231.988 72.094,231.862 74.250 L 231.687 77.250 230.661 80.417 C 229.421 84.246,229.539 84.089,228.156 83.732 C 223.837 82.615,219.872 84.532,219.002 88.157 C 218.399 90.670,219.405 91.926,222.230 92.188 L 223.980 92.350 224.865 91.781 C 225.352 91.468,225.987 91.070,226.278 90.898 C 227.601 90.110,229.821 88.539,230.535 87.885 C 230.966 87.490,231.401 87.167,231.502 87.167 C 231.799 87.167,232.454 88.786,232.987 90.840 C 234.070 95.011,235.260 96.401,237.742 96.393 C 240.212 96.385,243.489 93.248,245.338 89.125 C 246.019 87.606,245.975 87.627,246.482 88.584 C 247.014 89.587,247.780 90.037,249.152 90.156 L 250.250 90.250 250.366 91.304 C 250.846 95.652,255.232 96.886,260.061 94.033 L 261.205 93.356 262.144 94.371 C 264.429 96.840,267.225 97.012,269.336 94.814 L 270.088 94.030 271.662 93.980 L 273.236 93.931 273.420 94.924 C 273.845 97.217,275.138 98.170,277.818 98.165 C 281.978 98.157,284.789 95.562,284.967 91.563 C 285.071 89.223,285.025 89.254,288.166 89.417 C 289.450 89.483,290.500 89.559,290.500 89.585 C 290.500 89.612,290.239 90.021,289.920 90.496 C 289.116 91.689,288.956 92.352,289.025 94.207 C 289.181 98.460,293.254 98.804,298.478 95.005 C 299.893 93.976,299.914 93.982,299.695 95.387 C 299.439 97.035,299.819 98.242,300.560 98.133 C 301.111 98.052,301.458 97.210,301.822 95.073 C 302.393 91.719,302.378 91.747,304.577 89.579 C 307.102 87.089,307.615 87.357,308.255 91.500 C 309.118 97.087,310.251 98.401,313.087 97.103 C 314.308 96.544,314.226 96.519,314.554 97.560 C 315.412 100.281,317.696 101.270,320.237 100.019 C 322.974 98.671,326.167 93.790,326.167 90.951 C 326.167 89.783,327.495 89.419,330.458 89.775 C 331.516 89.902,331.515 89.891,330.601 91.397 C 327.195 97.007,330.865 102.651,335.139 98.377 C 336.294 97.222,338.567 94.103,339.179 92.833 C 339.945 91.246,339.943 91.248,340.190 91.277 C 340.962 91.369,342.667 91.911,342.666 92.066 C 342.666 92.167,342.407 92.679,342.092 93.202 C 339.157 98.069,342.842 100.822,347.221 97.034 C 350.462 94.229,357.456 84.907,359.375 80.834 C 362.254 74.722,364.880 66.522,364.262 65.578 C 363.527 64.456,362.660 65.179,362.158 67.333 C 361.561 69.898,359.226 76.208,357.502 79.917 C 354.955 85.395,346.887 96.131,344.599 97.088 C 342.374 98.017,341.953 96.687,343.501 93.616 C 344.443 91.749,344.483 91.513,343.958 90.949 C 343.520 90.477,341.070 89.787,339.752 89.764 C 338.822 89.748,339.012 89.525,337.847 92.000 C 336.865 94.086,333.899 97.831,332.883 98.268 C 330.368 99.350,329.945 95.355,332.182 91.645 C 333.669 89.177,333.252 88.514,330.064 88.276 C 325.847 87.963,325.194 88.364,324.427 91.741 C 323.243 96.952,318.044 101.017,316.375 98.036 C 315.436 96.359,315.554 95.442,316.844 94.408 C 320.127 91.775,321.004 88.005,318.604 86.843 C 316.013 85.589,314.208 87.782,314.019 92.416 L 313.917 94.914 313.007 95.457 C 310.937 96.693,310.569 96.309,309.910 92.225 C 309.436 89.288,309.023 88.044,308.230 87.166 C 307.542 86.405,307.538 86.279,308.168 85.333 C 308.442 84.921,308.911 84.021,309.209 83.333 L 309.750 82.083 309.750 78.750 C 309.750 74.434,309.493 73.667,308.047 73.667 C 306.662 73.667,305.400 75.751,304.329 79.807 C 303.958 81.213,303.255 83.613,302.768 85.140 C 302.281 86.667,301.748 88.442,301.583 89.083 C 300.680 92.595,292.723 97.571,290.909 95.758 C 289.745 94.593,290.427 92.025,292.414 90.091 C 294.422 88.136,294.333 87.085,292.204 87.618 C 291.599 87.769,290.184 87.871,288.333 87.895 C 284.096 87.951,283.500 88.343,283.500 91.072 C 283.500 94.352,281.326 96.484,277.836 96.625 C 275.693 96.711,275.071 96.223,274.893 94.318 L 274.790 93.223 275.877 92.141 C 278.177 89.852,278.604 87.229,276.774 86.619 C 275.169 86.084,273.608 88.044,273.386 90.875 C 273.258 92.491,273.155 92.583,271.491 92.583 C 270.217 92.583,270.190 92.575,269.591 91.958 C 268.512 90.848,267.332 91.686,268.255 92.907 C 269.068 93.982,267.101 95.257,265.298 94.825 C 264.447 94.621,262.667 93.187,262.667 92.706 C 262.667 92.600,263.623 91.886,264.792 91.118 C 270.589 87.311,275.193 80.610,275.235 75.917 C 275.279 71.047,271.751 71.330,268.300 76.473 C 267.829 77.175,266.791 78.612,265.993 79.667 C 261.897 85.079,260.309 88.292,260.557 90.665 C 260.678 91.823,260.699 91.793,258.974 92.876 C 255.141 95.282,252.038 94.305,251.863 90.636 L 251.793 89.167 252.552 88.278 C 252.969 87.789,253.897 86.942,254.613 86.395 C 256.782 84.737,256.538 83.276,254.031 82.900 C 251.767 82.561,250.429 84.069,250.217 87.200 C 250.120 88.629,250.111 88.652,249.643 88.755 C 247.855 89.148,246.831 87.176,247.676 84.967 C 248.221 83.544,247.567 82.417,246.749 83.369 L 246.383 83.794 245.900 82.892 C 245.397 81.952,244.863 81.629,244.349 81.951 C 243.941 82.207,243.938 82.778,244.343 83.432 C 246.113 86.297,240.545 95.411,237.338 94.898 C 235.887 94.666,235.334 93.805,234.490 90.462 C 234.213 89.363,233.728 87.951,233.412 87.323 C 232.719 85.947,232.720 85.944,234.234 84.701 C 236.598 82.762,239.338 78.424,240.175 75.297 C 240.536 73.950,241.749 71.014,243.672 66.833 C 244.200 65.688,244.861 64.244,245.143 63.625 C 247.755 57.892,246.480 52.768,241.619 49.467 C 239.490 48.022,235.943 46.880,234.833 47.284 M237.693 49.227 C 241.444 50.501,244.117 53.101,244.669 56.011 C 245.219 58.911,244.573 61.337,241.903 66.400 C 241.006 68.101,238.902 73.253,238.357 75.083 C 237.561 77.757,235.320 81.321,233.038 83.544 C 230.757 85.765,230.584 85.543,231.835 81.996 C 233.562 77.096,233.639 76.050,233.258 62.583 L 233.127 57.917 233.641 55.167 C 233.923 53.654,234.202 52.117,234.260 51.750 C 234.788 48.427,234.961 48.299,237.693 49.227 M144.264 62.774 C 144.216 62.898,144.053 63.000,143.901 63.000 C 143.593 63.000,143.640 62.355,144.040 61.083 L 144.250 60.417 144.300 61.482 C 144.328 62.069,144.311 62.650,144.264 62.774 M107.785 62.603 C 107.496 62.893,107.657 65.317,107.977 65.488 C 108.619 65.831,108.854 65.382,108.799 63.913 C 108.750 62.593,108.334 62.055,107.785 62.603 M143.586 64.671 C 143.644 64.765,143.460 65.309,143.178 65.880 L 142.663 66.917 142.741 66.155 C 142.874 64.852,143.269 64.158,143.586 64.671 M273.467 74.200 C 273.719 74.453,273.728 76.355,273.482 77.533 C 272.676 81.402,267.001 88.276,262.856 90.407 C 260.606 91.563,262.939 86.342,267.167 80.760 C 267.865 79.838,268.914 78.371,269.497 77.500 C 271.603 74.359,272.707 73.440,273.467 74.200 M245.200 74.700 C 244.982 74.918,244.943 75.324,245.101 75.736 C 245.258 76.144,245.986 76.067,246.150 75.625 C 246.441 74.841,245.741 74.159,245.200 74.700 M132.589 76.139 C 132.408 78.003,132.134 87.998,132.153 92.047 C 132.180 97.845,131.962 98.004,128.087 95.003 C 125.323 92.862,124.499 91.690,124.063 89.272 C 123.928 88.526,123.734 87.749,123.632 87.544 C 123.468 87.214,123.540 87.073,124.273 86.294 C 124.727 85.812,125.354 85.042,125.666 84.583 C 125.978 84.125,126.578 83.332,127.001 82.822 C 127.423 82.311,127.950 81.598,128.170 81.238 C 129.436 79.173,132.382 75.010,132.519 75.095 C 132.610 75.151,132.640 75.605,132.589 76.139 M308.228 75.708 C 308.426 76.448,308.332 80.152,308.085 81.326 C 307.630 83.488,306.147 85.803,304.997 86.148 C 304.054 86.430,304.057 86.528,304.921 83.669 C 305.344 82.272,305.835 80.465,306.012 79.654 C 306.696 76.518,307.880 74.410,308.228 75.708 M155.783 83.799 C 155.934 83.895,155.883 84.409,155.572 85.921 C 155.346 87.019,155.114 88.773,155.055 89.820 C 154.868 93.140,152.084 94.805,150.547 92.517 C 149.574 91.069,151.194 84.688,152.726 83.933 C 153.276 83.661,155.419 83.567,155.783 83.799 M254.125 84.331 C 254.540 84.336,254.319 84.798,253.695 85.230 C 253.344 85.474,252.842 85.897,252.580 86.170 C 251.902 86.877,251.600 86.831,251.740 86.042 C 251.934 84.944,252.841 84.061,253.583 84.246 C 253.767 84.291,254.010 84.330,254.125 84.331 M227.723 85.177 C 228.772 85.442,228.801 85.583,228.068 86.851 C 225.984 90.455,220.320 92.187,220.337 89.216 C 220.355 86.119,223.859 84.203,227.723 85.177 M318.009 88.000 C 318.406 88.000,318.706 89.046,318.507 89.735 C 318.126 91.055,316.151 93.382,315.665 93.082 C 315.445 92.946,315.455 91.061,315.682 90.003 C 315.945 88.776,316.956 87.703,317.639 87.927 C 317.761 87.967,317.928 88.000,318.009 88.000 M276.500 88.423 C 276.500 89.254,275.202 91.129,274.931 90.690 C 274.767 90.425,275.145 88.999,275.518 88.475 C 275.953 87.864,276.500 87.835,276.500 88.423 " stroke="none" fill="#0b0b0b" fill-rule="evenodd"></path></g></svg>