
            <svg id="trend-chart" width="660" height="400" title="Stack Overflow Trends Chart" version="1.1" xmlns="http://www.w3.org/2000/svg"><g></g><g class="chart-area" transform="translate(100, 20)"><g transform="translate(0,300)" fill="none" font-size="10" font-family="sans-serif" text-anchor="middle"><path class="domain" stroke="#000" d="M0.5,6V0.5H410.5V6"></path><g class="tick" opacity="1" transform="translate(13.387472441504872,0)"><line stroke="#000" y2="6" x1="0.5" x2="0.5"></line><text fill="#000" y="9" x="0.5" dy="0.71em" style="font-size: 12px;">2009</text></g><g class="tick" opacity="1" transform="translate(45.31621150700519,0)"><line stroke="#000" y2="6" x1="0.5" x2="0.5"></line><text fill="#000" y="9" x="0.5" dy="0.71em" style="font-size: 12px;">2010</text></g><g class="tick" opacity="1" transform="translate(77.2449505725055,0)"><line stroke="#000" y2="6" x1="0.5" x2="0.5"></line><text fill="#000" y="9" x="0.5" dy="0.71em" style="font-size: 12px;">2011</text></g><g class="tick" opacity="1" transform="translate(109.17368963800584,0)"><line stroke="#000" y2="6" x1="0.5" x2="0.5"></line><text fill="#000" y="9" x="0.5" dy="0.71em" style="font-size: 12px;">2012</text></g><g class="tick" opacity="1" transform="translate(141.1899047009459,0)"><line stroke="#000" y2="6" x1="0.5" x2="0.5"></line><text fill="#000" y="9" x="0.5" dy="0.71em" style="font-size: 12px;">2013</text></g><g class="tick" opacity="1" transform="translate(173.11864376644618,0)"><line stroke="#000" y2="6" x1="0.5" x2="0.5"></line><text fill="#000" y="9" x="0.5" dy="0.71em" style="font-size: 12px;">2014</text></g><g class="tick" opacity="1" transform="translate(205.04738283194655,0)"><line stroke="#000" y2="6" x1="0.5" x2="0.5"></line><text fill="#000" y="9" x="0.5" dy="0.71em" style="font-size: 12px;">2015</text></g><g class="tick" opacity="1" transform="translate(236.97612189744683,0)"><line stroke="#000" y2="6" x1="0.5" x2="0.5"></line><text fill="#000" y="9" x="0.5" dy="0.71em" style="font-size: 12px;">2016</text></g><g class="tick" opacity="1" transform="translate(268.99233696038687,0)"><line stroke="#000" y2="6" x1="0.5" x2="0.5"></line><text fill="#000" y="9" x="0.5" dy="0.71em" style="font-size: 12px;">2017</text></g><g class="tick" opacity="1" transform="translate(300.9210760258872,0)"><line stroke="#000" y2="6" x1="0.5" x2="0.5"></line><text fill="#000" y="9" x="0.5" dy="0.71em" style="font-size: 12px;">2018</text></g><g class="tick" opacity="1" transform="translate(332.84981509138754,0)"><line stroke="#000" y2="6" x1="0.5" x2="0.5"></line><text fill="#000" y="9" x="0.5" dy="0.71em" style="font-size: 12px;">2019</text></g><g class="tick" opacity="1" transform="translate(364.7785541568878,0)"><line stroke="#000" y2="6" x1="0.5" x2="0.5"></line><text fill="#000" y="9" x="0.5" dy="0.71em" style="font-size: 12px;">2020</text></g><g class="tick" opacity="1" transform="translate(396.79476921982786,0)"><line stroke="#000" y2="6" x1="0.5" x2="0.5"></line><text fill="#000" y="9" x="0.5" dy="0.71em" style="font-size: 12px;">2021</text></g></g><g class="grid-lines" transform="translate(0,300)" fill="none" font-size="10" font-family="sans-serif" text-anchor="middle"><path class="domain" stroke="#000" d="M0.5,-300V0.5H410.5V-300"></path><g class="tick" opacity="1" transform="translate(13.387472441504872,0)"><line stroke="#000" y2="-300" x1="0.5" x2="0.5" style="stroke: #ccc; fill: none;"></line></g><g class="tick" opacity="1" transform="translate(45.31621150700519,0)"><line stroke="#000" y2="-300" x1="0.5" x2="0.5" style="stroke: #ccc; fill: none;"></line></g><g class="tick" opacity="1" transform="translate(77.2449505725055,0)"><line stroke="#000" y2="-300" x1="0.5" x2="0.5" style="stroke: #ccc; fill: none;"></line></g><g class="tick" opacity="1" transform="translate(109.17368963800584,0)"><line stroke="#000" y2="-300" x1="0.5" x2="0.5" style="stroke: #ccc; fill: none;"></line></g><g class="tick" opacity="1" transform="translate(141.1899047009459,0)"><line stroke="#000" y2="-300" x1="0.5" x2="0.5" style="stroke: #ccc; fill: none;"></line></g><g class="tick" opacity="1" transform="translate(173.11864376644618,0)"><line stroke="#000" y2="-300" x1="0.5" x2="0.5" style="stroke: #ccc; fill: none;"></line></g><g class="tick" opacity="1" transform="translate(205.04738283194655,0)"><line stroke="#000" y2="-300" x1="0.5" x2="0.5" style="stroke: #ccc; fill: none;"></line></g><g class="tick" opacity="1" transform="translate(236.97612189744683,0)"><line stroke="#000" y2="-300" x1="0.5" x2="0.5" style="stroke: #ccc; fill: none;"></line></g><g class="tick" opacity="1" transform="translate(268.99233696038687,0)"><line stroke="#000" y2="-300" x1="0.5" x2="0.5" style="stroke: #ccc; fill: none;"></line></g><g class="tick" opacity="1" transform="translate(300.9210760258872,0)"><line stroke="#000" y2="-300" x1="0.5" x2="0.5" style="stroke: #ccc; fill: none;"></line></g><g class="tick" opacity="1" transform="translate(332.84981509138754,0)"><line stroke="#000" y2="-300" x1="0.5" x2="0.5" style="stroke: #ccc; fill: none;"></line></g><g class="tick" opacity="1" transform="translate(364.7785541568878,0)"><line stroke="#000" y2="-300" x1="0.5" x2="0.5" style="stroke: #ccc; fill: none;"></line></g><g class="tick" opacity="1" transform="translate(396.79476921982786,0)"><line stroke="#000" y2="-300" x1="0.5" x2="0.5" style="stroke: #ccc; fill: none;"></line></g></g><text x="205" y="360" class="axis-label x-axis-label" style="text-anchor: middle; font-weight: bold;">Year</text><g fill="none" font-size="10" font-family="sans-serif" text-anchor="end"><path class="domain" stroke="#000" d="M-6,300.5H0.5V0.5H-6"></path><g class="tick" opacity="1" transform="translate(0,300)"><line stroke="#000" x2="-6" y1="0.5" y2="0.5"></line><text fill="#000" x="-9" y="0.5" dy="0.32em" style="font-size: 12px;">0.00%</text></g><g class="tick" opacity="1" transform="translate(0,262.5)"><line stroke="#000" x2="-6" y1="0.5" y2="0.5"></line><text fill="#000" x="-9" y="0.5" dy="0.32em" style="font-size: 12px;">0.50%</text></g><g class="tick" opacity="1" transform="translate(0,225)"><line stroke="#000" x2="-6" y1="0.5" y2="0.5"></line><text fill="#000" x="-9" y="0.5" dy="0.32em" style="font-size: 12px;">1.00%</text></g><g class="tick" opacity="1" transform="translate(0,187.5)"><line stroke="#000" x2="-6" y1="0.5" y2="0.5"></line><text fill="#000" x="-9" y="0.5" dy="0.32em" style="font-size: 12px;">1.50%</text></g><g class="tick" opacity="1" transform="translate(0,150)"><line stroke="#000" x2="-6" y1="0.5" y2="0.5"></line><text fill="#000" x="-9" y="0.5" dy="0.32em" style="font-size: 12px;">2.00%</text></g><g class="tick" opacity="1" transform="translate(0,112.5)"><line stroke="#000" x2="-6" y1="0.5" y2="0.5"></line><text fill="#000" x="-9" y="0.5" dy="0.32em" style="font-size: 12px;">2.50%</text></g><g class="tick" opacity="1" transform="translate(0,75)"><line stroke="#000" x2="-6" y1="0.5" y2="0.5"></line><text fill="#000" x="-9" y="0.5" dy="0.32em" style="font-size: 12px;">3.00%</text></g><g class="tick" opacity="1" transform="translate(0,37.49999999999994)"><line stroke="#000" x2="-6" y1="0.5" y2="0.5"></line><text fill="#000" x="-9" y="0.5" dy="0.32em" style="font-size: 12px;">3.50%</text></g><g class="tick" opacity="1" transform="translate(0,0)"><line stroke="#000" x2="-6" y1="0.5" y2="0.5"></line><text fill="#000" x="-9" y="0.5" dy="0.32em" style="font-size: 12px;">4.00%</text></g></g><g class="grid-lines" fill="none" font-size="10" font-family="sans-serif" text-anchor="end"><path class="domain" stroke="#000" d="M410,300.5H0.5V0.5H410"></path><g class="tick" opacity="1" transform="translate(0,300)"><line stroke="#000" x2="410" y1="0.5" y2="0.5" style="stroke: #ccc; fill: none;"></line></g><g class="tick" opacity="1" transform="translate(0,262.5)"><line stroke="#000" x2="410" y1="0.5" y2="0.5" style="stroke: #ccc; fill: none;"></line></g><g class="tick" opacity="1" transform="translate(0,225)"><line stroke="#000" x2="410" y1="0.5" y2="0.5" style="stroke: #ccc; fill: none;"></line></g><g class="tick" opacity="1" transform="translate(0,187.5)"><line stroke="#000" x2="410" y1="0.5" y2="0.5" style="stroke: #ccc; fill: none;"></line></g><g class="tick" opacity="1" transform="translate(0,150)"><line stroke="#000" x2="410" y1="0.5" y2="0.5" style="stroke: #ccc; fill: none;"></line></g><g class="tick" opacity="1" transform="translate(0,112.5)"><line stroke="#000" x2="410" y1="0.5" y2="0.5" style="stroke: #ccc; fill: none;"></line></g><g class="tick" opacity="1" transform="translate(0,75)"><line stroke="#000" x2="410" y1="0.5" y2="0.5" style="stroke: #ccc; fill: none;"></line></g><g class="tick" opacity="1" transform="translate(0,37.49999999999994)"><line stroke="#000" x2="410" y1="0.5" y2="0.5" style="stroke: #ccc; fill: none;"></line></g><g class="tick" opacity="1" transform="translate(0,0)"><line stroke="#000" x2="410" y1="0.5" y2="0.5" style="stroke: #ccc; fill: none;"></line></g></g><g class="lines"><path class="line" d="M2.7117559206315343,177.5620280475L5.336035843823342,158.6474501109L8.051436597681532,122.53824091785L10.675716520873339,124.37066153722503L13.387472441504872,124.49446776044996L16.099228362136408,146.71029969L18.548556290448758,128.53545328860002L21.25666737785364,128.133137635575L23.880947301045445,133.5290663535L26.592703221676977,114.73548939817502L29.216983144868784,93.97657904572498L31.928739065500316,68.89978717500003L34.64049498613185,74.86702940640001L37.26477490932366,61.94112746459999L39.980175663181846,73.03718466465L42.60445558637366,54.193600085475L45.31621150700519,68.98244670120002L48.027967427636725,76.53976748894999L50.477295355949074,61.296603308025L53.185406443353955,59.509967612850005L55.80968636654576,59.587449157500004L58.5214422871773,60.507161305500006L61.14572221036911,76.7879299221L63.85747813100063,62.406977295375015L66.56923405163218,71.59113332895001L69.19351397482399,65.08559538450004L71.90891472868218,58.13439625672498L74.53319465187398,60.91859305207501L77.2449505725055,36.68007036945005L79.95670649313705,41.50154517367503L82.40603442144939,44.82889052579998L85.11414550885428,38.329973541674974L87.73842543204609,59.36631128362498L90.45018135267762,44.90828845612498L93.07446127586942,34.987348329450015L95.78621719650096,30.171938255625037L98.49797311713249,45.868803204825014L101.12225304032431,44.310602092950006L103.83765379418249,37.38037672717502L106.46193371737431,45.659604874425014L109.17368963800584,41.55990827114999L111.88544555863736,47.435731504125016L114.42224948438945,34.055305408425L117.13036057179433,31.943019677400002L119.75464049498612,39.39972125129998L122.46639641561767,27.511037527650046L125.09067633880947,28.30044611617501L127.80243225944102,35.64177197219999L130.51418818007252,37.31952815437501L133.13846810326436,42.04128947527505L135.85386885712254,40.62652662435005L138.47814878031434,31.697726868074994L141.1899047009459,27.77862770602502L143.9016606215774,35.70167899065001L146.35098854988976,30.63939003315005L149.05909963729465,32.044069523100006L151.68337956048646,42.475319046525044L154.395135481118,42.80857906132502L157.0194154043098,42.999795862874976L159.73117132494133,26.704749354374997L162.44292724557286,20.38599120225001L165.06720716876467,30.08130964477499L167.78260792262284,22.849299217875L170.40688784581468,8.917051109250053L173.11864376644618,13.696474552575012L175.83039968707772,16.3519902882L178.27972761539007,9.816157868174969L180.98783870279496,2.0130604689749703L183.61211862598677,17.014864381725033L186.3238745466183,29.559206436224997L188.9481544698101,39.396148369200034L191.65991039044164,42.28872484455002L194.37166631107317,36.08179021657503L196.99594623426498,33.10103721569999L199.71134698812318,28.576583077800024L202.33562691131496,25.54011150690002L205.04738283194655,32.59123624432499L207.75913875257805,35.31305711407498L210.2084666808904,37.10996779807499L212.91657776829527,40.80572934862499L215.5408576914871,42.294395481375034L218.2526136121186,47.25771343312499L220.87689353531042,41.02028854365L223.58864945594195,52.46276760787498L226.3004053765735,43.9971951096L228.92468529976531,53.098906078125L231.6400860536235,49.636111299225036L234.26436597681533,39.568454376450006L236.97612189744683,45.349534953524994L239.68787781807836,50.569074412500015L242.22468174383047,47.63485684335001L244.93279283123533,45.37179172297502L247.55707275442714,48.79715037615L250.26882867505867,58.14517848067504L252.89310859825048,67.30177717020001L255.60486451888204,65.951251975725L258.31662043951354,69.09990538935L260.94090036270535,75.22257752835L263.65630111656355,72.97833779242498L266.28058103975536,69.27666291712501L268.99233696038687,69.07275320977502L271.7040928810184,64.65474058769999L274.1534208093308,55.95902373607501L276.8615318967357,60.83287232002502L279.48581181992745,73.49877566910001L282.197567740559,79.01255514082501L284.8218476637508,77.80177612725001L287.5336035843823,78.96909091949999L290.2453595050139,73.16836487144997L292.8696394282057,87.29458632712499L295.58504018206384,80.776597077675L298.20932010525564,86.10515802840001L300.9210760258872,91.14640666777501L303.63283194651876,97.62853923555L306.08215987483106,104.68157363430001L308.790270962236,96.23994783750001L311.4145508854278,107.79654892042501L314.1263068060593,108.26470068757499L316.7505867292511,111.31329113925L319.46234264988266,125.24039992364999L322.1740985705142,119.05436923035L324.79837849370597,121.22903274412502L327.5137792475642,115.6415566254L330.138059170756,115.48720056637498L332.84981509138754,122.41818696659999L335.56157101201904,119.700876740625L338.0108989403314,114.38728905165001L340.71901002773626,125.51733184672497L343.34328995092807,130.59415094219997L346.0550458715596,142.592937148875L348.67932579475143,139.72555952910002L351.391081715383,146.28924412170002L354.1028376360145,149.7524550978L356.7271175592063,141.30136850265L359.4425183130645,134.478886658325L362.0667982362563,140.46803652975L364.7785541568878,144.068844687225L367.4903100775194,140.21505973499998L370.0271140032715,141.14757902339997L372.7352250906763,150.61042674885002L375.35950501386816,155.62411162515L378.0712609344997,164.53567821285L380.69554085769147,166.885064365875L383.40729677832303,169.079242419075L386.11905269895453,166.16399342219998L388.74333262214634,173.882218817925L391.45873337600455,165.968557199175L394.08301329919635,167.51443115362503L396.79476921982786,174.060544360275L399.5065251404594,178.97661758317503L401.9558530687718,174.033801692325L404.6639641561767,167.70131026590002L407.2882440793685,173.127404112075L410,166.839997189275" data-legend="mysql" style="stroke: rgb(31, 119, 180); fill: none;"></path><path class="line" d="M2.7117559206315343,299.460625674225L5.336035843823342,300L8.051436597681532,300L10.675716520873339,300L13.387472441504872,300L16.099228362136408,300L18.548556290448758,300L21.25666737785364,300L23.880947301045445,299.41280093955L26.592703221676977,300L29.216983144868784,299.532826709925L31.928739065500316,299.768668455675L34.64049498613185,299.082961423275L37.26477490932366,299.58344904195L39.980175663181846,297.6399014004L42.60445558637366,297.596025428775L45.31621150700519,294.2834084337L48.027967427636725,293.254030716675L50.477295355949074,294.0721748853L53.185406443353955,293.965118384325L55.80968636654576,290.848343986125L58.5214422871773,289.70505897015L61.14572221036911,290.942478534975L63.85747813100063,286.8464710623L66.56923405163218,286.433598631875L69.19351397482399,283.803083325525L71.90891472868218,285.377583293625L74.53319465187398,281.4589929306L77.2449505725055,279.4546368435L79.95670649313705,279.367387747725L82.40603442144939,281.26157153955L85.11414550885428,279.605014489125L87.73842543204609,279.37211209575L90.45018135267762,277.98315584895L93.07446127586942,274.67175390015L95.78621719650096,276.2287648308L98.49797311713249,275.3306430234L101.12225304032431,269.687836596L103.83765379418249,269.2495794225L106.46193371737431,269.5834379406L109.17368963800584,266.765522354625L111.88544555863736,270.150944006775L114.42224948438945,267.12916832115L117.13036057179433,262.4055767976L119.75464049498612,266.57250821715L122.46639641561767,266.657468727075L125.09067633880947,266.488267358625L127.80243225944102,262.409484594675L130.51418818007252,264.01949323665L133.13846810326436,265.525097327175L135.85386885712254,264.78586549425L138.47814878031434,265.5580449879L141.1899047009459,263.4743364186L143.9016606215774,263.733408567525L146.35098854988976,264.709554721875L149.05909963729465,264.304740049575L151.68337956048646,259.5473151939L154.395135481118,262.39697150025L157.0194154043098,260.193249863925L159.73117132494133,255.74505385897498L162.44292724557286,258.171194469975L165.06720716876467,259.9154857668L167.78260792262284,260.905373136075L170.40688784581468,258.734151193275L173.11864376644618,258.0379565757L175.83039968707772,255.514024662975L178.27972761539007,257.7139002L180.98783870279496,256.267996709175L183.61211862598677,256.368868229775L186.3238745466183,249.54049379227502L188.9481544698101,251.9817590019L191.65991039044164,253.04315863635L194.37166631107317,249.288256227825L196.99594623426498,250.95111925372498L199.71134698812318,249.260328342075L202.33562691131496,246.3276289299L205.04738283194655,248.829746732175L207.75913875257805,244.72832211405L210.2084666808904,249.9918041022L212.91657776829527,240.094324641975L215.5408576914871,238.038661927275L218.2526136121186,238.58936030249998L220.87689353531042,241.3478050737L223.58864945594195,241.2841850982L226.3004053765735,240.834341812125L228.92468529976531,242.35063758172498L231.6400860536235,240.88924243455L234.26436597681533,238.78371996765L236.97612189744683,232.7432743275L239.68787781807836,232.6728864096L242.22468174383047,241.4767479594L244.93279283123533,241.6676900406L247.55707275442714,238.07650389435L250.26882867505867,234.69919818982498L252.89310859825048,237.286397812725L255.60486451888204,234.48964312455L258.31662043951354,237.415893424875L260.94090036270535,238.23042237975L263.65630111656355,235.35859152502502L266.28058103975536,234.232196237625L268.99233696038687,228.701854493625L271.7040928810184,236.694284348925L274.1534208093308,238.895922891825L276.8615318967357,239.456719316325L279.48581181992745,239.18886048037498L282.197567740559,243.75636240247502L284.8218476637508,242.693811604875L287.5336035843823,240.26537352975L290.2453595050139,243.455380136625L292.8696394282057,240.598989827175L295.58504018206384,237.441453911925L298.20932010525564,231.33725890020003L300.9210760258872,224.51643340155L303.63283194651876,232.14749313075L306.08215987483106,233.610115886925L308.790270962236,238.94184494055L311.4145508854278,246.607642966875L314.1263068060593,247.55244755249998L316.7505867292511,236.39240506335L319.46234264988266,235.330828504125L322.1740985705142,233.80165635525L324.79837849370597,237.23947870635L327.5137792475642,240.29529623759998L330.138059170756,235.089401931975L332.84981509138754,238.109299785675L335.56157101201904,236.5136668386L338.0108989403314,242.221541883525L340.71901002773626,241.560358115025L343.34328995092807,238.79240966025L346.0550458715596,233.743906523325L348.67932579475143,239.27552537475L351.391081715383,235.79241022012502L354.1028376360145,236.44867421025L356.7271175592063,239.321111486325L359.4425183130645,239.00779203105L362.0667982362563,229.794520548L364.7785541568878,223.27115325157502L367.4903100775194,230.390203605675L370.0271140032715,228.45356571960002L372.7352250906763,221.92311922574999L375.35950501386816,221.86293873075L378.0712609344997,218.8996494564L380.69554085769147,222.44574662797498L383.40729677832303,215.69496670927498L386.11905269895453,217.19595319245L388.74333262214634,225.228900210225L391.45873337600455,222.60090686092502L394.08301329919635,217.818211673775L396.79476921982786,220.2323561997L399.5065251404594,222.5941818045L401.9558530687718,223.646767879575L404.6639641561767,218.22196376325002L407.2882440793685,220.272578682825L410,219.717518094375" data-legend="mongodb" style="stroke: rgb(255, 127, 14); fill: none;"></path><path class="line" d="M2.7117559206315343,270.33441208200003L5.336035843823342,274.5357538803L8.051436597681532,281.4770554494L10.675716520873339,281.18257087905L13.387472441504872,273.7695536055L16.099228362136408,278.90113675515L18.548556290448758,281.112976496175L21.25666737785364,277.273803323775L23.880947301045445,280.622431004175L26.592703221676977,281.527093596075L29.216983144868784,271.9696025913L31.928739065500316,268.076246877075L34.64049498613185,275.698477716L37.26477490932366,280.630380449925L39.980175663181846,282.299260502475L42.60445558637366,277.763235215625L45.31621150700519,274.947878135775L48.027967427636725,278.918845989525L50.477295355949074,275.4212129391L53.185406443353955,279.028786385325L55.80968636654576,271.8187100523L58.5214422871773,268.03149890730003L61.14572221036911,279.155293066725L63.85747813100063,274.640944210125L66.56923405163218,275.333815694325L69.19351397482399,276.709543176075L71.90891472868218,275.95424808285003L74.53319465187398,274.8449494731L77.2449505725055,277.663985926125L79.95670649313705,272.7322305036L82.40603442144939,273.721407099225L85.11414550885428,278.187602368725L87.73842543204609,273.896345488425L90.45018135267762,278.362756610175L93.07446127586942,274.074037178025L95.78621719650096,274.54584552675L98.49797311713249,275.8461221244L101.12225304032431,274.7275116852L103.83765379418249,274.62745566705L106.46193371737431,273.204457233375L109.17368963800584,275.6883976758L111.88544555863736,273.063047030475L114.42224948438945,274.1528503038L117.13036057179433,270.798750349725L119.75464049498612,271.77109807635L122.46639641561767,272.80859087565L125.09067633880947,274.123852011075L127.80243225944102,270.23640494115L130.51418818007252,270.794303845575L133.13846810326436,268.238865176025L135.85386885712254,270.79058785215L138.47814878031434,268.95216333315L141.1899047009459,265.147632525075L143.9016606215774,269.047915860225L146.35098854988976,271.732960293225L149.05909963729465,271.373543065575L151.68337956048646,269.931374909775L154.395135481118,268.90153577355L157.0194154043098,268.741494284175L159.73117132494133,267.569904871725L162.44292724557286,269.13822690585L165.06720716876467,268.6737891816L167.78260792262284,266.478165431175L170.40688784581468,263.13281859352503L173.11864376644618,264.753472994925L175.83039968707772,261.424190147625L178.27972761539007,260.96667710775L180.98783870279496,262.901069518725L183.61211862598677,260.0296266027L186.3238745466183,258.358211711475L188.9481544698101,258.9323252187L191.65991039044164,261.9566882103L194.37166631107317,258.335846552925L196.99594623426498,258.778068309L199.71134698812318,259.9043839077L202.33562691131496,257.79773888805L205.04738283194655,255.53762758575L207.75913875257805,258.27793246965L210.2084666808904,260.26311475845L212.91657776829527,257.323657382475L215.5408576914871,255.040496015325L218.2526136121186,255.3960605202L220.87689353531042,253.224778142325L223.58864945594195,252.96086166397498L226.3004053765735,252.837124082475L228.92468529976531,252.8691177423L231.6400860536235,254.3446618374L234.26436597681533,250.41481317375002L236.97612189744683,250.828416174975L239.68787781807836,247.3005033504L242.22468174383047,251.17445895014998L244.93279283123533,253.794670269L247.55707275442714,250.038544352625L250.26882867505867,245.15224556055L252.89310859825048,252.02494873552502L255.60486451888204,246.1775226687L258.31662043951354,249.9327147399L260.94090036270535,248.065243397475L263.65630111656355,247.484249590125L266.28058103975536,243.6475728216L268.99233696038687,245.349500713275L271.7040928810184,246.885381820725L274.1534208093308,247.15323060915L276.8615318967357,244.579612297275L279.48581181992745,238.4996675658L282.197567740559,243.247370207025L284.8218476637508,244.166437591575L287.5336035843823,243.3778844022L290.2453595050139,245.2282312545L292.8696394282057,240.687913495125L295.58504018206384,238.64966617545L298.20932010525564,240.85641164355002L300.9210760258872,236.7825129738L303.63283194651876,241.68539103735L306.08215987483106,242.97559723185L308.790270962236,241.736268513075L311.4145508854278,240.374017526475L314.1263068060593,240.9781051503L316.7505867292511,239.09810126587502L319.46234264988266,239.9637012036L322.1740985705142,236.21077329164999L324.79837849370597,238.88735435925L327.5137792475642,235.8073582014L330.138059170756,238.28640588254999L332.84981509138754,238.311556975875L335.56157101201904,239.350180505475L338.0108989403314,233.5055700996L340.71901002773626,232.558292067075L343.34328995092807,234.60215897685L346.0550458715596,236.86972053735L348.67932579475143,230.787157953975L351.391081715383,231.69640880309998L354.1028376360145,229.67726657145L356.7271175592063,228.49623612135002L359.4425183130645,228.34053557459998L362.0667982362563,224.4863013699L364.7785541568878,223.683396887625L367.4903100775194,220.39388280705L370.0271140032715,222.79753003665002L372.7352250906763,230.584579850475L375.35950501386816,228.131471494875L378.0712609344997,222.7885773546L380.69554085769147,223.637705901375L383.40729677832303,221.732155794L386.11905269895453,219.25153125675L388.74333262214634,218.7270654459L391.45873337600455,217.90864491195L394.08301329919635,222.83911632082498L396.79476921982786,222.8373806031L399.5065251404594,218.38837116989998L401.9558530687718,217.741452541275L404.6639641561767,218.1310992786L407.2882440793685,215.4797163609L410,217.56552596445" data-legend="postgresql" style="stroke: rgb(44, 160, 44); fill: none;"></path><path class="line" d="M2.7117559206315343,195.3613807983L5.336035843823342,201.780764966775L8.051436597681532,223.518164436L10.675716520873339,228.49376934015L13.387472441504872,242.29301793209999L16.099228362136408,242.3010678609L18.548556290448758,246.67193363625L21.25666737785364,248.5109606553L23.880947301045445,238.050499119225L26.592703221676977,234.14007282075L29.216983144868784,236.698019185275L31.928739065500316,232.682520588525L34.64049498613185,242.914348596975L37.26477490932366,237.933907248L39.980175663181846,239.030786175075L42.60445558637366,245.30957850315002L45.31621150700519,256.284888022125L48.027967427636725,252.10361808825L50.477295355949074,250.408682577075L53.185406443353955,256.3979803263L55.80968636654576,260.633352701925L58.5214422871773,248.389835100375L61.14572221036911,259.67541813495L63.85747813100063,252.125894676975L66.56923405163218,260.040781424775L69.19351397482399,257.556984772575L71.90891472868218,254.616351111375L74.53319465187398,257.82191959065L77.2449505725055,256.364664488625L79.95670649313705,260.098163970225L82.40603442144939,259.9102148076L85.11414550885428,261.493637394525L87.73842543204609,261.444602244375L90.45018135267762,262.72320524767497L93.07446127586942,263.31513617985L95.78621719650096,261.994072384275L98.49797311713249,253.2386815518L101.12225304032431,255.8287301007L103.83765379418249,252.84016216372498L106.46193371737431,256.040825785575L109.17368963800584,261.010914357675L111.88544555863736,257.895843781875L114.42224948438945,259.09407613297503L117.13036057179433,262.4055767976L119.75464049498612,259.92054915L122.46639641561767,263.208241353975L125.09067633880947,259.86015568109997L127.80243225944102,257.830469970225L130.51418818007252,257.5293385356L133.13846810326436,257.8863433821L135.85386885712254,251.351571405375L138.47814878031434,258.93673215030003L141.1899047009459,260.366786506575L143.9016606215774,256.5981904431L146.35098854988976,263.625695837475L149.05909963729465,255.9626743785L151.68337956048646,255.1679508789L154.395135481118,256.2722357976L157.0194154043098,256.833492106725L159.73117132494133,258.52477629855L162.44292724557286,252.415768356975L165.06720716876467,249.812884618575L167.78260792262284,251.716646909025L170.40688784581468,252.83902993515L173.11864376644618,256.329274883175L175.83039968707772,253.397546482725L178.27972761539007,252.907018769775L180.98783870279496,249.712052653275L183.61211862598677,250.068958471725L186.3238745466183,253.418443034175L188.9481544698101,252.36319251375L191.65991039044164,254.283701412075L194.37166631107317,248.021593582275L196.99594623426498,249.124831140825L199.71134698812318,245.020746888L202.33562691131496,248.89267461675L205.04738283194655,252.999510506025L207.75913875257805,250.318095363075L210.2084666808904,248.88139213935L212.91657776829527,249.105980245875L215.5408576914871,249.76546395937498L218.2526136121186,252.748704399975L220.87689353531042,251.412382901325L223.58864945594195,252.0882274722L226.3004053765735,250.54684053975L228.92468529976531,252.8691177423L231.6400860536235,247.8708279738L234.26436597681533,251.85776834595L236.97612189744683,254.12041204125L239.68787781807836,250.62678336705L242.22468174383047,250.87491575355L244.93279283123533,251.108313889275L247.55707275442714,252.67019325345L250.26882867505867,251.342089297725L252.89310859825048,256.1261107314L255.60486451888204,254.953830796125L258.31662043951354,252.79748018175002L260.94090036270535,245.994754762125L263.65630111656355,249.81444722535L266.28058103975536,250.82563219755002L268.99233696038687,251.383737517875L271.7040928810184,252.542304569925L274.1534208093308,249.405223622925L276.8615318967357,250.295236697475L279.48581181992745,247.378093935675L282.197567740559,251.13674923657499L284.8218476637508,250.85636707380002L287.5336035843823,250.37037458145L290.2453595050139,251.339902213275L292.8696394282057,246.423490076175L295.58504018206384,247.957375464675L298.20932010525564,248.606978631375L300.9210760258872,250.228023274125L303.63283194651876,247.66510941405L306.08215987483106,248.4898526031L308.790270962236,246.1607725029L311.4145508854278,246.06558858075L314.1263068060593,248.141194633275L316.7505867292511,247.16772151905002L319.46234264988266,247.5100299306L322.1740985705142,251.2939401981L324.79837849370597,245.196364001625L327.5137792475642,242.867036011125L330.138059170756,241.654677901875L332.84981509138754,252.97520326852498L335.56157101201904,247.60185662715L338.0108989403314,248.31335011965L340.71901002773626,247.61092709805L343.34328995092807,243.9304551411L346.0550458715596,247.530979049625L348.67932579475143,248.768433318675L351.391081715383,250.239117920625L354.1028376360145,245.051692111875L356.7271175592063,243.144576638175L359.4425183130645,246.25540168095L362.0667982362563,242.92237442925L364.7785541568878,249.96392868187502L367.4903100775194,245.9053265118L370.0271140032715,246.3401742897L372.7352250906763,249.1448526177L375.35950501386816,251.5286702193L378.0712609344997,248.795782673775L380.69554085769147,256.0513080792L383.40729677832303,258.38651809432497L386.11905269895453,254.86665554475L388.74333262214634,249.32131533015001L391.45873337600455,252.2875938453L394.08301329919635,256.327602975975L396.79476921982786,261.328861873875L399.5065251404594,256.146154282425L401.9558530687718,256.832976611625L404.6639641561767,251.3875006815L407.2882440793685,252.02529156585L410,258.8925584991" data-legend="oracle" style="stroke: rgb(214, 39, 40); fill: none;"></path></g></g><g transform="translate(20, 150)"><text transform="rotate(-90)" x="-50" y="0" dy="1em" class="axis-label y-axis-label" style="text-anchor: middle; font-weight: bold;">% of Stack Overflow questions that month</text></g><g class="legend" transform="translate(530, 30)" style="font-size: 12px;"><text class="legend-title" style="font-weight: bold;">Tag</text><g class="legend-items" transform="translate(0,20)"><text y="0em" x="1em">mysql</text><text y="1em" x="1em">oracle</text><text y="2em" x="1em">postgresql</text><text y="3em" x="1em">mongodb</text><circle cy="-0.25em" cx="0" r="0.4em" style="fill: rgb(31, 119, 180);"></circle><circle cy="0.75em" cx="0" r="0.4em" style="fill: rgb(214, 39, 40);"></circle><circle cy="1.75em" cx="0" r="0.4em" style="fill: rgb(44, 160, 44);"></circle><circle cy="2.75em" cx="0" r="0.4em" style="fill: rgb(255, 127, 14);"></circle></g><rect class="legend-box"></rect></g></svg>
        