
            <svg id="trend-chart" width="660" height="400" title="Stack Overflow Trends Chart" version="1.1" xmlns="http://www.w3.org/2000/svg"><g></g><g class="chart-area" transform="translate(100, 20)"><g transform="translate(0,300)" fill="none" font-size="10" font-family="sans-serif" text-anchor="middle"><path class="domain" stroke="#000" d="M0.5,6V0.5H410.5V6"></path><g class="tick" opacity="1" transform="translate(13.387472441504872,0)"><line stroke="#000" y2="6" x1="0.5" x2="0.5"></line><text fill="#000" y="9" x="0.5" dy="0.71em" style="font-size: 12px;">2009</text></g><g class="tick" opacity="1" transform="translate(45.31621150700519,0)"><line stroke="#000" y2="6" x1="0.5" x2="0.5"></line><text fill="#000" y="9" x="0.5" dy="0.71em" style="font-size: 12px;">2010</text></g><g class="tick" opacity="1" transform="translate(77.2449505725055,0)"><line stroke="#000" y2="6" x1="0.5" x2="0.5"></line><text fill="#000" y="9" x="0.5" dy="0.71em" style="font-size: 12px;">2011</text></g><g class="tick" opacity="1" transform="translate(109.17368963800584,0)"><line stroke="#000" y2="6" x1="0.5" x2="0.5"></line><text fill="#000" y="9" x="0.5" dy="0.71em" style="font-size: 12px;">2012</text></g><g class="tick" opacity="1" transform="translate(141.1899047009459,0)"><line stroke="#000" y2="6" x1="0.5" x2="0.5"></line><text fill="#000" y="9" x="0.5" dy="0.71em" style="font-size: 12px;">2013</text></g><g class="tick" opacity="1" transform="translate(173.11864376644618,0)"><line stroke="#000" y2="6" x1="0.5" x2="0.5"></line><text fill="#000" y="9" x="0.5" dy="0.71em" style="font-size: 12px;">2014</text></g><g class="tick" opacity="1" transform="translate(205.04738283194655,0)"><line stroke="#000" y2="6" x1="0.5" x2="0.5"></line><text fill="#000" y="9" x="0.5" dy="0.71em" style="font-size: 12px;">2015</text></g><g class="tick" opacity="1" transform="translate(236.97612189744683,0)"><line stroke="#000" y2="6" x1="0.5" x2="0.5"></line><text fill="#000" y="9" x="0.5" dy="0.71em" style="font-size: 12px;">2016</text></g><g class="tick" opacity="1" transform="translate(268.99233696038687,0)"><line stroke="#000" y2="6" x1="0.5" x2="0.5"></line><text fill="#000" y="9" x="0.5" dy="0.71em" style="font-size: 12px;">2017</text></g><g class="tick" opacity="1" transform="translate(300.9210760258872,0)"><line stroke="#000" y2="6" x1="0.5" x2="0.5"></line><text fill="#000" y="9" x="0.5" dy="0.71em" style="font-size: 12px;">2018</text></g><g class="tick" opacity="1" transform="translate(332.84981509138754,0)"><line stroke="#000" y2="6" x1="0.5" x2="0.5"></line><text fill="#000" y="9" x="0.5" dy="0.71em" style="font-size: 12px;">2019</text></g><g class="tick" opacity="1" transform="translate(364.7785541568878,0)"><line stroke="#000" y2="6" x1="0.5" x2="0.5"></line><text fill="#000" y="9" x="0.5" dy="0.71em" style="font-size: 12px;">2020</text></g><g class="tick" opacity="1" transform="translate(396.79476921982786,0)"><line stroke="#000" y2="6" x1="0.5" x2="0.5"></line><text fill="#000" y="9" x="0.5" dy="0.71em" style="font-size: 12px;">2021</text></g></g><g class="grid-lines" transform="translate(0,300)" fill="none" font-size="10" font-family="sans-serif" text-anchor="middle"><path class="domain" stroke="#000" d="M0.5,-300V0.5H410.5V-300"></path><g class="tick" opacity="1" transform="translate(13.387472441504872,0)"><line stroke="#000" y2="-300" x1="0.5" x2="0.5" style="stroke: #ccc; fill: none;"></line></g><g class="tick" opacity="1" transform="translate(45.31621150700519,0)"><line stroke="#000" y2="-300" x1="0.5" x2="0.5" style="stroke: #ccc; fill: none;"></line></g><g class="tick" opacity="1" transform="translate(77.2449505725055,0)"><line stroke="#000" y2="-300" x1="0.5" x2="0.5" style="stroke: #ccc; fill: none;"></line></g><g class="tick" opacity="1" transform="translate(109.17368963800584,0)"><line stroke="#000" y2="-300" x1="0.5" x2="0.5" style="stroke: #ccc; fill: none;"></line></g><g class="tick" opacity="1" transform="translate(141.1899047009459,0)"><line stroke="#000" y2="-300" x1="0.5" x2="0.5" style="stroke: #ccc; fill: none;"></line></g><g class="tick" opacity="1" transform="translate(173.11864376644618,0)"><line stroke="#000" y2="-300" x1="0.5" x2="0.5" style="stroke: #ccc; fill: none;"></line></g><g class="tick" opacity="1" transform="translate(205.04738283194655,0)"><line stroke="#000" y2="-300" x1="0.5" x2="0.5" style="stroke: #ccc; fill: none;"></line></g><g class="tick" opacity="1" transform="translate(236.97612189744683,0)"><line stroke="#000" y2="-300" x1="0.5" x2="0.5" style="stroke: #ccc; fill: none;"></line></g><g class="tick" opacity="1" transform="translate(268.99233696038687,0)"><line stroke="#000" y2="-300" x1="0.5" x2="0.5" style="stroke: #ccc; fill: none;"></line></g><g class="tick" opacity="1" transform="translate(300.9210760258872,0)"><line stroke="#000" y2="-300" x1="0.5" x2="0.5" style="stroke: #ccc; fill: none;"></line></g><g class="tick" opacity="1" transform="translate(332.84981509138754,0)"><line stroke="#000" y2="-300" x1="0.5" x2="0.5" style="stroke: #ccc; fill: none;"></line></g><g class="tick" opacity="1" transform="translate(364.7785541568878,0)"><line stroke="#000" y2="-300" x1="0.5" x2="0.5" style="stroke: #ccc; fill: none;"></line></g><g class="tick" opacity="1" transform="translate(396.79476921982786,0)"><line stroke="#000" y2="-300" x1="0.5" x2="0.5" style="stroke: #ccc; fill: none;"></line></g></g><text x="205" y="360" class="axis-label x-axis-label" style="text-anchor: middle; font-weight: bold;">Year</text><g fill="none" font-size="10" font-family="sans-serif" text-anchor="end"><path class="domain" stroke="#000" d="M-6,300.5H0.5V0.5H-6"></path><g class="tick" opacity="1" transform="translate(0,300)"><line stroke="#000" x2="-6" y1="0.5" y2="0.5"></line><text fill="#000" x="-9" y="0.5" dy="0.32em" style="font-size: 12px;">0.00%</text></g><g class="tick" opacity="1" transform="translate(0,275)"><line stroke="#000" x2="-6" y1="0.5" y2="0.5"></line><text fill="#000" x="-9" y="0.5" dy="0.32em" style="font-size: 12px;">0.50%</text></g><g class="tick" opacity="1" transform="translate(0,250)"><line stroke="#000" x2="-6" y1="0.5" y2="0.5"></line><text fill="#000" x="-9" y="0.5" dy="0.32em" style="font-size: 12px;">1.00%</text></g><g class="tick" opacity="1" transform="translate(0,225)"><line stroke="#000" x2="-6" y1="0.5" y2="0.5"></line><text fill="#000" x="-9" y="0.5" dy="0.32em" style="font-size: 12px;">1.50%</text></g><g class="tick" opacity="1" transform="translate(0,200)"><line stroke="#000" x2="-6" y1="0.5" y2="0.5"></line><text fill="#000" x="-9" y="0.5" dy="0.32em" style="font-size: 12px;">2.00%</text></g><g class="tick" opacity="1" transform="translate(0,175)"><line stroke="#000" x2="-6" y1="0.5" y2="0.5"></line><text fill="#000" x="-9" y="0.5" dy="0.32em" style="font-size: 12px;">2.50%</text></g><g class="tick" opacity="1" transform="translate(0,150)"><line stroke="#000" x2="-6" y1="0.5" y2="0.5"></line><text fill="#000" x="-9" y="0.5" dy="0.32em" style="font-size: 12px;">3.00%</text></g><g class="tick" opacity="1" transform="translate(0,125)"><line stroke="#000" x2="-6" y1="0.5" y2="0.5"></line><text fill="#000" x="-9" y="0.5" dy="0.32em" style="font-size: 12px;">3.50%</text></g><g class="tick" opacity="1" transform="translate(0,99.99999999999997)"><line stroke="#000" x2="-6" y1="0.5" y2="0.5"></line><text fill="#000" x="-9" y="0.5" dy="0.32em" style="font-size: 12px;">4.00%</text></g><g class="tick" opacity="1" transform="translate(0,75)"><line stroke="#000" x2="-6" y1="0.5" y2="0.5"></line><text fill="#000" x="-9" y="0.5" dy="0.32em" style="font-size: 12px;">4.50%</text></g><g class="tick" opacity="1" transform="translate(0,50)"><line stroke="#000" x2="-6" y1="0.5" y2="0.5"></line><text fill="#000" x="-9" y="0.5" dy="0.32em" style="font-size: 12px;">5.00%</text></g><g class="tick" opacity="1" transform="translate(0,25)"><line stroke="#000" x2="-6" y1="0.5" y2="0.5"></line><text fill="#000" x="-9" y="0.5" dy="0.32em" style="font-size: 12px;">5.50%</text></g><g class="tick" opacity="1" transform="translate(0,0)"><line stroke="#000" x2="-6" y1="0.5" y2="0.5"></line><text fill="#000" x="-9" y="0.5" dy="0.32em" style="font-size: 12px;">6.00%</text></g></g><g class="grid-lines" fill="none" font-size="10" font-family="sans-serif" text-anchor="end"><path class="domain" stroke="#000" d="M410,300.5H0.5V0.5H410"></path><g class="tick" opacity="1" transform="translate(0,300)"><line stroke="#000" x2="410" y1="0.5" y2="0.5" style="stroke: #ccc; fill: none;"></line></g><g class="tick" opacity="1" transform="translate(0,275)"><line stroke="#000" x2="410" y1="0.5" y2="0.5" style="stroke: #ccc; fill: none;"></line></g><g class="tick" opacity="1" transform="translate(0,250)"><line stroke="#000" x2="410" y1="0.5" y2="0.5" style="stroke: #ccc; fill: none;"></line></g><g class="tick" opacity="1" transform="translate(0,225)"><line stroke="#000" x2="410" y1="0.5" y2="0.5" style="stroke: #ccc; fill: none;"></line></g><g class="tick" opacity="1" transform="translate(0,200)"><line stroke="#000" x2="410" y1="0.5" y2="0.5" style="stroke: #ccc; fill: none;"></line></g><g class="tick" opacity="1" transform="translate(0,175)"><line stroke="#000" x2="410" y1="0.5" y2="0.5" style="stroke: #ccc; fill: none;"></line></g><g class="tick" opacity="1" transform="translate(0,150)"><line stroke="#000" x2="410" y1="0.5" y2="0.5" style="stroke: #ccc; fill: none;"></line></g><g class="tick" opacity="1" transform="translate(0,125)"><line stroke="#000" x2="410" y1="0.5" y2="0.5" style="stroke: #ccc; fill: none;"></line></g><g class="tick" opacity="1" transform="translate(0,99.99999999999997)"><line stroke="#000" x2="410" y1="0.5" y2="0.5" style="stroke: #ccc; fill: none;"></line></g><g class="tick" opacity="1" transform="translate(0,75)"><line stroke="#000" x2="410" y1="0.5" y2="0.5" style="stroke: #ccc; fill: none;"></line></g><g class="tick" opacity="1" transform="translate(0,50)"><line stroke="#000" x2="410" y1="0.5" y2="0.5" style="stroke: #ccc; fill: none;"></line></g><g class="tick" opacity="1" transform="translate(0,25)"><line stroke="#000" x2="410" y1="0.5" y2="0.5" style="stroke: #ccc; fill: none;"></line></g><g class="tick" opacity="1" transform="translate(0,0)"><line stroke="#000" x2="410" y1="0.5" y2="0.5" style="stroke: #ccc; fill: none;"></line></g></g><g class="lines"><path class="line" d="M2.7117559206315343,300L5.336035843823342,300L8.051436597681532,300L10.675716520873339,300L13.387472441504872,300L16.099228362136408,300L18.548556290448758,300L21.25666737785364,300L23.880947301045445,300L26.592703221676977,300L29.216983144868784,300L31.928739065500316,300L34.64049498613185,300L37.26477490932366,300L39.980175663181846,300L42.60445558637366,300L45.31621150700519,300L48.027967427636725,300L50.477295355949074,300L53.185406443353955,300L55.80968636654576,300L58.5214422871773,300L61.14572221036911,300L63.85747813100063,300L66.56923405163218,300L69.19351397482399,300L71.90891472868218,300L74.53319465187398,300L77.2449505725055,300L79.95670649313705,300L82.40603442144939,300L85.11414550885428,300L87.73842543204609,300L90.45018135267762,300L93.07446127586942,300L95.78621719650096,300L98.49797311713249,300L101.12225304032431,300L103.83765379418249,300L106.46193371737431,300L109.17368963800584,300L111.88544555863736,300L114.42224948438945,300L117.13036057179433,300L119.75464049498612,300L122.46639641561767,300L125.09067633880947,300L127.80243225944102,300L130.51418818007252,300L133.13846810326436,300L135.85386885712254,300L138.47814878031434,300L141.1899047009459,300L143.9016606215774,300L146.35098854988976,300L149.05909963729465,300L151.68337956048646,299.9699012762L154.395135481118,299.93669523825L157.0194154043098,299.94329522775L159.73117132494133,299.97058494775L162.44292724557286,299.7280901049L165.06720716876467,299.8642123502L167.78260792262284,299.8014781371L170.40688784581468,299.3651407876L173.11864376644618,298.7549141156L175.83039968707772,298.74874874875L178.27972761539007,298.9157410308L180.98783870279496,299.15158371045L183.61211862598677,298.1554318276L186.3238745466183,297.90713850435L188.9481544698101,297.73965326285L191.65991039044164,297.70269856345L194.37166631107317,297.1349297304L196.99594623426498,296.1445028728L199.71134698812318,295.27933128875L202.33562691131496,294.5149966445L205.04738283194655,293.98707977545L207.75913875257805,290.1619990818L210.2084666808904,289.9798539544L212.91657776829527,287.9844591948L215.5408576914871,288.1244150125L218.2526136121186,285.96099027165L220.87689353531042,283.5213425607L223.58864945594195,283.3229910022L226.3004053765735,278.9915966387L228.92468529976531,277.6954279673L231.6400860536235,273.23020332635L234.26436597681533,270.67448680355L236.97612189744683,268.10792190335L239.68787781807836,269.35547647295L242.22468174383047,263.78023514145L244.93279283123533,261.98166114045L247.55707275442714,259.3290624419L250.26882867505867,254.58048436555L252.89310859825048,248.47915242655L255.60486451888204,243.9314532901L258.31662043951354,245.6429121296L260.94090036270535,245.70718689615L263.65630111656355,243.3848278243L266.28058103975536,237.26189662355L268.99233696038687,235.86305278174999L271.7040928810184,234.6790955833L274.1534208093308,235.1676233467L276.8615318967357,225.8521219785L279.48581181992745,218.4319915243L282.197567740559,214.34792444295002L284.8218476637508,206.84588758675L287.5336035843823,206.0277539326L290.2453595050139,211.8550865276L292.8696394282057,206.45230134455L295.58504018206384,206.68424789535L298.20932010525564,201.51404811945L300.9210760258872,196.43025632965L303.63283194651876,192.2991770063L306.08215987483106,188.83961394379998L308.790270962236,185.5528301301L311.4145508854278,182.0730568856L314.1263068060593,174.26979007900002L316.7505867292511,167.9113924051L319.46234264988266,158.75310450235L322.1740985705142,157.72244179715L324.79837849370597,162.26898352754998L327.5137792475642,161.86563752255L330.138059170756,151.26319715620002L332.84981509138754,147.9025929372L335.56157101201904,144.7653429603L338.0108989403314,141.73794602975L340.71901002773626,147.4076017447L343.34328995092807,134.15253842730002L346.0550458715596,130.98277081089998L348.67932579475143,127.98917775010003L351.391081715383,113.46588141524998L354.1028376360145,116.35794474830001L356.7271175592063,120.14817168849999L359.4425183130645,113.09333424075001L362.0667982362563,103.65296803655002L364.7785541568878,95.2523274589L367.4903100775194,96.53322041194997L370.0271140032715,85.16732841749999L372.7352250906763,72.16234051915L375.35950501386816,74.99826983174995L378.0712609344997,64.77387504659998L380.69554085769147,54.91779326045L383.40729677832303,51.124067110550016L386.11905269895453,53.9264520127L388.74333262214634,58.98678257154998L391.45873337600455,61.2985951089L394.08301329919635,51.82836716394999L396.79476921982786,42.40201215679997L399.5065251404594,50.896294476099996L401.9558530687718,43.798032670550015L404.6639641561767,37.85596161884996L407.2882440793685,35.40942104684996L410,41.8195020261" data-legend="reactjs" style="stroke: rgb(31, 119, 180); fill: none;"></path><path class="line" d="M2.7117559206315343,300L5.336035843823342,300L8.051436597681532,300L10.675716520873339,300L13.387472441504872,300L16.099228362136408,300L18.548556290448758,300L21.25666737785364,300L23.880947301045445,300L26.592703221676977,300L29.216983144868784,300L31.928739065500316,300L34.64049498613185,300L37.26477490932366,300L39.980175663181846,300L42.60445558637366,300L45.31621150700519,300L48.027967427636725,300L50.477295355949074,300L53.185406443353955,300L55.80968636654576,300L58.5214422871773,300L61.14572221036911,300L63.85747813100063,300L66.56923405163218,300L69.19351397482399,300L71.90891472868218,300L74.53319465187398,300L77.2449505725055,300L79.95670649313705,300L82.40603442144939,300L85.11414550885428,300L87.73842543204609,300L90.45018135267762,300L93.07446127586942,300L95.78621719650096,300L98.49797311713249,300L101.12225304032431,300L103.83765379418249,300L106.46193371737431,300L109.17368963800584,300L111.88544555863736,300L114.42224948438945,300L117.13036057179433,300L119.75464049498612,300L122.46639641561767,300L125.09067633880947,300L127.80243225944102,300L130.51418818007252,300L133.13846810326436,300L135.85386885712254,300L138.47814878031434,300L141.1899047009459,300L143.9016606215774,300L146.35098854988976,300L149.05909963729465,300L151.68337956048646,300L154.395135481118,300L157.0194154043098,300L159.73117132494133,300L162.44292724557286,300L165.06720716876467,300L167.78260792262284,300L170.40688784581468,300L173.11864376644618,300L175.83039968707772,300L178.27972761539007,299.97590535625L180.98783870279496,300L183.61211862598677,299.8864881125L186.3238745466183,300L188.9481544698101,299.9152369974L191.65991039044164,300L194.37166631107317,299.9396827312L196.99594623426498,299.9420225996L199.71134698812318,299.9097961393L202.33562691131496,299.90320582315L205.04738283194655,299.87913728195L207.75913875257805,299.97018787605L210.2084666808904,299.9471232399L212.91657776829527,299.86767025545L215.5408576914871,299.7024340892L218.2526136121186,299.0105840763L220.87689353531042,298.8688597078L223.58864945594195,298.83648774435L226.3004053765735,298.55796962125L228.92468529976531,298.9751224459L231.6400860536235,298.16645228265L234.26436597681533,297.6971018464L236.97612189744683,296.4718694092L239.68787781807836,296.84738118905L242.22468174383047,296.9296822346L244.93279283123533,295.2924802489L247.55707275442714,296.03923549275L250.26882867505867,295.9280939654L252.89310859825048,295.5001139212L255.60486451888204,293.95502315395L258.31662043951354,293.21270956865L260.94090036270535,290.9128554339L263.65630111656355,288.43531543975L266.28058103975536,286.04784129965L268.99233696038687,285.04992867335L271.7040928810184,285.317910422L274.1534208093308,282.63463164905L276.8615318967357,283.54464678855L279.48581181992745,280.83773425805L282.197567740559,280.0644723448L284.8218476637508,278.5136856042L287.5336035843823,277.9708134597L290.2453595050139,272.6918722552L292.8696394282057,275.96096843805L295.58504018206384,274.105475439L298.20932010525564,272.5349035601L300.9210760258872,273.01462494105L303.63283194651876,268.8329830064L306.08215987483106,265.1347345572L308.790270962236,264.79026298635L311.4145508854278,265.0977203602L314.1263068060593,262.5491440272L316.7505867292511,260.69620253165L319.46234264988266,256.05935171625L322.1740985705142,253.9823750402L324.79837849370597,256.0252611491L327.5137792475642,254.78444450425L330.138059170756,254.21433627915L332.84981509138754,251.0200504295L335.56157101201904,252.34657039715L338.0108989403314,249.01625107L340.71901002773626,250.97235431085L343.34328995092807,251.1137420269L346.0550458715596,245.07498232429998L348.67932579475143,246.39102074714998L351.391081715383,241.06924087445L354.1028376360145,240.68542926285L356.7271175592063,242.36664217005L359.4425183130645,246.7487835585L362.0667982362563,239.1171993912L364.7785541568878,240.46514823595L367.4903100775194,241.58400033325L370.0271140032715,241.57041200435L372.7352250906763,240.00219973605L375.35950501386816,241.28075041395002L378.0712609344997,245.2039256567L380.69554085769147,241.73498003150002L383.40729677832303,240.31807361925001L386.11905269895453,235.56209633215L388.74333262214634,239.67247378485L391.45873337600455,240.31690577075L394.08301329919635,239.3070520027L396.79476921982786,238.9765547804L399.5065251404594,241.81174350545L401.9558530687718,241.27954043895L404.6639641561767,239.9082874468L407.2882440793685,243.06939818855L410,243.81397418785" data-legend="vue.js" style="stroke: rgb(255, 127, 14); fill: none;"></path><path class="line" d="M2.7117559206315343,300L5.336035843823342,300L8.051436597681532,300L10.675716520873339,300L13.387472441504872,300L16.099228362136408,300L18.548556290448758,300L21.25666737785364,300L23.880947301045445,300L26.592703221676977,300L29.216983144868784,300L31.928739065500316,300L34.64049498613185,300L37.26477490932366,300L39.980175663181846,300L42.60445558637366,300L45.31621150700519,300L48.027967427636725,300L50.477295355949074,300L53.185406443353955,300L55.80968636654576,300L58.5214422871773,300L61.14572221036911,300L63.85747813100063,300L66.56923405163218,300L69.19351397482399,300L71.90891472868218,300L74.53319465187398,300L77.2449505725055,300L79.95670649313705,300L82.40603442144939,300L85.11414550885428,300L87.73842543204609,300L90.45018135267762,300L93.07446127586942,300L95.78621719650096,300L98.49797311713249,300L101.12225304032431,300L103.83765379418249,300L106.46193371737431,300L109.17368963800584,300L111.88544555863736,300L114.42224948438945,300L117.13036057179433,300L119.75464049498612,300L122.46639641561767,300L125.09067633880947,300L127.80243225944102,300L130.51418818007252,300L133.13846810326436,300L135.85386885712254,300L138.47814878031434,300L141.1899047009459,300L143.9016606215774,300L146.35098854988976,300L149.05909963729465,299.97072959415L151.68337956048646,300L154.395135481118,300L157.0194154043098,300L159.73117132494133,300L162.44292724557286,300L165.06720716876467,300L167.78260792262284,300L170.40688784581468,300L173.11864376644618,300L175.83039968707772,300L178.27972761539007,300L180.98783870279496,300L183.61211862598677,299.97162202815L186.3238745466183,300L188.9481544698101,299.9717456658L191.65991039044164,299.9693693142L194.37166631107317,300L196.99594623426498,299.9710112998L199.71134698812318,299.93986409285L202.33562691131496,299.9677352744L205.04738283194655,299.9697843205L207.75913875257805,299.91056362805L210.2084666808904,299.4447940186L212.91657776829527,299.6294767153L215.5408576914871,298.89089069595L218.2526136121186,298.39554174535L220.87689353531042,298.3547050295L223.58864945594195,298.00540756175L226.3004053765735,297.82281687915L228.92468529976531,296.7096036421L231.6400860536235,293.6813124817L234.26436597681533,287.2903342409L236.97612189744683,274.63635252414997L239.68787781807836,271.25239118125L242.22468174383047,265.65238012035L244.93279283123533,260.95828728155L247.55707275442714,250.13158244505L250.26882867505867,240.12385153125L252.89310859825048,233.21371610850002L255.60486451888204,226.4065662868L258.31662043951354,214.67406314825L260.94090036270535,202.7445477133L263.65630111656355,205.61261183515L266.28058103975536,198.57495323389998L268.99233696038687,196.4336661912L271.7040928810184,185.9691042774L274.1534208093308,187.100083574L276.8615318967357,183.59883937545L279.48581181992745,180.5669219834L282.197567740559,171.16841986205L284.8218476637508,161.99390753595L287.5336035843823,155.77278386385L290.2453595050139,156.33685415345L292.8696394282057,157.89997865835L295.58504018206384,148.2127408221L298.20932010525564,151.3694402253L300.9210760258872,148.56109451174999L303.63283194651876,153.6533937785L306.08215987483106,157.41711111375L308.790270962236,150.43624056885L311.4145508854278,146.41792393174998L314.1263068060593,143.26244382374998L316.7505867292511,146.9620253165L319.46234264988266,140.7310704961L322.1740985705142,147.35276454899997L324.79837849370597,149.96484531945L327.5137792475642,154.20084447194998L330.138059170756,149.93111217679999L332.84981509138754,152.5882178445L335.56157101201904,148.71927110195L338.0108989403314,151.57855933425L340.71901002773626,158.32814088479998L343.34328995092807,155.27007163335L346.0550458715596,147.28165816995L348.67932579475143,156.25025113514997L351.391081715383,159.33371710285L354.1028376360145,151.6210675883L356.7271175592063,159.54144901055L359.4425183130645,154.97975432989998L362.0667982362563,157.99086757995L364.7785541568878,171.44869284415L367.4903100775194,160.46802218629998L370.0271140032715,171.3453307895L372.7352250906763,178.18961724595L375.35950501386816,182.34855703969998L378.0712609344997,185.16860122830002L380.69554085769147,173.49851581849998L383.40729677832303,185.4946470257L386.11905269895453,183.42787006365L388.74333262214634,193.00176944909998L391.45873337600455,198.7524467901L394.08301329919635,197.90827217725L396.79476921982786,202.59604156065L399.5065251404594,203.84918309615L401.9558530687718,196.42132345605L404.6639641561767,205.25863061165L407.2882440793685,200.30231900805L410,196.6458201579" data-legend="angular" style="stroke: rgb(44, 160, 44); fill: none;"></path><path class="line" d="M2.7117559206315343,300L5.336035843823342,300L8.051436597681532,300L10.675716520873339,300L13.387472441504872,300L16.099228362136408,300L18.548556290448758,300L21.25666737785364,300L23.880947301045445,300L26.592703221676977,300L29.216983144868784,300L31.928739065500316,300L34.64049498613185,300L37.26477490932366,299.86114968065L39.980175663181846,300L42.60445558637366,300L45.31621150700519,300L48.027967427636725,300L50.477295355949074,300L53.185406443353955,300L55.80968636654576,300L58.5214422871773,300L61.14572221036911,300L63.85747813100063,300L66.56923405163218,300L69.19351397482399,300L71.90891472868218,300L74.53319465187398,300L77.2449505725055,300L79.95670649313705,300L82.40603442144939,299.9502299377L85.11414550885428,300L87.73842543204609,299.94999299905L90.45018135267762,300L93.07446127586942,299.90038054635L95.78621719650096,299.9532522416L98.49797311713249,299.9018135046L101.12225304032431,299.8517742621L103.83765379418249,299.9540352458L106.46193371737431,299.9517197428L109.17368963800584,299.95689432215L111.88544555863736,299.87866237405L114.42224948438945,299.73778253935L117.13036057179433,299.6114271504L119.75464049498612,298.7329601777L122.46639641561767,297.24061810155L125.09067633880947,296.6417567501L127.80243225944102,293.78815845525L130.51418818007252,292.9025793621L133.13846810326436,290.3845509552L135.85386885712254,289.7207295229L138.47814878031434,287.3137871684L141.1899047009459,280.5260205513L143.9016606215774,277.72499721155L146.35098854988976,273.2070083761L149.05909963729465,267.21714543295L151.68337956048646,263.03876715629997L154.395135481118,260.30791436135L157.0194154043098,252.7932770822L159.73117132494133,243.34660932695002L162.44292724557286,240.42152076185L165.06720716876467,239.60165335045002L167.78260792262284,238.2313403629L170.40688784581468,234.6397325127L173.11864376644618,223.75835797015L175.83039968707772,218.85502523805L178.27972761539007,215.64465219385L180.98783870279496,209.24516659814998L183.61211862598677,196.36364668290003L186.3238745466183,187.23169823400002L188.9481544698101,177.26317217064997L191.65991039044164,170.0340000613L194.37166631107317,171.97659689969998L196.99594623426498,170.85534058824996L199.71134698812318,173.5943231704L202.33562691131496,165.68194724075L205.04738283194655,159.5273059096L207.75913875257805,162.17855077304998L210.2084666808904,159.71795536144998L212.91657776829527,158.27484358624997L215.5408576914871,144.40008007229997L218.2526136121186,139.76810230029997L220.87689353531042,131.35726551980002L223.58864945594195,131.23531758345L226.3004053765735,133.1768777498L228.92468529976531,136.1814141153L231.6400860536235,136.92708685940002L234.26436597681533,134.24963415989998L236.97612189744683,128.5384093965L239.68787781807836,135.55619676619997L242.22468174383047,139.6695040064L244.93279283123533,140.2257562733L247.55707275442714,135.10991786069997L250.26882867505867,134.69154628585002L252.89310859825048,136.60856687175L255.60486451888204,139.00396528299999L258.31662043951354,150.76775713845L260.94090036270535,169.415432042L263.65630111656355,171.11993325855L266.28058103975536,168.77513097629998L268.99233696038687,175.63480741799998L271.7040928810184,186.86154501644995L274.1534208093308,188.4012350931L276.8615318967357,196.5542546826L279.48581181992745,200.94541051574998L282.197567740559,207.50480714855L284.8218476637508,214.8401429429L287.5336035843823,222.2014405667L290.2453595050139,222.1189614203L292.8696394282057,234.4928979631L295.58504018206384,237.53095111665L298.20932010525564,240.4229347427L300.9210760258872,243.7961943702L303.63283194651876,249.69129497970002L306.08215987483106,258.16168146865L308.790270962236,258.39413792035L311.4145508854278,259.4964917036L314.1263068060593,263.66122184645L316.7505867292511,268.03797468355L319.46234264988266,270.8972807744L322.1740985705142,271.300085192L324.79837849370597,273.50843712335L327.5137792475642,275.02218755885L330.138059170756,275.2993385247L332.84981509138754,275.4594609172L335.56157101201904,277.41103661684997L338.0108989403314,280.84985410905L340.71901002773626,281.1432131965L343.34328995092807,282.93969364615L346.0550458715596,283.55226435459997L348.67932579475143,285.40067773005L351.391081715383,286.71567108005L354.1028376360145,288.1222849616L356.7271175592063,288.1820168034L359.4425183130645,289.48586205725L362.0667982362563,288.39421613395L364.7785541568878,288.525885465L367.4903100775194,290.1772264375L370.0271140032715,290.3315629351L372.7352250906763,290.45864496265L375.35950501386816,291.7750461822L378.0712609344997,290.6017575794L380.69554085769147,289.33645037095L383.40729677832303,290.74297673670003L386.11905269895453,289.2454538955L388.74333262214634,290.9152445759L391.45873337600455,292.87643400485L394.08301329919635,294.0001768369L396.79476921982786,293.7120100608L399.5065251404594,293.510134901L401.9558530687718,292.6530114336L404.6639641561767,293.18516364695L407.2882440793685,292.99504737565L410,292.1532803973" data-legend="angularjs" style="stroke: rgb(214, 39, 40); fill: none;"></path></g></g><g transform="translate(20, 150)"><text transform="rotate(-90)" x="-50" y="0" dy="1em" class="axis-label y-axis-label" style="text-anchor: middle; font-weight: bold;">% of Stack Overflow questions that month</text></g><g class="legend" transform="translate(530, 30)" style="font-size: 12px;"><text class="legend-title" style="font-weight: bold;">Tag</text><g class="legend-items" transform="translate(0,20)"><text y="0em" x="1em">reactjs</text><text y="1em" x="1em">angularjs</text><text y="2em" x="1em">angular</text><text y="3em" x="1em">vue.js</text><circle cy="-0.25em" cx="0" r="0.4em" style="fill: rgb(31, 119, 180);"></circle><circle cy="0.75em" cx="0" r="0.4em" style="fill: rgb(214, 39, 40);"></circle><circle cy="1.75em" cx="0" r="0.4em" style="fill: rgb(44, 160, 44);"></circle><circle cy="2.75em" cx="0" r="0.4em" style="fill: rgb(255, 127, 14);"></circle></g><rect class="legend-box"></rect></g></svg>
        