
            <svg id="trend-chart" width="660" height="400" title="Stack Overflow Trends Chart" version="1.1" xmlns="http://www.w3.org/2000/svg"><g></g><g class="chart-area" transform="translate(100, 20)"><g transform="translate(0,300)" fill="none" font-size="10" font-family="sans-serif" text-anchor="middle"><path class="domain" stroke="#000" d="M0.5,6V0.5H410.5V6"></path><g class="tick" opacity="1" transform="translate(13.387472441504872,0)"><line stroke="#000" y2="6" x1="0.5" x2="0.5"></line><text fill="#000" y="9" x="0.5" dy="0.71em" style="font-size: 12px;">2009</text></g><g class="tick" opacity="1" transform="translate(45.31621150700519,0)"><line stroke="#000" y2="6" x1="0.5" x2="0.5"></line><text fill="#000" y="9" x="0.5" dy="0.71em" style="font-size: 12px;">2010</text></g><g class="tick" opacity="1" transform="translate(77.2449505725055,0)"><line stroke="#000" y2="6" x1="0.5" x2="0.5"></line><text fill="#000" y="9" x="0.5" dy="0.71em" style="font-size: 12px;">2011</text></g><g class="tick" opacity="1" transform="translate(109.17368963800584,0)"><line stroke="#000" y2="6" x1="0.5" x2="0.5"></line><text fill="#000" y="9" x="0.5" dy="0.71em" style="font-size: 12px;">2012</text></g><g class="tick" opacity="1" transform="translate(141.1899047009459,0)"><line stroke="#000" y2="6" x1="0.5" x2="0.5"></line><text fill="#000" y="9" x="0.5" dy="0.71em" style="font-size: 12px;">2013</text></g><g class="tick" opacity="1" transform="translate(173.11864376644618,0)"><line stroke="#000" y2="6" x1="0.5" x2="0.5"></line><text fill="#000" y="9" x="0.5" dy="0.71em" style="font-size: 12px;">2014</text></g><g class="tick" opacity="1" transform="translate(205.04738283194655,0)"><line stroke="#000" y2="6" x1="0.5" x2="0.5"></line><text fill="#000" y="9" x="0.5" dy="0.71em" style="font-size: 12px;">2015</text></g><g class="tick" opacity="1" transform="translate(236.97612189744683,0)"><line stroke="#000" y2="6" x1="0.5" x2="0.5"></line><text fill="#000" y="9" x="0.5" dy="0.71em" style="font-size: 12px;">2016</text></g><g class="tick" opacity="1" transform="translate(268.99233696038687,0)"><line stroke="#000" y2="6" x1="0.5" x2="0.5"></line><text fill="#000" y="9" x="0.5" dy="0.71em" style="font-size: 12px;">2017</text></g><g class="tick" opacity="1" transform="translate(300.9210760258872,0)"><line stroke="#000" y2="6" x1="0.5" x2="0.5"></line><text fill="#000" y="9" x="0.5" dy="0.71em" style="font-size: 12px;">2018</text></g><g class="tick" opacity="1" transform="translate(332.84981509138754,0)"><line stroke="#000" y2="6" x1="0.5" x2="0.5"></line><text fill="#000" y="9" x="0.5" dy="0.71em" style="font-size: 12px;">2019</text></g><g class="tick" opacity="1" transform="translate(364.7785541568878,0)"><line stroke="#000" y2="6" x1="0.5" x2="0.5"></line><text fill="#000" y="9" x="0.5" dy="0.71em" style="font-size: 12px;">2020</text></g><g class="tick" opacity="1" transform="translate(396.79476921982786,0)"><line stroke="#000" y2="6" x1="0.5" x2="0.5"></line><text fill="#000" y="9" x="0.5" dy="0.71em" style="font-size: 12px;">2021</text></g></g><g class="grid-lines" transform="translate(0,300)" fill="none" font-size="10" font-family="sans-serif" text-anchor="middle"><path class="domain" stroke="#000" d="M0.5,-300V0.5H410.5V-300"></path><g class="tick" opacity="1" transform="translate(13.387472441504872,0)"><line stroke="#000" y2="-300" x1="0.5" x2="0.5" style="stroke: #ccc; fill: none;"></line></g><g class="tick" opacity="1" transform="translate(45.31621150700519,0)"><line stroke="#000" y2="-300" x1="0.5" x2="0.5" style="stroke: #ccc; fill: none;"></line></g><g class="tick" opacity="1" transform="translate(77.2449505725055,0)"><line stroke="#000" y2="-300" x1="0.5" x2="0.5" style="stroke: #ccc; fill: none;"></line></g><g class="tick" opacity="1" transform="translate(109.17368963800584,0)"><line stroke="#000" y2="-300" x1="0.5" x2="0.5" style="stroke: #ccc; fill: none;"></line></g><g class="tick" opacity="1" transform="translate(141.1899047009459,0)"><line stroke="#000" y2="-300" x1="0.5" x2="0.5" style="stroke: #ccc; fill: none;"></line></g><g class="tick" opacity="1" transform="translate(173.11864376644618,0)"><line stroke="#000" y2="-300" x1="0.5" x2="0.5" style="stroke: #ccc; fill: none;"></line></g><g class="tick" opacity="1" transform="translate(205.04738283194655,0)"><line stroke="#000" y2="-300" x1="0.5" x2="0.5" style="stroke: #ccc; fill: none;"></line></g><g class="tick" opacity="1" transform="translate(236.97612189744683,0)"><line stroke="#000" y2="-300" x1="0.5" x2="0.5" style="stroke: #ccc; fill: none;"></line></g><g class="tick" opacity="1" transform="translate(268.99233696038687,0)"><line stroke="#000" y2="-300" x1="0.5" x2="0.5" style="stroke: #ccc; fill: none;"></line></g><g class="tick" opacity="1" transform="translate(300.9210760258872,0)"><line stroke="#000" y2="-300" x1="0.5" x2="0.5" style="stroke: #ccc; fill: none;"></line></g><g class="tick" opacity="1" transform="translate(332.84981509138754,0)"><line stroke="#000" y2="-300" x1="0.5" x2="0.5" style="stroke: #ccc; fill: none;"></line></g><g class="tick" opacity="1" transform="translate(364.7785541568878,0)"><line stroke="#000" y2="-300" x1="0.5" x2="0.5" style="stroke: #ccc; fill: none;"></line></g><g class="tick" opacity="1" transform="translate(396.79476921982786,0)"><line stroke="#000" y2="-300" x1="0.5" x2="0.5" style="stroke: #ccc; fill: none;"></line></g></g><text x="205" y="360" class="axis-label x-axis-label" style="text-anchor: middle; font-weight: bold;">Year</text><g fill="none" font-size="10" font-family="sans-serif" text-anchor="end"><path class="domain" stroke="#000" d="M-6,300.5H0.5V0.5H-6"></path><g class="tick" opacity="1" transform="translate(0,300)"><line stroke="#000" x2="-6" y1="0.5" y2="0.5"></line><text fill="#000" x="-9" y="0.5" dy="0.32em" style="font-size: 12px;">0.00%</text></g><g class="tick" opacity="1" transform="translate(0,262.5)"><line stroke="#000" x2="-6" y1="0.5" y2="0.5"></line><text fill="#000" x="-9" y="0.5" dy="0.32em" style="font-size: 12px;">0.50%</text></g><g class="tick" opacity="1" transform="translate(0,225)"><line stroke="#000" x2="-6" y1="0.5" y2="0.5"></line><text fill="#000" x="-9" y="0.5" dy="0.32em" style="font-size: 12px;">1.00%</text></g><g class="tick" opacity="1" transform="translate(0,187.5)"><line stroke="#000" x2="-6" y1="0.5" y2="0.5"></line><text fill="#000" x="-9" y="0.5" dy="0.32em" style="font-size: 12px;">1.50%</text></g><g class="tick" opacity="1" transform="translate(0,150)"><line stroke="#000" x2="-6" y1="0.5" y2="0.5"></line><text fill="#000" x="-9" y="0.5" dy="0.32em" style="font-size: 12px;">2.00%</text></g><g class="tick" opacity="1" transform="translate(0,112.5)"><line stroke="#000" x2="-6" y1="0.5" y2="0.5"></line><text fill="#000" x="-9" y="0.5" dy="0.32em" style="font-size: 12px;">2.50%</text></g><g class="tick" opacity="1" transform="translate(0,75)"><line stroke="#000" x2="-6" y1="0.5" y2="0.5"></line><text fill="#000" x="-9" y="0.5" dy="0.32em" style="font-size: 12px;">3.00%</text></g><g class="tick" opacity="1" transform="translate(0,37.49999999999994)"><line stroke="#000" x2="-6" y1="0.5" y2="0.5"></line><text fill="#000" x="-9" y="0.5" dy="0.32em" style="font-size: 12px;">3.50%</text></g><g class="tick" opacity="1" transform="translate(0,0)"><line stroke="#000" x2="-6" y1="0.5" y2="0.5"></line><text fill="#000" x="-9" y="0.5" dy="0.32em" style="font-size: 12px;">4.00%</text></g></g><g class="grid-lines" fill="none" font-size="10" font-family="sans-serif" text-anchor="end"><path class="domain" stroke="#000" d="M410,300.5H0.5V0.5H410"></path><g class="tick" opacity="1" transform="translate(0,300)"><line stroke="#000" x2="410" y1="0.5" y2="0.5" style="stroke: #ccc; fill: none;"></line></g><g class="tick" opacity="1" transform="translate(0,262.5)"><line stroke="#000" x2="410" y1="0.5" y2="0.5" style="stroke: #ccc; fill: none;"></line></g><g class="tick" opacity="1" transform="translate(0,225)"><line stroke="#000" x2="410" y1="0.5" y2="0.5" style="stroke: #ccc; fill: none;"></line></g><g class="tick" opacity="1" transform="translate(0,187.5)"><line stroke="#000" x2="410" y1="0.5" y2="0.5" style="stroke: #ccc; fill: none;"></line></g><g class="tick" opacity="1" transform="translate(0,150)"><line stroke="#000" x2="410" y1="0.5" y2="0.5" style="stroke: #ccc; fill: none;"></line></g><g class="tick" opacity="1" transform="translate(0,112.5)"><line stroke="#000" x2="410" y1="0.5" y2="0.5" style="stroke: #ccc; fill: none;"></line></g><g class="tick" opacity="1" transform="translate(0,75)"><line stroke="#000" x2="410" y1="0.5" y2="0.5" style="stroke: #ccc; fill: none;"></line></g><g class="tick" opacity="1" transform="translate(0,37.49999999999994)"><line stroke="#000" x2="410" y1="0.5" y2="0.5" style="stroke: #ccc; fill: none;"></line></g><g class="tick" opacity="1" transform="translate(0,0)"><line stroke="#000" x2="410" y1="0.5" y2="0.5" style="stroke: #ccc; fill: none;"></line></g></g><g class="lines"><path class="line" d="M2.7117559206315343,300L5.336035843823342,300L8.051436597681532,300L10.675716520873339,300L13.387472441504872,300L16.099228362136408,300L18.548556290448758,300L21.25666737785364,300L23.880947301045445,300L26.592703221676977,300L29.216983144868784,300L31.928739065500316,300L34.64049498613185,300L37.26477490932366,300L39.980175663181846,300L42.60445558637366,300L45.31621150700519,300L48.027967427636725,300L50.477295355949074,300L53.185406443353955,300L55.80968636654576,300L58.5214422871773,300L61.14572221036911,300L63.85747813100063,300L66.56923405163218,300L69.19351397482399,300L71.90891472868218,300L74.53319465187398,300L77.2449505725055,300L79.95670649313705,300L82.40603442144939,300L85.11414550885428,300L87.73842543204609,300L90.45018135267762,300L93.07446127586942,300L95.78621719650096,299.859756724725L98.49797311713249,299.92636012845L101.12225304032431,300L103.83765379418249,300L106.46193371737431,300L109.17368963800584,299.935341483225L111.88544555863736,300L114.42224948438945,299.9438105442L117.13036057179433,300L119.75464049498612,299.888202368625L122.46639641561767,299.252667402525L125.09067633880947,299.469751065825L127.80243225944102,298.881868521975L130.51418818007252,298.064339826075L133.13846810326436,298.3415863146L135.85386885712254,296.743201433025L138.47814878031434,295.7712623895L141.1899047009459,290.5339248834L143.9016606215774,291.38852984985L146.35098854988976,290.9822940813L149.05909963729465,290.121238021125L151.68337956048646,283.701541054725L154.395135481118,271.89268576785L157.0194154043098,279.798924877575L159.73117132494133,279.4830010413L162.44292724557286,278.791028181975L165.06720716876467,283.216646479575L167.78260792262284,284.855617885125L170.40688784581468,281.317000320525L173.11864376644618,278.02555869922503L175.83039968707772,275.40093284775L178.27972761539007,271.014143555925L180.98783870279496,266.3332990539L183.61211862598677,265.3504963308L186.3238745466183,263.759641012725L188.9481544698101,263.297619854925L191.65991039044164,258.326951940525L194.37166631107317,258.0191808915L196.99594623426498,257.12571239737497L199.71134698812318,253.6803175176L202.33562691131496,252.086882453175L205.04738283194655,250.64268750345L207.75913875257805,247.4561314596L210.2084666808904,254.4334519536L212.91657776829527,252.08339949825L215.5408576914871,255.2839590333L218.2526136121186,254.834500131075L220.87689353531042,248.90587884465L223.58864945594195,247.06019236740002L226.3004053765735,250.92855446355L228.92468529976531,247.28623211865L231.6400860536235,247.1092004604L234.26436597681533,236.33506876635L236.97612189744683,236.36863686375L239.68787781807836,238.1231765574L242.22468174383047,233.72606774669998L244.93279283123533,233.877256539375L247.55707275442714,221.17015338L250.26882867505867,228.058438683675L252.89310859825048,229.85304169515L255.60486451888204,225.00623908162498L258.31662043951354,228.82159709939998L260.94090036270535,225.11732768939999L263.65630111656355,219.91024423927502L266.28058103975536,215.68110772065L268.99233696038687,211.49786019975L271.7040928810184,214.4984195163L274.1534208093308,213.78620078775L276.8615318967357,214.51966174800003L279.48581181992745,212.391418332L282.197567740559,213.64099083817501L284.8218476637508,212.65224147704998L287.5336035843823,207.989062153575L290.2453595050139,208.69816743180002L292.8696394282057,204.14028597855003L295.58504018206384,206.0726836632L298.20932010525564,201.115249370625L300.9210760258872,192.388740368025L303.63283194651876,191.327266856925L306.08215987483106,197.37358058985L308.790270962236,193.11329835135L311.4145508854278,196.24175625622502L314.1263068060593,193.82927642985L316.7505867292511,190.395569620275L319.46234264988266,183.98713621605L322.1740985705142,182.7388517241L324.79837849370597,188.839016673375L327.5137792475642,192.239060861175L330.138059170756,183.88024936635L332.84981509138754,184.106629990725L335.56157101201904,189.73697782365L338.0108989403314,188.332469025525L340.71901002773626,185.678680352925L343.34328995092807,185.16717769995L346.0550458715596,181.777248539475L348.67932579475143,176.24060754615002L351.391081715383,172.636496479725L354.1028376360145,167.23600760767502L356.7271175592063,177.99670288200002L359.4425183130645,171.53356698090002L362.0667982362563,170.6050228311L364.7785541568878,171.534576935025L367.4903100775194,173.64025740532503L370.0271140032715,180.401433507L372.7352250906763,181.13176418835L375.35950501386816,184.53123086835L378.0712609344997,188.27434225807502L380.69554085769147,183.572494194075L383.40729677832303,185.595266843775L386.11905269895453,182.876736814575L388.74333262214634,189.914140154625L391.45873337600455,189.2904928269L394.08301329919635,187.645416766725L396.79476921982786,191.666916190125L399.5065251404594,189.9873353118L401.9558530687718,194.5776451932L404.6639641561767,187.69149690157502L407.2882440793685,190.778041317L410,180.84990513667498" data-legend="laravel" style="stroke: rgb(31, 119, 180); fill: none;"></path><path class="line" d="M2.7117559206315343,270.873786407775L5.336035843823342,264.1421840355L8.051436597681532,255.1864244742L10.675716520873339,247.31119846117502L13.387472441504872,229.89317054565L16.099228362136408,238.856355494325L18.548556290448758,225.56290736722502L21.25666737785364,226.1398608021L23.880947301045445,215.736934820925L26.592703221676977,219.415292353875L29.216983144868784,208.4340351315L31.928739065500316,213.482002405875L34.64049498613185,205.545026594175L37.26477490932366,212.94084976402502L39.980175663181846,211.88965227885L42.60445558637366,186.011539077975L45.31621150700519,187.68578922592502L48.027967427636725,181.1022913809L50.477295355949074,206.16686586735L53.185406443353955,210.8346241275L55.80968636654576,213.858221964L58.5214422871773,206.93915148015L61.14572221036911,211.0377686238L63.85747813100063,210.887803953225L66.56923405163218,211.07840557785L69.19351397482399,219.251867965575L71.90891472868218,210.53247259657502L74.53319465187398,214.884850587675L77.2449505725055,211.88112591105L79.95670649313705,208.016724231975L82.40603442144939,214.7438832594L85.11414550885428,218.18382260302502L87.73842543204609,208.862240713725L90.45018135267762,211.09750172092498L93.07446127586942,216.170229722475L95.78621719650096,222.445468739775L98.49797311713249,224.7400512534L101.12225304032431,228.99987153772503L103.83765379418249,223.8134198697L106.46193371737431,227.869295687625L109.17368963800584,221.05195096305L111.88544555863736,227.561437284675L114.42224948438945,222.795687646575L117.13036057179433,221.139140166L119.75464049498612,223.083229610025L122.46639641561767,226.071559970625L125.09067633880947,221.947356885825L127.80243225944102,213.90387618915L130.51418818007252,221.60576295375L133.13846810326436,225.522149036175L135.85386885712254,229.1646311676L138.47814878031434,229.89198172005L141.1899047009459,228.43073510295L143.9016606215774,220.67605781662502L146.35098854988976,223.566271467675L149.05909963729465,224.877503351475L151.68337956048646,221.53262701665L154.395135481118,218.05198587044998L157.0194154043098,221.74741426244998L159.73117132494133,216.29946876420001L162.44292724557286,228.668970851325L165.06720716876467,229.2817919625L167.78260792262284,224.74603381679998L170.40688784581468,229.9840982883L173.11864376644618,223.82458594275L175.83039968707772,231.35422656704998L178.27972761539007,223.921162325625L180.98783870279496,229.697141094225L183.61211862598677,227.423336909025L186.3238745466183,221.14836541365L188.9481544698101,223.670916118575L191.65991039044164,223.82148436305L194.37166631107317,225.67404547927498L196.99594623426498,227.1658907358L199.71134698812318,224.860184015925L202.33562691131496,220.96755459195L205.04738283194655,218.64428289134997L207.75913875257805,224.649856603725L210.2084666808904,227.54561942482502L212.91657776829527,230.24899164735L215.5408576914871,222.051257080725L218.2526136121186,220.05786746107503L220.87689353531042,215.472970888575L223.58864945594195,219.38522228625L226.3004053765735,217.549792460775L228.92468529976531,219.61453815787502L231.6400860536235,222.82174531177498L234.26436597681533,214.9530966693L236.97612189744683,214.7831449812L239.68787781807836,219.087236702925L242.22468174383047,218.52425051797502L244.93279283123533,223.13183102055L247.55707275442714,219.85432892955L250.26882867505867,222.27851837280002L252.89310859825048,218.19036226935L255.60486451888204,215.356459529175L258.31662043951354,216.965875501725L260.94090036270535,220.54499861969998L263.65630111656355,223.232933459925L266.28058103975536,221.83373004285L268.99233696038687,215.39229671902498L271.7040928810184,207.373287809325L274.1534208093308,213.110602883625L276.8615318967357,214.7313515406L279.48581181992745,208.8643722399L282.197567740559,211.64743807267502L284.8218476637508,205.162886459175L287.5336035843823,200.015917863825L290.2453595050139,191.48284999815002L292.8696394282057,206.585686846425L295.58504018206384,205.177711616175L298.20932010525564,198.2022845967L300.9210760258872,193.709702783475L303.63283194651876,194.3418356253L306.08215987483106,200.56834759065L308.790270962236,196.37345918594997L311.4145508854278,187.29785888520001L314.1263068060593,183.918700569825L316.7505867292511,185.98101265830002L319.46234264988266,184.22594408715L322.1740985705142,187.39996927507502L324.79837849370597,201.221625150675L327.5137792475642,196.3235887368L330.138059170756,188.67575529225002L332.84981509138754,185.67412321515L335.56157101201904,181.53687467767503L338.0108989403314,179.80393749495L340.71901002773626,175.29924900802501L343.34328995092807,178.1834265609L346.0550458715596,183.50760986865L348.67932579475143,177.69719130472498L351.391081715383,172.470442368225L354.1028376360145,170.95473147487502L356.7271175592063,180.876715593825L359.4425183130645,175.4125693287L362.0667982362563,167.751141552525L364.7785541568878,167.61826239307499L367.4903100775194,167.8090702728L370.0271140032715,159.082529778825L372.7352250906763,160.59172899255L375.35950501386816,155.703965545725L378.0712609344997,156.63629341965L380.69554085769147,137.2014334272L383.40729677832303,143.37806602965L386.11905269895453,150.255606663675L388.74333262214634,151.971926324475L391.45873337600455,159.929012116275L394.08301329919635,148.520254139925L396.79476921982786,146.39338862775L399.5065251404594,157.191463622175L401.9558530687718,160.55970190635L404.6639641561767,153.844476348L407.2882440793685,143.1720145998L410,152.21523434760002" data-legend="django" style="stroke: rgb(255, 127, 14); fill: none;"></path><path class="line" d="M2.7117559206315343,300L5.336035843823342,300L8.051436597681532,300L10.675716520873339,300L13.387472441504872,300L16.099228362136408,300L18.548556290448758,300L21.25666737785364,300L23.880947301045445,300L26.592703221676977,300L29.216983144868784,300L31.928739065500316,300L34.64049498613185,300L37.26477490932366,300L39.980175663181846,300L42.60445558637366,300L45.31621150700519,300L48.027967427636725,300L50.477295355949074,299.8554188997L53.185406443353955,300L55.80968636654576,300L58.5214422871773,300L61.14572221036911,300L63.85747813100063,300L66.56923405163218,300L69.19351397482399,299.64532299255L71.90891472868218,300L74.53319465187398,299.241011406525L77.2449505725055,298.492083438075L79.95670649313705,299.000181785175L82.40603442144939,297.835002289425L85.11414550885428,296.535214816725L87.73842543204609,296.3994959295L90.45018135267762,297.039114062475L93.07446127586942,297.160845569925L95.78621719650096,294.390268986675L98.49797311713249,293.814250788L101.12225304032431,293.848631876475L103.83765379418249,295.03580654355L106.46193371737431,293.6994264306L109.17368963800584,291.594392813475L111.88544555863736,293.690443448625L114.42224948438945,293.48202312015L117.13036057179433,290.149678261725L119.75464049498612,291.4474811994L122.46639641561767,290.514624724125L125.09067633880947,289.76619556995L127.80243225944102,288.605707794975L130.51418818007252,289.296937861575L133.13846810326436,290.351047648425L135.85386885712254,288.7029799707L138.47814878031434,286.924298178L141.1899047009459,287.474183431575L143.9016606215774,288.92810980695L146.35098854988976,286.820275964925L149.05909963729465,289.023597801225L151.68337956048646,288.66783048405L154.395135481118,288.6526214502L157.0194154043098,287.4965977137L159.73117132494133,284.42472982275L162.44292724557286,284.77304587425L165.06720716876467,285.98671453635L167.78260792262284,284.430213893175L170.40688784581468,280.863529454475L173.11864376644618,282.5158152399L175.83039968707772,283.866845568975L178.27972761539007,283.4831217021L180.98783870279496,282.915981077775L183.61211862598677,279.610427202L186.3238745466183,280.28709135345L188.9481544698101,279.4025903574L191.65991039044164,277.44049989284997L194.37166631107317,282.764340430725L196.99594623426498,281.0413900662L199.71134698812318,279.298213963575L202.33562691131496,279.3828403284L205.04738283194655,277.020975724725L207.75913875257805,278.8482980259L210.2084666808904,278.703884855625L212.91657776829527,279.8726458539L215.5408576914871,276.5463959358L218.2526136121186,274.930339770825L220.87689353531042,275.821876253325L223.58864945594195,274.568946411975L226.3004053765735,274.679643055125L228.92468529976531,276.29296394595L231.6400860536235,277.066549319625L234.26436597681533,274.77014744385L236.97612189744683,271.87218721875L239.68787781807836,272.46801962107503L242.22468174383047,273.640198697025L244.93279283123533,272.637541446675L247.55707275442714,272.208192668625L250.26882867505867,269.9936051946L252.89310859825048,267.831510594675L255.60486451888204,270.634722568875L258.31662043951354,267.253527334275L260.94090036270535,267.4760743536L263.65630111656355,265.305946319175L266.28058103975536,269.143666838625L268.99233696038687,266.191155492225L271.7040928810184,265.92891565575L274.1534208093308,266.520370527975L276.8615318967357,266.7647025618L279.48581181992745,268.216044411075L282.197567740559,268.48489989825L284.8218476637508,267.391853152575L287.5336035843823,266.487211701975L290.2453595050139,265.476057179175L292.8696394282057,265.586540513625L295.58504018206384,263.7088834926L298.20932010525564,264.732319344225L300.9210760258872,259.7106463281L303.63283194651876,258.685582124775L306.08215987483106,260.6999894967L308.790270962236,260.08631663925L311.4145508854278,259.07489384775L314.1263068060593,261.191754924225L316.7505867292511,260.31645569625L319.46234264988266,261.93402534555L322.1740985705142,259.2021284025L324.79837849370597,259.08560164725L327.5137792475642,261.070919506275L330.138059170756,259.4094676989L332.84981509138754,258.031633024575L335.56157101201904,256.52398143375L338.0108989403314,258.341403677625L340.71901002773626,259.712065064175L343.34328995092807,255.75294814072498L346.0550458715596,256.126967588325L348.67932579475143,256.7545304778L351.391081715383,255.331444006575L354.1028376360145,257.706453928575L356.7271175592063,259.3818896856L359.4425183130645,258.096566742675L362.0667982362563,253.367579908725L364.7785541568878,249.96392868187502L367.4903100775194,254.9124280647L370.0271140032715,250.11086474505L372.7352250906763,248.36119665645L375.35950501386816,244.5015252099L378.0712609344997,249.03884066745L380.69554085769147,245.93887940452498L383.40729677832303,241.78424811127502L386.11905269895453,246.689029767225L388.74333262214634,248.742384837375L391.45873337600455,250.150524046725L394.08301329919635,241.2648890349L396.79476921982786,243.857232685575L399.5065251404594,246.175075137525L401.9558530687718,246.85216195537498L404.6639641561767,246.344521780275L407.2882440793685,242.39348170725L410,245.76101468625" data-legend="express" style="stroke: rgb(44, 160, 44); fill: none;"></path><path class="line" d="M2.7117559206315343,178.64077669905L5.336035843823342,182.0329822617L8.051436597681532,202.007648183625L10.675716520873339,191.4861587355L13.387472441504872,173.140022892075L16.099228362136408,187.18566999659998L18.548556290448758,165.198498913725L21.25666737785364,165.063207234525L23.880947301045445,146.44744568414998L26.592703221676977,138.5628614265L29.216983144868784,146.53357418715L31.928739065500316,132.05329878787498L34.64049498613185,138.14269120260002L37.26477490932366,137.75340183285L39.980175663181846,140.4966696387L42.60445558637366,129.317805438375L45.31621150700519,122.61752639722502L48.027967427636725,121.40046322327501L50.477295355949074,130.98469368090002L53.185406443353955,126.49715354752499L55.80968636654576,111.73736199884999L58.5214422871773,117.67117597125002L61.14572221036911,116.616209241225L63.85747813100063,121.183106602875L66.56923405163218,97.86061961459998L69.19351397482399,70.76042750407501L71.90891472868218,95.936051297625L74.53319465187398,83.90510474047497L77.2449505725055,86.25282734362497L79.95670649313705,87.31139792767499L82.40603442144939,86.03850212024997L85.11414550885428,105.65704926299998L87.73842543204609,105.94783269660002L90.45018135267762,109.5163380168L93.07446127586942,107.23635711584998L95.78621719650096,98.82102153202501L98.49797311713249,106.69533712335001L101.12225304032431,107.158314969825L103.83765379418249,117.56589047519998L106.46193371737431,121.99069156642503L109.17368963800584,115.85254409715L111.88544555863736,117.872223390675L114.42224948438945,114.85574293702501L117.13036057179433,120.47934346732504L119.75464049498612,122.29766492017501L122.46639641561767,125.23914643124999L125.09067633880947,118.07159067614998L127.80243225944102,121.63140707092501L130.51418818007252,136.32285293542498L133.13846810326436,133.85710169594998L135.85386885712254,136.49853444067503L138.47814878031434,135.802569885525L141.1899047009459,135.29985466230002L143.9016606215774,138.20277797827498L146.35098854988976,135.8604105369L149.05909963729465,139.964055941625L151.68337956048646,142.74921743325L154.395135481118,139.617386019825L157.0194154043098,137.370713119275L159.73117132494133,119.31804142822503L162.44292724557286,124.39152607919999L165.06720716876467,133.71444400395L167.78260792262284,143.0259269553L170.40688784581468,132.98668004910002L173.11864376644618,138.66865880415L175.83039968707772,146.774966455875L178.27972761539007,148.09531841077498L180.98783870279496,148.866207322125L183.61211862598677,135.2658732186L186.3238745466183,134.7716626554L188.9481544698101,140.26412151629998L191.65991039044164,138.22403283615003L194.37166631107317,161.93377163887502L196.99594623426498,163.202323734225L199.71134698812318,160.7252390403L202.33562691131496,155.341102679325L205.04738283194655,155.32732645627502L207.75913875257805,161.55249616920003L210.2084666808904,160.524325953525L212.91657776829527,164.34877886115L215.5408576914871,156.356819399175L218.2526136121186,153.11184678495L220.87689353531042,152.694684669L223.58864945594195,150.654891183975L226.3004053765735,160.419941866425L228.92468529976531,169.69221308827503L231.6400860536235,174.07758445605003L234.26436597681533,168.12264244447502L236.97612189744683,159.77764443112503L239.68787781807836,167.91061524165L242.22468174383047,174.52884351367499L244.93279283123533,167.946395677275L247.55707275442714,179.34288524422502L250.26882867505867,172.92373784580002L252.89310859825048,176.281613123775L255.60486451888204,180.04325763255002L258.31662043951354,180.869830934775L260.94090036270535,193.5855111807L263.65630111656355,194.92534737210002L266.28058103975536,193.261324864725L268.99233696038687,194.293865905875L271.7040928810184,201.629999827275L274.1534208093308,207.14282139697502L276.8615318967357,212.10639811229998L279.48581181992745,211.74276617715L282.197567740559,214.616559212775L284.8218476637508,211.979041026L287.5336035843823,216.6870377424L290.2453595050139,221.38804911735002L292.8696394282057,219.56854236330003L295.58504018206384,224.95659385575L298.20932010525564,222.28626120975002L300.9210760258872,219.987419405625L303.63283194651876,227.600930398125L306.08215987483106,227.13305402219999L308.790270962236,227.39156084085L311.4145508854278,231.43012015545003L314.1263068060593,231.5090896008L316.7505867292511,236.819620253175L319.46234264988266,237.52786091835L322.1740985705142,237.20584333065L324.79837849370597,236.9099035758L327.5137792475642,240.900411478425L330.138059170756,238.57185266385L332.84981509138754,230.0695764735L335.56157101201904,238.42186694175L338.0108989403314,240.159699095925L340.71901002773626,246.184370183325L343.34328995092807,247.22279496375L346.0550458715596,245.96807204257502L348.67932579475143,248.868887370975L351.391081715383,245.423548687125L354.1028376360145,245.329208818425L356.7271175592063,248.95425745327498L359.4425183130645,249.2156929464L362.0667982362563,247.831050228375L364.7785541568878,246.40832732145L367.4903100775194,252.100962840075L370.0271140032715,251.7544990461L372.7352250906763,252.52694676645L375.35950501386816,259.034938752075L378.0712609344997,261.07021135245L380.69554085769147,257.743121241525L383.40729677832303,260.542657053225L386.11905269895453,264.384875712075L388.74333262214634,262.458584203275L391.45873337600455,263.948561659125L394.08301329919635,260.306433073575L396.79476921982786,258.49926640117496L399.5065251404594,259.8794019243L401.9558530687718,264.52652124255L404.6639641561767,258.429498246375L407.2882440793685,263.684850868275L410,266.53432647044997" data-legend="ruby-on-rails" style="stroke: rgb(214, 39, 40); fill: none;"></path></g></g><g transform="translate(20, 150)"><text transform="rotate(-90)" x="-50" y="0" dy="1em" class="axis-label y-axis-label" style="text-anchor: middle; font-weight: bold;">% of Stack Overflow questions that month</text></g><g class="legend" transform="translate(530, 30)" style="font-size: 12px;"><text class="legend-title" style="font-weight: bold;">Tag</text><g class="legend-items" transform="translate(0,20)"><text y="0em" x="1em">ruby-on-rails</text><text y="1em" x="1em">django</text><text y="2em" x="1em">laravel</text><text y="3em" x="1em">express</text><circle cy="-0.25em" cx="0" r="0.4em" style="fill: rgb(214, 39, 40);"></circle><circle cy="0.75em" cx="0" r="0.4em" style="fill: rgb(255, 127, 14);"></circle><circle cy="1.75em" cx="0" r="0.4em" style="fill: rgb(31, 119, 180);"></circle><circle cy="2.75em" cx="0" r="0.4em" style="fill: rgb(44, 160, 44);"></circle></g><rect class="legend-box"></rect></g></svg>
        